<svg width="74" height="22" viewBox="0 0 74 22" fill="none" xmlns="http://www.w3.org/2000/svg">
<g clip-path="url(#clip0_12462_31933)">
<path fill-rule="evenodd" clip-rule="evenodd" d="M45.9082 17.2046C41.6079 20.3315 35.375 21.9999 30.0085 21.9999C22.4838 21.9999 15.7097 19.2543 10.5848 14.6877C10.1822 14.3286 10.543 13.8393 11.0261 14.1189C16.5569 17.2935 23.3954 19.2034 30.4595 19.2034C35.2236 19.2034 40.4644 18.231 45.2833 16.2131C46.0113 15.908 46.6201 16.6834 45.9082 17.2046Z" fill="#FF9900"/>
<path fill-rule="evenodd" clip-rule="evenodd" d="M47.6959 15.187C47.1483 14.4942 44.0624 14.8597 42.6773 15.0218C42.2553 15.0726 42.1909 14.7103 42.571 14.4498C45.0287 12.7433 49.0616 13.2358 49.5319 13.8078C50.0022 14.383 49.4095 18.3712 47.0999 20.2747C46.7456 20.567 46.4074 20.4113 46.5652 20.0236C47.0838 18.7462 48.2467 15.883 47.6959 15.187Z" fill="#FF9900"/>
<path fill-rule="evenodd" clip-rule="evenodd" d="M42.774 2.40251V0.743689C42.774 0.492643 42.9673 0.324219 43.1992 0.324219H50.7271C50.9687 0.324219 51.1619 0.495821 51.1619 0.743689V2.16417C51.1587 2.40251 50.9558 2.71393 50.595 3.20649L46.6942 8.70093C48.1437 8.66597 49.6737 8.87888 50.988 9.60978C51.2843 9.77503 51.3649 10.0165 51.3874 10.2549V12.0249C51.3874 12.2664 51.1168 12.5493 50.8334 12.4031C48.5173 11.205 45.4411 11.0748 42.8803 12.4158C42.6194 12.5556 42.3456 12.276 42.3456 12.0345V10.3534C42.3456 10.0833 42.3488 9.62249 42.6226 9.21255L47.1419 2.8188H43.2089C42.9673 2.8188 42.774 2.65038 42.774 2.40251Z" fill="#212121"/>
<path fill-rule="evenodd" clip-rule="evenodd" d="M15.3135 12.7527H13.0232C12.8042 12.7368 12.6302 12.5747 12.6141 12.3681V0.772315C12.6141 0.540335 12.8106 0.35602 13.0554 0.35602H15.1911C15.4133 0.365547 15.5905 0.533977 15.6066 0.743712V2.25953H15.6485C16.2057 0.794558 17.2526 0.111328 18.6635 0.111328C20.0969 0.111328 20.9924 0.794558 21.6366 2.25953C22.1907 0.794558 23.4502 0.111328 24.7998 0.111328C25.7597 0.111328 26.8098 0.502199 27.4509 1.37927C28.1756 2.35486 28.0274 3.77217 28.0274 5.01469L28.0242 12.3332C28.0242 12.5652 27.8277 12.7527 27.5829 12.7527H25.2959C25.0672 12.7368 24.8836 12.5556 24.8836 12.3332V6.1873C24.8836 5.69792 24.9287 4.47764 24.8192 4.01368C24.6484 3.23512 24.1363 3.01585 23.4727 3.01585C22.9187 3.01585 22.3389 3.3813 22.1037 3.96601C21.8686 4.55073 21.8911 5.52949 21.8911 6.1873V12.3332C21.8911 12.5652 21.6946 12.7527 21.4498 12.7527H19.1628C18.9309 12.7368 18.7505 12.5556 18.7505 12.3332L18.7473 6.1873C18.7473 4.89393 18.9631 2.99042 17.3364 2.99042C15.6904 2.99042 15.7548 4.84626 15.7548 6.1873V12.3332C15.7548 12.5652 15.5583 12.7527 15.3135 12.7527Z" fill="#212121"/>
<path fill-rule="evenodd" clip-rule="evenodd" d="M57.6429 0.111328C61.0412 0.111328 62.8805 2.99042 62.8805 6.65126C62.8805 10.1882 60.848 12.9942 57.6429 12.9942C54.3058 12.9942 52.489 10.1151 52.489 6.52733C52.489 2.91733 54.3283 0.111328 57.6429 0.111328ZM57.6622 2.4788C55.9743 2.4788 55.868 4.74775 55.868 6.16188C55.868 7.57918 55.8455 10.6045 57.6429 10.6045C59.4178 10.6045 59.5015 8.1639 59.5015 6.67668C59.5015 5.69792 59.4596 4.52849 59.1601 3.60056C58.9024 2.7934 58.3902 2.4788 57.6622 2.4788Z" fill="#212121"/>
<path fill-rule="evenodd" clip-rule="evenodd" d="M67.2871 12.7527H65.0065C64.7778 12.7368 64.5942 12.5556 64.5942 12.3332L64.5909 0.734179C64.6103 0.521266 64.8003 0.35602 65.0322 0.35602H67.155C67.3547 0.365547 67.519 0.499022 67.5641 0.680157V2.45337H67.606C68.247 0.867647 69.1457 0.111328 70.7273 0.111328C71.7548 0.111328 72.7566 0.476777 73.4008 1.47779C74 2.40571 74 3.96601 74 5.08778V12.3872C73.9742 12.5906 73.7842 12.7527 73.5587 12.7527H71.262C71.0526 12.7368 70.8787 12.5842 70.8561 12.3872V6.08879C70.8561 4.82084 71.0043 2.965 69.4227 2.965C68.8654 2.965 68.3533 3.33363 68.0988 3.89292C67.7767 4.60158 67.7348 5.30705 67.7348 6.08879V12.3332C67.7316 12.5652 67.5319 12.7527 67.2871 12.7527Z" fill="#212121"/>
<path fill-rule="evenodd" clip-rule="evenodd" d="M36.7729 7.21363C36.7729 8.09388 36.7954 8.82796 36.3445 9.6097C35.9805 10.2453 35.4007 10.6361 34.7597 10.6361C33.8803 10.6361 33.3649 9.97515 33.3649 8.99956C33.3649 7.07381 35.114 6.72425 36.7729 6.72425V7.21363ZM39.0825 12.7208C38.9311 12.8542 38.712 12.8638 38.5413 12.7748C37.7811 12.1519 37.6426 11.8628 37.2271 11.2685C35.9708 12.5333 35.0786 12.9114 33.4519 12.9114C31.5224 12.9114 30.0245 11.7388 30.0245 9.39043C30.0245 7.55684 31.0295 6.30796 32.4662 5.69782C33.7096 5.15759 35.4458 5.06225 36.7729 4.9129V4.62054C36.7729 4.08349 36.8148 3.44792 36.4927 2.98397C36.2156 2.56767 35.6809 2.39607 35.2074 2.39607C34.3345 2.39607 33.5582 2.83779 33.3681 3.75299C33.3295 3.95638 33.1781 4.15658 32.9687 4.16611L30.7493 3.93095C30.5625 3.88964 30.3531 3.74028 30.4079 3.45746C30.9168 0.80081 33.352 0 35.5295 0C36.644 0 38.1 0.292359 38.9794 1.12494C40.0939 2.15138 39.9876 3.52101 39.9876 5.01141V8.53242C39.9876 9.59064 40.4321 10.0546 40.8509 10.6266C40.9959 10.83 41.0281 11.0747 40.8412 11.2272C40.3742 11.6117 39.5431 12.3267 39.0857 12.7271L39.0825 12.7208Z" fill="#212121"/>
<path fill-rule="evenodd" clip-rule="evenodd" d="M6.74836 7.21363C6.74836 8.09388 6.7709 8.82796 6.31994 9.6097C5.95595 10.2453 5.37936 10.6361 4.73512 10.6361C3.85574 10.6361 3.34358 9.97515 3.34358 8.99956C3.34358 7.07381 5.09267 6.72425 6.74836 6.72425V7.21363ZM9.05794 12.7208C8.90654 12.8542 8.6875 12.8638 8.51678 12.7748C7.75658 12.1519 7.62129 11.8628 7.20254 11.2685C5.94628 12.5333 5.05724 12.9114 3.42733 12.9114C1.50106 12.9114 0 11.7388 0 9.39043C0 7.55684 1.00823 6.30796 2.44165 5.69782C3.68502 5.15759 5.42123 5.06225 6.74836 4.9129V4.62054C6.74836 4.08349 6.79023 3.44792 6.47134 2.98397C6.19109 2.56767 5.65638 2.39607 5.18609 2.39607C4.31315 2.39607 3.53363 2.83779 3.34358 3.75299C3.30492 3.95638 3.15353 4.15658 2.94737 4.16611L0.724764 3.93095C0.537935 3.88964 0.33178 3.74028 0.383319 3.45746C0.895486 0.80081 3.32747 0 5.50498 0C6.61951 0 8.07548 0.292359 8.95486 1.12494C10.0694 2.15138 9.96308 3.52101 9.96308 5.01141V8.53242C9.96308 9.59064 10.4076 10.0546 10.8264 10.6266C10.9745 10.83 11.0067 11.0747 10.8199 11.2272C10.3528 11.6117 9.52178 12.3267 9.06438 12.7271L9.05794 12.7208Z" fill="#212121"/>
</g>
<defs>
<clipPath id="clip0_12462_31933">
<rect width="74" height="22" fill="white"/>
</clipPath>
</defs>
</svg>
