<svg width="36" height="36" viewBox="0 0 36 36" fill="none" xmlns="http://www.w3.org/2000/svg">
<path d="M0 0H35.9106V19.4339L34.1331 22.2181L35.9106 24.6961V36H0V17.6798L1.11092 16.3991L0 15.174V0Z" fill="#016FD0"/>
<path d="M6.97107 25.0856V19.4336H12.9406L13.5811 20.2706L14.2427 19.4336H35.9106V24.6958C35.9106 24.6958 35.344 25.0799 34.6886 25.0856H22.6906L21.9685 24.1946V25.0856H19.6023V23.5647C19.6023 23.5647 19.279 23.777 18.5802 23.777H17.7748V25.0856H14.1921L13.5525 24.2306L12.9032 25.0856H6.97107Z" fill="white"/>
<path d="M0 15.174L1.34615 12.0278H3.67418L4.43814 13.7902V12.0278H7.3321L7.78688 13.3016L8.22778 12.0278H21.2186V12.6682C21.2186 12.6682 21.9016 12.0278 23.0239 12.0278L27.2389 12.0426L27.9897 13.7819V12.0278H30.4115L31.0781 13.0269V12.0278H33.5221V17.6798H31.0781L30.4393 16.6775V17.6798H26.8811L26.5233 16.7888H25.5667L25.2147 17.6798H22.8017C21.836 17.6798 21.2186 17.0525 21.2186 17.0525V17.6798H17.5804L16.8583 16.7888V17.6798H3.3293L2.97172 16.7888H2.01821L1.66316 17.6798H0V15.174Z" fill="white"/>
<path d="M1.82262 12.7246L0.00695801 16.9566H1.18905L1.52406 16.1092H3.47165L3.80493 16.9566H5.01306L3.19913 12.7246H1.82262ZM2.49439 13.7095L3.08804 15.1904H1.899L2.49439 13.7095Z" fill="#016FD0"/>
<path d="M5.13806 16.9557V12.7236L6.81788 12.7299L7.79492 15.4584L8.74856 12.7236H10.4149V16.9557H9.35957V13.8373L8.24085 16.9557H7.31528L6.19344 13.8373V16.9557H5.13806Z" fill="#016FD0"/>
<path d="M11.137 16.9557V12.7236H14.5808V13.6703H12.2034V14.3942H14.5253V15.2851H12.2034V16.0369H14.5808V16.9557H11.137Z" fill="#016FD0"/>
<path d="M15.1919 12.7246V16.9566H16.2473V15.4531H16.6916L17.9571 16.9566H19.2468L17.8581 15.3975C18.428 15.3493 19.0159 14.8589 19.0159 14.0976C19.0159 13.207 18.3186 12.7246 17.5405 12.7246H15.1919ZM16.2473 13.6712H17.4537C17.7431 13.6712 17.9536 13.8982 17.9536 14.1167C17.9536 14.3979 17.6808 14.5622 17.4693 14.5622H16.2473V13.6712Z" fill="#016FD0"/>
<path d="M20.5244 16.9557H19.4468V12.7236H20.5244V16.9557Z" fill="#016FD0"/>
<path d="M23.0794 16.9557H22.8468C21.7214 16.9557 21.0381 16.0668 21.0381 14.857C21.0381 13.6174 21.7137 12.7236 23.135 12.7236H24.3014V13.726H23.0923C22.5154 13.726 22.1074 14.1773 22.1074 14.8675C22.1074 15.6871 22.5739 16.0313 23.246 16.0313H23.5238L23.0794 16.9557Z" fill="#016FD0"/>
<path d="M25.376 12.7246L23.5603 16.9566H24.7424L25.0774 16.1092H27.025L27.3583 16.9566H28.5664L26.7525 12.7246H25.376ZM26.0477 13.7095L26.6414 15.1904H25.4523L26.0477 13.7095Z" fill="#016FD0"/>
<path d="M28.6896 16.9557V12.7236H30.0314L31.7446 15.3826V12.7236H32.8V16.9557H31.5016L29.745 14.2271V16.9557H28.6896Z" fill="#016FD0"/>
<path d="M7.69312 24.3619V20.1299H11.137V21.0765H8.7596V21.8004H11.0814V22.6914H8.7596V23.4431H11.137V24.3619H7.69312Z" fill="#016FD0"/>
<path d="M24.5681 24.3619V20.1299H28.012V21.0765H25.6346V21.8004H27.9453V22.6914H25.6346V23.4431H28.012V24.3619H24.5681Z" fill="#016FD0"/>
<path d="M11.2706 24.3619L12.9474 22.272L11.2307 20.1299H12.5603L13.5827 21.4541L14.6086 20.1299H15.8862L14.192 22.2459L15.8719 24.3619H14.5425L13.5498 23.0585L12.5812 24.3619H11.2706Z" fill="#016FD0"/>
<path d="M15.9973 20.1304V24.3624H17.0805V23.026H18.1914C19.1314 23.026 19.8439 22.526 19.8439 21.5538C19.8439 20.7484 19.2851 20.1304 18.3285 20.1304H15.9973ZM17.0805 21.0874H18.2504C18.5541 21.0874 18.7712 21.274 18.7712 21.5747C18.7712 21.8571 18.5552 22.0619 18.2469 22.0619H17.0805V21.0874Z" fill="#016FD0"/>
<path d="M20.3021 20.1299V24.3619H21.3575V22.8584H21.8019L23.0673 24.3619H24.357L22.9683 22.8027C23.5383 22.7545 24.1261 22.2642 24.1261 21.5029C24.1261 20.6123 23.4289 20.1299 22.6507 20.1299H20.3021ZM21.3575 21.0765H22.5639C22.8533 21.0765 23.0638 21.3035 23.0638 21.522C23.0638 21.8032 22.791 21.9675 22.5795 21.9675H21.3575V21.0765Z" fill="#016FD0"/>
<path d="M28.5007 24.3619V23.4431H30.6128C30.9254 23.4431 31.0607 23.2738 31.0607 23.0881C31.0607 22.9102 30.9258 22.7303 30.6128 22.7303H29.6584C28.8287 22.7303 28.3667 22.2236 28.3667 21.4628C28.3667 20.7843 28.7898 20.1299 30.0227 20.1299H32.0779L31.6335 21.0821H29.856C29.5163 21.0821 29.4117 21.2608 29.4117 21.4315C29.4117 21.6069 29.5409 21.8004 29.8005 21.8004H30.8003C31.7252 21.8004 32.1265 22.3263 32.1265 23.015C32.1265 23.7555 31.6793 24.3619 30.75 24.3619H28.5007Z" fill="#016FD0"/>
<path d="M32.3742 24.3619V23.4431H34.4864C34.7989 23.4431 34.9342 23.2738 34.9342 23.0881C34.9342 22.9102 34.7993 22.7303 34.4864 22.7303H33.5319C32.7023 22.7303 32.2402 22.2236 32.2402 21.4628C32.2402 20.7843 32.6634 20.1299 33.8962 20.1299H35.9514L35.507 21.0821H33.7296C33.3898 21.0821 33.2852 21.2608 33.2852 21.4315C33.2852 21.6069 33.4145 21.8004 33.674 21.8004H34.6739C35.5987 21.8004 36 22.3263 36 23.015C36 23.7555 35.5528 24.3619 34.6235 24.3619H32.3742Z" fill="#016FD0"/>
</svg>
