<svg width="28" height="28" viewBox="0 0 28 28" fill="none" xmlns="http://www.w3.org/2000/svg">
<path d="M23.3337 14.3201C23.3337 14.763 23.0046 15.1291 22.5775 15.1871L22.4587 15.1951L4.95874 15.1951C4.47549 15.1951 4.08374 14.8033 4.08374 14.3201C4.08374 13.8771 4.41292 13.511 4.84001 13.4531L4.95874 13.4451L22.4587 13.4451C22.942 13.4451 23.3337 13.8368 23.3337 14.3201Z" fill="#212121"/>
<path d="M12.6339 20.7284C12.9764 21.0694 12.9776 21.6234 12.6366 21.9658C12.3266 22.2771 11.8406 22.3064 11.4975 22.053L11.3992 21.9685L4.34082 14.9405C4.02858 14.6296 4.00017 14.1418 4.25562 13.7987L4.34077 13.7004L11.3991 6.67126C11.7415 6.33026 12.2955 6.33141 12.6365 6.67382C12.9465 6.98511 12.9738 7.47128 12.7189 7.8133L12.634 7.91126L6.19861 14.3208L12.6339 20.7284Z" fill="#212121"/>
</svg>
