<svg width="28" height="28" viewBox="0 0 28 28" fill="none" xmlns="http://www.w3.org/2000/svg">
<path d="M15.3195 8.59726C15.3872 8.66318 15.6765 8.91208 15.9145 9.14394C17.4113 10.5032 19.8613 14.0493 20.6092 15.9053C20.7293 16.1871 20.9837 16.8997 21 17.2805C21 17.6453 20.916 17.9931 20.7457 18.325C20.5077 18.7387 20.1332 19.0705 19.691 19.2524C19.3842 19.3695 18.466 19.5513 18.4497 19.5513C17.4452 19.7332 15.813 19.8332 14.0093 19.8332C12.2908 19.8332 10.7252 19.7332 9.7055 19.5843C9.68917 19.5672 8.54817 19.3854 8.15733 19.1865C7.44333 18.8216 7 18.109 7 17.3464V17.2805C7.0175 16.7838 7.46083 15.7393 7.47717 15.7393C8.22617 13.9834 10.556 10.5192 12.1042 9.12689C12.1042 9.12689 12.502 8.73478 12.7505 8.5643C13.1075 8.29834 13.5497 8.1665 13.9918 8.1665C14.4853 8.1665 14.945 8.31539 15.3195 8.59726Z" fill="#4AAF57"/>
</svg>
