<svg width="25" height="24" viewBox="0 0 25 24" fill="none" xmlns="http://www.w3.org/2000/svg">
<path fill-rule="evenodd" clip-rule="evenodd" d="M8.00998 2H16.391C19.48 2 21.2 3.78 21.2 6.83V17.16C21.2 20.26 19.48 22 16.391 22H8.00998C4.96998 22 3.19998 20.26 3.19998 17.16V6.83C3.19998 3.78 4.96998 2 8.00998 2ZM8.27998 6.66V6.65H11.269C11.7 6.65 12.05 7 12.05 7.429C12.05 7.87 11.7 8.22 11.269 8.22H8.27998C7.84898 8.22 7.49998 7.87 7.49998 7.44C7.49998 7.01 7.84898 6.66 8.27998 6.66ZM8.27998 12.74H16.12C16.55 12.74 16.9 12.39 16.9 11.96C16.9 11.53 16.55 11.179 16.12 11.179H8.27998C7.84898 11.179 7.49998 11.53 7.49998 11.96C7.49998 12.39 7.84898 12.74 8.27998 12.74ZM8.27998 17.31H16.12C16.519 17.27 16.82 16.929 16.82 16.53C16.82 16.12 16.519 15.78 16.12 15.74H8.27998C7.97998 15.71 7.68998 15.85 7.52998 16.11C7.36998 16.36 7.36998 16.69 7.52998 16.95C7.68998 17.2 7.97998 17.35 8.27998 17.31Z" fill="#FF699C"/>
</svg>
