<svg width="25" height="24" viewBox="0 0 25 24" fill="none" xmlns="http://www.w3.org/2000/svg">
<path fill-rule="evenodd" clip-rule="evenodd" d="M15.9158 16.9737H8.69579C8.28179 16.9737 7.94579 16.6377 7.94579 16.2237C7.94579 15.8097 8.28179 15.4737 8.69579 15.4737H15.9158C16.3298 15.4737 16.6658 15.8097 16.6658 16.2237C16.6658 16.6377 16.3298 16.9737 15.9158 16.9737Z" fill="#9E9E9E"/>
<path fill-rule="evenodd" clip-rule="evenodd" d="M15.9158 12.7872H8.69579C8.28179 12.7872 7.94579 12.4512 7.94579 12.0372C7.94579 11.6232 8.28179 11.2872 8.69579 11.2872H15.9158C16.3298 11.2872 16.6658 11.6232 16.6658 12.0372C16.6658 12.4512 16.3298 12.7872 15.9158 12.7872Z" fill="#9E9E9E"/>
<path fill-rule="evenodd" clip-rule="evenodd" d="M11.4505 8.61041H8.69548C8.28148 8.61041 7.94548 8.27441 7.94548 7.86041C7.94548 7.44641 8.28148 7.11041 8.69548 7.11041H11.4505C11.8645 7.11041 12.2005 7.44641 12.2005 7.86041C12.2005 8.27441 11.8645 8.61041 11.4505 8.61041Z" fill="#9E9E9E"/>
<mask id="mask0_50431_44591" style="mask-type:luminance" maskUnits="userSpaceOnUse" x="3" y="2" width="19" height="20">
<path fill-rule="evenodd" clip-rule="evenodd" d="M3.19998 2.00018H21.3647V21.91H3.19998V2.00018Z" fill="white"/>
</mask>
<g mask="url(#mask0_50431_44591)">
<path fill-rule="evenodd" clip-rule="evenodd" d="M16.1087 3.5L8.41968 3.504C6.09168 3.518 4.69968 4.958 4.69968 7.357V16.553C4.69968 18.968 6.10468 20.41 8.45568 20.41L16.1447 20.407C18.4727 20.393 19.8647 18.951 19.8647 16.553V7.357C19.8647 4.942 18.4607 3.5 16.1087 3.5ZM8.45668 21.91C5.31268 21.91 3.19968 19.757 3.19968 16.553V7.357C3.19968 4.124 5.24668 2.023 8.41468 2.004L16.1077 2H16.1087C19.2527 2 21.3647 4.153 21.3647 7.357V16.553C21.3647 19.785 19.3177 21.887 16.1497 21.907L8.45668 21.91Z" fill="#9E9E9E"/>
</g>
</svg>
