<svg width="109" height="111" viewBox="0 0 109 111" fill="none" xmlns="http://www.w3.org/2000/svg">
<g filter="url(#filter0_d_51235_17781)">
<path d="M67.4499 54.325C67.8499 49.6 66.6249 45.025 69.9749 41.675L72.0499 39.6C77.9499 33.7 77.9499 24.1 72.0499 18.2L67.3998 13.55L64.0499 16.9C60.3249 17 56.6249 18.475 53.7749 21.325L53.2499 21.825C49.8999 25.175 45.4749 27.225 40.7749 27.625C34.5249 28.15 28.6749 30.875 24.2249 35.325C16.7999 42.75 14.7749 53.525 18.1749 62.775L16.4749 64.475L22.8499 70.85C33.0499 81.05 49.5749 81.05 59.7749 70.85C64.1999 66.425 66.9249 60.575 67.4499 54.325Z" fill="url(#paint0_linear_51235_17781)"/>
<path d="M55.15 12.175C58.625 12.175 62.1 13.5 64.75 16.15C70.05 21.45 70.05 30.05 64.75 35.35L64.275 35.825C61.275 38.825 59.425 42.8 59.075 47.025C58.6 52.625 56.15 57.9 52.175 61.875C47.6 66.45 41.6 68.75 35.6 68.75C29.6 68.75 23.6 66.45 19.025 61.875C9.875 52.725 9.875 37.9 19.025 28.75C23 24.775 28.25 22.325 33.875 21.85C38.1 21.5 42.075 19.65 45.075 16.65L45.55 16.175C48.2 13.5 51.675 12.175 55.15 12.175ZM55.15 8.5C50.55 8.5 46.2 10.3 42.95 13.55L42.5 14.025C40.125 16.4 36.95 17.875 33.575 18.175C27.1 18.725 21.025 21.55 16.45 26.125C11.325 31.25 8.5 38.075 8.5 45.3C8.5 52.55 11.325 59.35 16.45 64.475C21.575 69.6 28.375 72.425 35.625 72.425C42.875 72.425 49.675 69.6 54.8 64.475C59.375 59.9 62.225 53.8 62.775 47.35C63.05 43.975 64.525 40.825 66.925 38.425L67.4 37.95C70.65 34.7 72.45 30.35 72.45 25.75C72.45 21.15 70.65 16.8 67.4 13.55C64.1 10.3 59.775 8.5 55.15 8.5Z" fill="#337D63"/>
<path d="M64.2999 35.8248L64.7749 35.3498C70.0749 30.0498 70.0749 21.4498 64.7749 16.1498C59.4749 10.8498 50.8749 10.8498 45.5749 16.1498L45.0999 16.6248C42.0999 19.6248 38.1249 21.4748 33.8999 21.8248C28.2749 22.2998 23.0249 24.7498 19.0499 28.7248C9.89994 37.8748 9.89994 52.6998 19.0499 61.8498C28.1999 70.9998 43.0249 70.9998 52.1749 61.8498C56.1499 57.8748 58.5999 52.6248 59.0749 46.9998C59.4499 42.7998 61.2999 38.8248 64.2999 35.8248Z" fill="#89BA4F"/>
<path d="M64.2999 35.8248L64.7749 35.3498C70.0749 30.0498 70.0749 21.4498 64.7749 16.1498C59.4749 10.8498 50.8749 10.8498 45.5749 16.1498L45.0999 16.6248C42.0999 19.6248 38.1249 21.4748 33.8999 21.8248C28.2749 22.2998 23.0249 24.7498 19.0499 28.7248C9.89994 37.8748 9.89994 52.6998 19.0499 61.8498C28.1999 70.9998 43.0249 70.9998 52.1749 61.8498C56.1499 57.8748 58.5999 52.6248 59.0749 46.9998C59.4499 42.7998 61.2999 38.8248 64.2999 35.8248Z" fill="url(#paint1_radial_51235_17781)"/>
<path d="M64.2999 35.8248L64.7749 35.3498C70.0749 30.0498 70.0749 21.4498 64.7749 16.1498C59.4749 10.8498 50.8749 10.8498 45.5749 16.1498L45.0999 16.6248C42.0999 19.6248 38.1249 21.4748 33.8999 21.8248C28.2749 22.2998 23.0249 24.7498 19.0499 28.7248C9.89994 37.8748 9.89994 52.6998 19.0499 61.8498C28.1999 70.9998 43.0249 70.9998 52.1749 61.8498C56.1499 57.8748 58.5999 52.6248 59.0749 46.9998C59.4499 42.7998 61.2999 38.8248 64.2999 35.8248Z" fill="url(#paint2_radial_51235_17781)"/>
<path d="M36.7248 55.2248C42.7447 55.2248 47.6248 50.3447 47.6248 44.3248C47.6248 38.3049 42.7447 33.4248 36.7248 33.4248C30.7049 33.4248 25.8248 38.3049 25.8248 44.3248C25.8248 50.3447 30.7049 55.2248 36.7248 55.2248Z" fill="url(#paint3_radial_51235_17781)"/>
</g>
<defs>
<filter id="filter0_d_51235_17781" x="-7" y="-7" width="120" height="120" filterUnits="userSpaceOnUse" color-interpolation-filters="sRGB">
<feFlood flood-opacity="0" result="BackgroundImageFix"/>
<feColorMatrix in="SourceAlpha" type="matrix" values="0 0 0 0 0 0 0 0 0 0 0 0 0 0 0 0 0 0 127 0" result="hardAlpha"/>
<feOffset dx="12" dy="12"/>
<feGaussianBlur stdDeviation="10"/>
<feComposite in2="hardAlpha" operator="out"/>
<feColorMatrix type="matrix" values="0 0 0 0 0.513726 0 0 0 0 0.717647 0 0 0 0 0.2 0 0 0 0.2 0"/>
<feBlend mode="normal" in2="BackgroundImageFix" result="effect1_dropShadow_51235_17781"/>
<feBlend mode="normal" in="SourceGraphic" in2="effect1_dropShadow_51235_17781" result="shape"/>
</filter>
<linearGradient id="paint0_linear_51235_17781" x1="76.4749" y1="26.625" x2="31" y2="75.375" gradientUnits="userSpaceOnUse">
<stop offset="0.0112" stop-color="#A9EC4A"/>
<stop offset="0.130301" stop-color="#88C83E"/>
<stop offset="0.256868" stop-color="#578546"/>
<stop offset="0.379777" stop-color="#55A052"/>
<stop offset="0.600539" stop-color="#275B57"/>
<stop offset="0.751125" stop-color="#294F59"/>
<stop offset="1" stop-color="#395468"/>
</linearGradient>
<radialGradient id="paint1_radial_51235_17781" cx="0" cy="0" r="1" gradientUnits="userSpaceOnUse" gradientTransform="translate(21.9375 26.6249) rotate(56.8393) scale(50.2753 136.343)">
<stop offset="0.351455" stop-color="#D9F650"/>
<stop offset="0.814859" stop-color="#DEFB4F" stop-opacity="0"/>
</radialGradient>
<radialGradient id="paint2_radial_51235_17781" cx="0" cy="0" r="1" gradientUnits="userSpaceOnUse" gradientTransform="translate(32.25 47.2499) rotate(47.7263) scale(18.5826 17.5502)">
<stop offset="0.351455" stop-color="#9AAE39"/>
<stop offset="0.814859" stop-color="#A4D050" stop-opacity="0"/>
</radialGradient>
<radialGradient id="paint3_radial_51235_17781" cx="0" cy="0" r="1" gradientUnits="userSpaceOnUse" gradientTransform="translate(41.4688 40.3749) rotate(140.505) scale(18.4256 18.4256)">
<stop offset="0.129081" stop-color="#D5A891"/>
<stop offset="0.443693" stop-color="#A07751"/>
<stop offset="0.791711" stop-color="#57463C"/>
<stop offset="0.982639" stop-color="#5B5830"/>
</radialGradient>
</defs>
</svg>
