<svg width="62" height="60" viewBox="0 0 62 60" fill="none" xmlns="http://www.w3.org/2000/svg">
    <ellipse cx="20.8333" cy="58.8337" rx="1.16667" ry="1.16667" fill="white" />
    <ellipse cx="40.6667" cy="57.0003" rx="0.333334" ry="0.333332" fill="white" />
    <ellipse cx="3.33332" cy="44.3337" rx="1.66667" ry="1.66667" fill="white" />
    <circle cx="31.8333" cy="30.5" r="23.5" fill="white" />
    <ellipse cx="55.1667" cy="53.5003" rx="0.833334" ry="0.833332" fill="white" />
    <circle cx="56.8333" cy="36.8333" r="0.833334" fill="white" />
    <ellipse cx="0.333333" cy="25.0003" rx="0.333333" ry="0.333334" fill="white" />
    <path
        d="M38.4055 32.4113L38.5589 30.9905C38.6397 30.2321 38.6939 29.7321 38.6514 29.4171H38.6664C38.9516 29.4171 39.2282 29.3194 39.4503 29.1405C39.6724 28.9615 39.8267 28.7119 39.8874 28.4332C39.9481 28.1545 39.9117 27.8634 39.7841 27.6083C39.6566 27.3531 39.4457 27.1493 39.1863 27.0306C38.9269 26.9118 38.6348 26.8854 38.3583 26.9556C38.0818 27.0258 37.8377 27.1885 37.6664 27.4166C37.4952 27.6447 37.4071 27.9245 37.4167 28.2096C37.4264 28.4947 37.5333 28.7679 37.7197 28.9838C37.448 29.1513 37.093 29.5055 36.5589 30.038C36.1464 30.4488 35.9405 30.6538 35.7105 30.6855C35.5831 30.7031 35.4532 30.6849 35.3355 30.633C35.1238 30.5396 34.9822 30.2863 34.6997 29.7788L33.208 27.1046C33.0338 26.7921 32.888 26.5296 32.7563 26.3196C33.0899 26.1497 33.3565 25.8724 33.5133 25.5324C33.67 25.1924 33.7077 24.8096 33.6203 24.4456C33.5329 24.0815 33.3255 23.7575 33.0315 23.5258C32.7375 23.294 32.374 23.168 31.9997 23.168C31.6253 23.168 31.2619 23.294 30.9679 23.5258C30.6739 23.7575 30.4665 24.0815 30.3791 24.4456C30.2917 24.8096 30.3294 25.1924 30.4861 25.5324C30.6428 25.8724 30.9095 26.1497 31.243 26.3196C31.1113 26.5305 30.9655 26.7921 30.7905 27.1046L29.2997 29.7788C29.0164 30.2863 28.8747 30.5396 28.663 30.633C28.5453 30.6849 28.4155 30.7031 28.288 30.6855C28.0589 30.6538 27.853 30.4488 27.4405 30.038C26.9063 29.5055 26.5514 29.1513 26.2797 28.9838C26.466 28.7679 26.5729 28.4947 26.5826 28.2096C26.5923 27.9245 26.5042 27.6447 26.3329 27.4166C26.1617 27.1885 25.9175 27.0258 25.6411 26.9556C25.3646 26.8854 25.0724 26.9118 24.8131 27.0306C24.5537 27.1493 24.3428 27.3531 24.2152 27.6083C24.0877 27.8634 24.0513 28.1545 24.112 28.4332C24.1727 28.7119 24.3269 28.9615 24.549 29.1405C24.7711 29.3194 25.0478 29.4171 25.333 29.4171H25.348C25.3055 29.7321 25.3597 30.233 25.4405 30.9905L25.5939 32.4113C25.6789 33.1996 25.7488 33.9505 25.8355 34.6255H38.1638C38.2505 33.9505 38.3205 33.2005 38.4055 32.4113ZM31.093 38.1671H32.9064C35.2697 38.1671 36.4514 38.1671 37.2397 37.4613C37.5838 37.153 37.8013 36.598 37.9588 35.8755H26.0405C26.198 36.598 26.4155 37.1538 26.7597 37.4613C27.548 38.1671 28.7297 38.1671 31.093 38.1671Z"
        fill="#FF981F" />
    <ellipse cx="59.5" cy="9.16699" rx="2.5" ry="2.5" fill="white" />
    <ellipse cx="35.5" cy="1.50033" rx="0.833332" ry="0.833333" fill="white" />
    <ellipse cx="6.66668" cy="3.33333" rx="3.33333" ry="3.33333" fill="white" />
</svg>