<svg width="24" height="25" viewBox="0 0 24 25" fill="none" xmlns="http://www.w3.org/2000/svg">
<path fill-rule="evenodd" clip-rule="evenodd" d="M13.5996 21.7842C13.1856 21.7842 12.8496 21.4482 12.8496 21.0342V19.0112C12.8496 18.5962 13.1856 18.2612 13.5996 18.2612C14.0136 18.2612 14.3496 18.5962 14.3496 19.0112V21.0342C14.3496 21.4482 14.0136 21.7842 13.5996 21.7842Z" fill="#212121"/>
<path fill-rule="evenodd" clip-rule="evenodd" d="M13.5996 16.3252C13.1856 16.3252 12.8496 15.9892 12.8496 15.5752V10.7542C12.8496 10.3402 13.1856 10.0042 13.5996 10.0042C14.0136 10.0042 14.3496 10.3402 14.3496 10.7542V15.5752C14.3496 15.9892 14.0136 16.3252 13.5996 16.3252Z" fill="#212121"/>
<path fill-rule="evenodd" clip-rule="evenodd" d="M13.5996 8.671C13.1856 8.671 12.8496 8.335 12.8496 7.921V5.5C12.8496 5.086 13.1856 4.75 13.5996 4.75C14.0136 4.75 14.3496 5.086 14.3496 5.5V7.921C14.3496 8.335 14.0136 8.671 13.5996 8.671Z" fill="#212121"/>
<mask id="mask0_50538_3246" style="mask-type:luminance" maskUnits="userSpaceOnUse" x="1" y="4" width="22" height="18">
<path fill-rule="evenodd" clip-rule="evenodd" d="M1 4.5H22.5V21.9997H1V4.5Z" fill="white"/>
</mask>
<g mask="url(#mask0_50538_3246)">
<path fill-rule="evenodd" clip-rule="evenodd" d="M2.5 16.0538V17.9928C2.5 19.3748 3.643 20.4998 5.048 20.4998H18.452C19.857 20.4998 21 19.3748 21 17.9928V16.0538C19.749 15.7248 18.823 14.5928 18.823 13.2508C18.823 11.9078 19.748 10.7768 21 10.4478L20.999 8.50676C20.999 7.12476 19.856 5.99976 18.451 5.99976H5.049C3.644 5.99976 2.501 7.12476 2.501 8.50676L2.5 10.5248C3.767 10.8358 4.677 11.9218 4.677 13.2508C4.677 14.5928 3.751 15.7248 2.5 16.0538ZM18.452 21.9998H5.048C2.816 21.9998 1 20.2018 1 17.9928V15.4008C1 14.9868 1.336 14.6508 1.75 14.6508C2.537 14.6508 3.177 14.0228 3.177 13.2508C3.177 12.5008 2.563 11.9348 1.75 11.9348C1.551 11.9348 1.36 11.8558 1.22 11.7148C1.079 11.5748 1 11.3828 1 11.1848L1.001 8.50676C1.001 6.29776 2.817 4.49976 5.049 4.49976H18.451C20.683 4.49976 22.499 6.29776 22.499 8.50676L22.5 11.1008C22.5 11.2988 22.421 11.4908 22.28 11.6308C22.14 11.7718 21.949 11.8508 21.75 11.8508C20.963 11.8508 20.323 12.4788 20.323 13.2508C20.323 14.0228 20.963 14.6508 21.75 14.6508C22.164 14.6508 22.5 14.9868 22.5 15.4008V17.9928C22.5 20.2018 20.684 21.9998 18.452 21.9998Z" fill="#212121"/>
</g>
</svg>
