<svg width="28" height="39" viewBox="0 0 28 39" fill="none" xmlns="http://www.w3.org/2000/svg">
<path d="M2.01414 18.0425L11.1125 2.06772C11.4095 1.54627 11.8395 1.11296 12.3587 0.812048C12.8779 0.511134 13.4676 0.353393 14.0677 0.354931C14.6678 0.356469 15.2567 0.517231 15.7743 0.820802C16.2919 1.12437 16.7197 1.55988 17.014 2.08285L26.2788 18.5416H26.2636C27.2998 20.5207 27.8392 22.7221 27.8353 24.956C27.8353 32.5968 21.6409 38.7912 14 38.7912C6.35914 38.7912 0.164764 32.5968 0.164764 24.956C0.164764 22.5607 0.772514 20.3085 1.84226 18.345H1.83951L1.92614 18.1937L2.01414 18.0425Z" fill="url(#paint0_linear_50786_1068)"/>
<path d="M2.01414 18.0425L11.1125 2.06772C11.4095 1.54627 11.8395 1.11296 12.3587 0.812048C12.8779 0.511134 13.4676 0.353393 14.0677 0.354931C14.6678 0.356469 15.2567 0.517231 15.7743 0.820802C16.2919 1.12437 16.7197 1.55988 17.014 2.08285L26.2788 18.5416H26.2636C27.2998 20.5207 27.8392 22.7221 27.8353 24.956C27.8353 32.5968 21.6409 38.7912 14 38.7912C6.35914 38.7912 0.164764 32.5968 0.164764 24.956C0.164764 22.5607 0.772514 20.3085 1.84226 18.345H1.83951L1.92614 18.1937L2.01414 18.0425Z" fill="url(#paint1_radial_50786_1068)"/>
<path d="M2.01414 18.0425L11.1125 2.06772C11.4095 1.54627 11.8395 1.11296 12.3587 0.812048C12.8779 0.511134 13.4676 0.353393 14.0677 0.354931C14.6678 0.356469 15.2567 0.517231 15.7743 0.820802C16.2919 1.12437 16.7197 1.55988 17.014 2.08285L26.2788 18.5416H26.2636C27.2998 20.5207 27.8392 22.7221 27.8353 24.956C27.8353 32.5968 21.6409 38.7912 14 38.7912C6.35914 38.7912 0.164764 32.5968 0.164764 24.956C0.164764 22.5607 0.772514 20.3085 1.84226 18.345H1.83951L1.92614 18.1937L2.01414 18.0425Z" fill="url(#paint2_radial_50786_1068)"/>
<path d="M2.01414 18.0425L11.1125 2.06772C11.4095 1.54627 11.8395 1.11296 12.3587 0.812048C12.8779 0.511134 13.4676 0.353393 14.0677 0.354931C14.6678 0.356469 15.2567 0.517231 15.7743 0.820802C16.2919 1.12437 16.7197 1.55988 17.014 2.08285L26.2788 18.5416H26.2636C27.2998 20.5207 27.8392 22.7221 27.8353 24.956C27.8353 32.5968 21.6409 38.7912 14 38.7912C6.35914 38.7912 0.164764 32.5968 0.164764 24.956C0.164764 22.5607 0.772514 20.3085 1.84226 18.345H1.83951L1.92614 18.1937L2.01414 18.0425Z" fill="url(#paint3_radial_50786_1068)"/>
<path d="M2.01414 18.0425L11.1125 2.06772C11.4095 1.54627 11.8395 1.11296 12.3587 0.812048C12.8779 0.511134 13.4676 0.353393 14.0677 0.354931C14.6678 0.356469 15.2567 0.517231 15.7743 0.820802C16.2919 1.12437 16.7197 1.55988 17.014 2.08285L26.2788 18.5416H26.2636C27.2998 20.5207 27.8392 22.7221 27.8353 24.956C27.8353 32.5968 21.6409 38.7912 14 38.7912C6.35914 38.7912 0.164764 32.5968 0.164764 24.956C0.164764 22.5607 0.772514 20.3085 1.84226 18.345H1.83951L1.92614 18.1937L2.01414 18.0425Z" fill="url(#paint4_linear_50786_1068)"/>
<defs>
<linearGradient id="paint0_linear_50786_1068" x1="14" y1="9.53122" x2="14" y2="37.7187" gradientUnits="userSpaceOnUse">
<stop stop-color="#FD4452"/>
<stop offset="1" stop-color="#FF1F5D"/>
</linearGradient>
<radialGradient id="paint1_radial_50786_1068" cx="0" cy="0" r="1" gradientUnits="userSpaceOnUse" gradientTransform="translate(14 15.0546) rotate(90) scale(23.7388 20.894)">
<stop offset="0.901" stop-color="#FE7C86" stop-opacity="0"/>
<stop offset="1" stop-color="#FE7C86"/>
</radialGradient>
<radialGradient id="paint2_radial_50786_1068" cx="0" cy="0" r="1" gradientUnits="userSpaceOnUse" gradientTransform="translate(24.1448 22.5236) rotate(143.778) scale(14.113 8.85745)">
<stop stop-color="#FEB4BA"/>
<stop offset="1" stop-color="#FEB4BA" stop-opacity="0"/>
</radialGradient>
<radialGradient id="paint3_radial_50786_1068" cx="0" cy="0" r="1" gradientUnits="userSpaceOnUse" gradientTransform="translate(19.8658 2.94497) rotate(61.928) scale(20.9579 10.3379)">
<stop stop-color="#FEA2A9"/>
<stop offset="1" stop-color="#FEA2A9" stop-opacity="0"/>
</radialGradient>
<linearGradient id="paint4_linear_50786_1068" x1="4.80539" y1="12.2812" x2="14" y2="15.375" gradientUnits="userSpaceOnUse">
<stop offset="0.032" stop-color="#E43D4A"/>
<stop offset="1" stop-color="#FD4452" stop-opacity="0"/>
</linearGradient>
</defs>
</svg>
