<svg width="107" height="110" viewBox="0 0 107 110" fill="none" xmlns="http://www.w3.org/2000/svg">
<g filter="url(#filter0_d_51235_17751)">
<path d="M46.6872 59.7821C46.2309 58.3506 44.4609 57.2211 42.156 57.4923C38.5389 57.9178 35.3695 58.6615 32.7419 59.7821C31.8211 60.1748 30.4582 59.1843 31.1046 58.42L35.4211 53.316C36.4227 52.1911 36.394 50.4682 35.3036 49.4468C34.1861 48.4181 32.8244 48.5527 31.4199 49.6185C30.8701 50.0357 28.6794 52.1017 27.0778 53.5861C26.1466 54.4492 24.6559 54.4845 24.6559 52.6095L25.8887 43.2984C26.1954 41.8404 25.2492 40.3929 23.7912 40.0862C22.3333 39.7796 20.7829 39.8235 20.4763 41.2814L18.6491 51.372C17.841 55.2236 15.7545 58.8637 13.1326 61.7892C10.5153 64.2501 7.31221 68.3517 9.81219 71.4376L15.8278 77.014C18.9138 79.7189 23.0995 75.0505 25.3847 72.4949C28.0139 69.5423 31.0125 67.4985 34.7731 66.2761L44.7731 63.6641C46.2046 63.2077 47.1706 61.2209 46.6872 59.7821Z" fill="#7FCF71"/>
<path d="M46.6872 59.7821C46.2309 58.3506 44.4609 57.2211 42.156 57.4923C38.5389 57.9178 35.3695 58.6615 32.7419 59.7821C31.8211 60.1748 30.4582 59.1843 31.1046 58.42L35.4211 53.316C36.4227 52.1911 36.394 50.4682 35.3036 49.4468C34.1861 48.4181 32.8244 48.5527 31.4199 49.6185C30.8701 50.0357 28.6794 52.1017 27.0778 53.5861C26.1466 54.4492 24.6559 54.4845 24.6559 52.6095L25.8887 43.2984C26.1954 41.8404 25.2492 40.3929 23.7912 40.0862C22.3333 39.7796 20.7829 39.8235 20.4763 41.2814L18.6491 51.372C17.841 55.2236 15.7545 58.8637 13.1326 61.7892C10.5153 64.2501 7.31221 68.3517 9.81219 71.4376L15.8278 77.014C18.9138 79.7189 23.0995 75.0505 25.3847 72.4949C28.0139 69.5423 31.0125 67.4985 34.7731 66.2761L44.7731 63.6641C46.2046 63.2077 47.1706 61.2209 46.6872 59.7821Z" fill="url(#paint0_linear_51235_17751)"/>
<path d="M46.6872 59.7821C46.2309 58.3506 44.4609 57.2211 42.156 57.4923C38.5389 57.9178 35.3695 58.6615 32.7419 59.7821C31.8211 60.1748 30.4582 59.1843 31.1046 58.42L35.4211 53.316C36.4227 52.1911 36.394 50.4682 35.3036 49.4468C34.1861 48.4181 32.8244 48.5527 31.4199 49.6185C30.8701 50.0357 28.6794 52.1017 27.0778 53.5861C26.1466 54.4492 24.6559 54.4845 24.6559 52.6095L25.8887 43.2984C26.1954 41.8404 25.2492 40.3929 23.7912 40.0862C22.3333 39.7796 20.7829 39.8235 20.4763 41.2814L18.6491 51.372C17.841 55.2236 15.7545 58.8637 13.1326 61.7892C10.5153 64.2501 7.31221 68.3517 9.81219 71.4376L15.8278 77.014C18.9138 79.7189 23.0995 75.0505 25.3847 72.4949C28.0139 69.5423 31.0125 67.4985 34.7731 66.2761L44.7731 63.6641C46.2046 63.2077 47.1706 61.2209 46.6872 59.7821Z" fill="url(#paint1_linear_51235_17751)"/>
<path d="M46.6872 59.7821C46.2309 58.3506 44.4609 57.2211 42.156 57.4923C38.5389 57.9178 35.3695 58.6615 32.7419 59.7821C31.8211 60.1748 30.4582 59.1843 31.1046 58.42L35.4211 53.316C36.4227 52.1911 36.394 50.4682 35.3036 49.4468C34.1861 48.4181 32.8244 48.5527 31.4199 49.6185C30.8701 50.0357 28.6794 52.1017 27.0778 53.5861C26.1466 54.4492 24.6559 54.4845 24.6559 52.6095L25.8887 43.2984C26.1954 41.8404 25.2492 40.3929 23.7912 40.0862C22.3333 39.7796 20.7829 39.8235 20.4763 41.2814L18.6491 51.372C17.841 55.2236 15.7545 58.8637 13.1326 61.7892C10.5153 64.2501 7.31221 68.3517 9.81219 71.4376L15.8278 77.014C18.9138 79.7189 23.0995 75.0505 25.3847 72.4949C28.0139 69.5423 31.0125 67.4985 34.7731 66.2761L44.7731 63.6641C46.2046 63.2077 47.1706 61.2209 46.6872 59.7821Z" fill="url(#paint2_radial_51235_17751)"/>
<path d="M46.6872 59.7821C46.2309 58.3506 44.4609 57.2211 42.156 57.4923C38.5389 57.9178 35.3695 58.6615 32.7419 59.7821C31.8211 60.1748 30.4582 59.1843 31.1046 58.42L35.4211 53.316C36.4227 52.1911 36.394 50.4682 35.3036 49.4468C34.1861 48.4181 32.8244 48.5527 31.4199 49.6185C30.8701 50.0357 28.6794 52.1017 27.0778 53.5861C26.1466 54.4492 24.6559 54.4845 24.6559 52.6095L25.8887 43.2984C26.1954 41.8404 25.2492 40.3929 23.7912 40.0862C22.3333 39.7796 20.7829 39.8235 20.4763 41.2814L18.6491 51.372C17.841 55.2236 15.7545 58.8637 13.1326 61.7892C10.5153 64.2501 7.31221 68.3517 9.81219 71.4376L15.8278 77.014C18.9138 79.7189 23.0995 75.0505 25.3847 72.4949C28.0139 69.5423 31.0125 67.4985 34.7731 66.2761L44.7731 63.6641C46.2046 63.2077 47.1706 61.2209 46.6872 59.7821Z" fill="url(#paint3_radial_51235_17751)"/>
<path d="M46.6872 59.7821C46.2309 58.3506 44.4609 57.2211 42.156 57.4923C38.5389 57.9178 35.3695 58.6615 32.7419 59.7821C31.8211 60.1748 30.4582 59.1843 31.1046 58.42L35.4211 53.316C36.4227 52.1911 36.394 50.4682 35.3036 49.4468C34.1861 48.4181 32.8244 48.5527 31.4199 49.6185C30.8701 50.0357 28.6794 52.1017 27.0778 53.5861C26.1466 54.4492 24.6559 54.4845 24.6559 52.6095L25.8887 43.2984C26.1954 41.8404 25.2492 40.3929 23.7912 40.0862C22.3333 39.7796 20.7829 39.8235 20.4763 41.2814L18.6491 51.372C17.841 55.2236 15.7545 58.8637 13.1326 61.7892C10.5153 64.2501 7.31221 68.3517 9.81219 71.4376L15.8278 77.014C18.9138 79.7189 23.0995 75.0505 25.3847 72.4949C28.0139 69.5423 31.0125 67.4985 34.7731 66.2761L44.7731 63.6641C46.2046 63.2077 47.1706 61.2209 46.6872 59.7821Z" fill="url(#paint4_radial_51235_17751)"/>
<path d="M46.6872 59.7821C46.2309 58.3506 44.4609 57.2211 42.156 57.4923C38.5389 57.9178 35.3695 58.6615 32.7419 59.7821C31.8211 60.1748 30.4582 59.1843 31.1046 58.42L35.4211 53.316C36.4227 52.1911 36.394 50.4682 35.3036 49.4468C34.1861 48.4181 32.8244 48.5527 31.4199 49.6185C30.8701 50.0357 28.6794 52.1017 27.0778 53.5861C26.1466 54.4492 24.6559 54.4845 24.6559 52.6095L25.8887 43.2984C26.1954 41.8404 25.2492 40.3929 23.7912 40.0862C22.3333 39.7796 20.7829 39.8235 20.4763 41.2814L18.6491 51.372C17.841 55.2236 15.7545 58.8637 13.1326 61.7892C10.5153 64.2501 7.31221 68.3517 9.81219 71.4376L15.8278 77.014C18.9138 79.7189 23.0995 75.0505 25.3847 72.4949C28.0139 69.5423 31.0125 67.4985 34.7731 66.2761L44.7731 63.6641C46.2046 63.2077 47.1706 61.2209 46.6872 59.7821Z" fill="url(#paint5_radial_51235_17751)"/>
<path d="M46.6872 59.7821C46.2309 58.3506 44.4609 57.2211 42.156 57.4923C38.5389 57.9178 35.3695 58.6615 32.7419 59.7821C31.8211 60.1748 30.4582 59.1843 31.1046 58.42L35.4211 53.316C36.4227 52.1911 36.394 50.4682 35.3036 49.4468C34.1861 48.4181 32.8244 48.5527 31.4199 49.6185C30.8701 50.0357 28.6794 52.1017 27.0778 53.5861C26.1466 54.4492 24.6559 54.4845 24.6559 52.6095L25.8887 43.2984C26.1954 41.8404 25.2492 40.3929 23.7912 40.0862C22.3333 39.7796 20.7829 39.8235 20.4763 41.2814L18.6491 51.372C17.841 55.2236 15.7545 58.8637 13.1326 61.7892C10.5153 64.2501 7.31221 68.3517 9.81219 71.4376L15.8278 77.014C18.9138 79.7189 23.0995 75.0505 25.3847 72.4949C28.0139 69.5423 31.0125 67.4985 34.7731 66.2761L44.7731 63.6641C46.2046 63.2077 47.1706 61.2209 46.6872 59.7821Z" fill="url(#paint6_radial_51235_17751)"/>
<path d="M46.6872 59.7821C46.2309 58.3506 44.4609 57.2211 42.156 57.4923C38.5389 57.9178 35.3695 58.6615 32.7419 59.7821C31.8211 60.1748 30.4582 59.1843 31.1046 58.42L35.4211 53.316C36.4227 52.1911 36.394 50.4682 35.3036 49.4468C34.1861 48.4181 32.8244 48.5527 31.4199 49.6185C30.8701 50.0357 28.6794 52.1017 27.0778 53.5861C26.1466 54.4492 24.6559 54.4845 24.6559 52.6095L25.8887 43.2984C26.1954 41.8404 25.2492 40.3929 23.7912 40.0862C22.3333 39.7796 20.7829 39.8235 20.4763 41.2814L18.6491 51.372C17.841 55.2236 15.7545 58.8637 13.1326 61.7892C10.5153 64.2501 7.31221 68.3517 9.81219 71.4376L15.8278 77.014C18.9138 79.7189 23.0995 75.0505 25.3847 72.4949C28.0139 69.5423 31.0125 67.4985 34.7731 66.2761L44.7731 63.6641C46.2046 63.2077 47.1706 61.2209 46.6872 59.7821Z" fill="url(#paint7_radial_51235_17751)"/>
<path d="M46.6872 59.7821C46.2309 58.3506 44.4609 57.2211 42.156 57.4923C38.5389 57.9178 35.3695 58.6615 32.7419 59.7821C31.8211 60.1748 30.4582 59.1843 31.1046 58.42L35.4211 53.316C36.4227 52.1911 36.394 50.4682 35.3036 49.4468C34.1861 48.4181 32.8244 48.5527 31.4199 49.6185C30.8701 50.0357 28.6794 52.1017 27.0778 53.5861C26.1466 54.4492 24.6559 54.4845 24.6559 52.6095L25.8887 43.2984C26.1954 41.8404 25.2492 40.3929 23.7912 40.0862C22.3333 39.7796 20.7829 39.8235 20.4763 41.2814L18.6491 51.372C17.841 55.2236 15.7545 58.8637 13.1326 61.7892C10.5153 64.2501 7.31221 68.3517 9.81219 71.4376L15.8278 77.014C18.9138 79.7189 23.0995 75.0505 25.3847 72.4949C28.0139 69.5423 31.0125 67.4985 34.7731 66.2761L44.7731 63.6641C46.2046 63.2077 47.1706 61.2209 46.6872 59.7821Z" fill="url(#paint8_radial_51235_17751)"/>
<path d="M47.204 27.195C47.204 36.5712 39.6031 44.172 30.227 44.172C20.8509 44.172 13.25 36.5712 13.25 27.195C13.25 17.8189 20.8509 10.218 30.227 10.218C39.6031 10.218 47.204 17.8189 47.204 27.195Z" fill="#1BAA74"/>
<path d="M47.204 27.195C47.204 36.5712 39.6031 44.172 30.227 44.172C20.8509 44.172 13.25 36.5712 13.25 27.195C13.25 17.8189 20.8509 10.218 30.227 10.218C39.6031 10.218 47.204 17.8189 47.204 27.195Z" fill="url(#paint9_radial_51235_17751)"/>
<path d="M47.204 27.195C47.204 36.5712 39.6031 44.172 30.227 44.172C20.8509 44.172 13.25 36.5712 13.25 27.195C13.25 17.8189 20.8509 10.218 30.227 10.218C39.6031 10.218 47.204 17.8189 47.204 27.195Z" fill="url(#paint10_radial_51235_17751)"/>
<path d="M47.204 27.195C47.204 36.5712 39.6031 44.172 30.227 44.172C20.8509 44.172 13.25 36.5712 13.25 27.195C13.25 17.8189 20.8509 10.218 30.227 10.218C39.6031 10.218 47.204 17.8189 47.204 27.195Z" fill="url(#paint11_radial_51235_17751)"/>
<path d="M47.204 27.195C47.204 36.5712 39.6031 44.172 30.227 44.172C20.8509 44.172 13.25 36.5712 13.25 27.195C13.25 17.8189 20.8509 10.218 30.227 10.218C39.6031 10.218 47.204 17.8189 47.204 27.195Z" fill="url(#paint12_radial_51235_17751)"/>
<path fill-rule="evenodd" clip-rule="evenodd" d="M18.47 24.6217C18.47 25.0578 18.1164 25.4114 17.6803 25.4114C17.2442 25.4114 16.8906 25.0578 16.8906 24.6217C16.8906 24.1856 17.2442 23.832 17.6803 23.832C18.1164 23.832 18.47 24.1856 18.47 24.6217ZM57.727 68.8595C67.1031 68.8595 74.704 61.2587 74.704 51.8825C74.704 42.5064 67.1031 34.9055 57.727 34.9055C48.3509 34.9055 40.75 42.5064 40.75 51.8825C40.75 61.2587 48.3509 68.8595 57.727 68.8595Z" fill="#1EA392"/>
<path fill-rule="evenodd" clip-rule="evenodd" d="M18.47 24.6217C18.47 25.0578 18.1164 25.4114 17.6803 25.4114C17.2442 25.4114 16.8906 25.0578 16.8906 24.6217C16.8906 24.1856 17.2442 23.832 17.6803 23.832C18.1164 23.832 18.47 24.1856 18.47 24.6217ZM57.727 68.8595C67.1031 68.8595 74.704 61.2587 74.704 51.8825C74.704 42.5064 67.1031 34.9055 57.727 34.9055C48.3509 34.9055 40.75 42.5064 40.75 51.8825C40.75 61.2587 48.3509 68.8595 57.727 68.8595Z" fill="url(#paint13_radial_51235_17751)"/>
<path fill-rule="evenodd" clip-rule="evenodd" d="M18.47 24.6217C18.47 25.0578 18.1164 25.4114 17.6803 25.4114C17.2442 25.4114 16.8906 25.0578 16.8906 24.6217C16.8906 24.1856 17.2442 23.832 17.6803 23.832C18.1164 23.832 18.47 24.1856 18.47 24.6217ZM57.727 68.8595C67.1031 68.8595 74.704 61.2587 74.704 51.8825C74.704 42.5064 67.1031 34.9055 57.727 34.9055C48.3509 34.9055 40.75 42.5064 40.75 51.8825C40.75 61.2587 48.3509 68.8595 57.727 68.8595Z" fill="url(#paint14_radial_51235_17751)"/>
<path fill-rule="evenodd" clip-rule="evenodd" d="M18.47 24.6217C18.47 25.0578 18.1164 25.4114 17.6803 25.4114C17.2442 25.4114 16.8906 25.0578 16.8906 24.6217C16.8906 24.1856 17.2442 23.832 17.6803 23.832C18.1164 23.832 18.47 24.1856 18.47 24.6217ZM57.727 68.8595C67.1031 68.8595 74.704 61.2587 74.704 51.8825C74.704 42.5064 67.1031 34.9055 57.727 34.9055C48.3509 34.9055 40.75 42.5064 40.75 51.8825C40.75 61.2587 48.3509 68.8595 57.727 68.8595Z" fill="url(#paint15_radial_51235_17751)"/>
<path fill-rule="evenodd" clip-rule="evenodd" d="M18.47 24.6217C18.47 25.0578 18.1164 25.4114 17.6803 25.4114C17.2442 25.4114 16.8906 25.0578 16.8906 24.6217C16.8906 24.1856 17.2442 23.832 17.6803 23.832C18.1164 23.832 18.47 24.1856 18.47 24.6217ZM57.727 68.8595C67.1031 68.8595 74.704 61.2587 74.704 51.8825C74.704 42.5064 67.1031 34.9055 57.727 34.9055C48.3509 34.9055 40.75 42.5064 40.75 51.8825C40.75 61.2587 48.3509 68.8595 57.727 68.8595Z" fill="url(#paint16_radial_51235_17751)"/>
<path d="M74.2894 30.0584C74.2894 34.2135 73.1282 38.0974 71.1126 41.4033L44.0117 48.5078C40.457 45.9297 37.5664 43.5469 34.5586 40.7734L38.9531 12.6094C42.6525 9.72573 47.4116 8.23438 52.4654 8.23438C64.5185 8.23438 74.2894 18.0053 74.2894 30.0584Z" fill="#1EB776"/>
<path d="M74.2894 30.0584C74.2894 34.2135 73.1282 38.0974 71.1126 41.4033L44.0117 48.5078C40.457 45.9297 37.5664 43.5469 34.5586 40.7734L38.9531 12.6094C42.6525 9.72573 47.4116 8.23438 52.4654 8.23438C64.5185 8.23438 74.2894 18.0053 74.2894 30.0584Z" fill="url(#paint17_radial_51235_17751)"/>
<path d="M74.2894 30.0584C74.2894 34.2135 73.1282 38.0974 71.1126 41.4033L44.0117 48.5078C40.457 45.9297 37.5664 43.5469 34.5586 40.7734L38.9531 12.6094C42.6525 9.72573 47.4116 8.23438 52.4654 8.23438C64.5185 8.23438 74.2894 18.0053 74.2894 30.0584Z" fill="url(#paint18_radial_51235_17751)"/>
<path d="M43.9922 48.5469L41.6117 57.1527C40.8647 57.2958 40.0934 57.3707 39.3047 57.3707C32.5737 57.3707 27.1172 51.9142 27.1172 45.1832C27.1172 44.9549 27.1235 44.728 27.1359 44.5028L34.5391 40.7344C37.8203 42.8438 41.4164 45.8516 43.9922 48.5469Z" fill="#1A8B87"/>
<path d="M43.9922 48.5469L41.6117 57.1527C40.8647 57.2958 40.0934 57.3707 39.3047 57.3707C32.5737 57.3707 27.1172 51.9142 27.1172 45.1832C27.1172 44.9549 27.1235 44.728 27.1359 44.5028L34.5391 40.7344C37.8203 42.8438 41.4164 45.8516 43.9922 48.5469Z" fill="url(#paint19_radial_51235_17751)"/>
<path d="M43.9922 48.5469L41.6117 57.1527C40.8647 57.2958 40.0934 57.3707 39.3047 57.3707C32.5737 57.3707 27.1172 51.9142 27.1172 45.1832C27.1172 44.9549 27.1235 44.728 27.1359 44.5028L34.5391 40.7344C37.8203 42.8438 41.4164 45.8516 43.9922 48.5469Z" fill="url(#paint20_radial_51235_17751)"/>
<path d="M43.9922 48.5469L41.6117 57.1527C40.8647 57.2958 40.0934 57.3707 39.3047 57.3707C32.5737 57.3707 27.1172 51.9142 27.1172 45.1832C27.1172 44.9549 27.1235 44.728 27.1359 44.5028L34.5391 40.7344C37.8203 42.8438 41.4164 45.8516 43.9922 48.5469Z" fill="url(#paint21_linear_51235_17751)"/>
<path fill-rule="evenodd" clip-rule="evenodd" d="M71.3115 41.6984C71.1863 41.5316 71.173 41.3055 71.2789 41.1258C73.1919 37.8809 74.2894 34.0978 74.2894 30.0584C74.2894 18.0053 64.5184 8.23438 52.4654 8.23438C47.5823 8.23438 43.0739 9.83806 39.4379 12.5475C39.2709 12.6719 39.0451 12.6832 38.8659 12.5771C36.3351 11.0782 33.3815 10.2179 30.227 10.2179C20.8509 10.2179 13.25 17.8187 13.25 27.1949C13.25 35.3716 19.0306 42.1981 26.728 43.8109C26.9841 43.8646 27.1618 44.1011 27.1444 44.3621C27.1264 44.6335 27.1172 44.9073 27.1172 45.1832C27.1172 51.9142 32.5737 57.3707 39.3047 57.3707C39.9328 57.3707 40.5498 57.3232 41.1523 57.2316C41.4008 57.1938 41.6433 57.3371 41.7276 57.5739C44.0673 64.1507 50.3473 68.8594 57.727 68.8594C67.1031 68.8594 74.704 61.2585 74.704 51.8824C74.704 48.0615 73.4418 44.5354 71.3115 41.6984Z" fill="url(#paint22_radial_51235_17751)"/>
<path fill-rule="evenodd" clip-rule="evenodd" d="M71.3115 41.6984C71.1863 41.5316 71.173 41.3055 71.2789 41.1258C73.1919 37.8809 74.2894 34.0978 74.2894 30.0584C74.2894 18.0053 64.5184 8.23438 52.4654 8.23438C47.5823 8.23438 43.0739 9.83806 39.4379 12.5475C39.2709 12.6719 39.0451 12.6832 38.8659 12.5771C36.3351 11.0782 33.3815 10.2179 30.227 10.2179C20.8509 10.2179 13.25 17.8187 13.25 27.1949C13.25 35.3716 19.0306 42.1981 26.728 43.8109C26.9841 43.8646 27.1618 44.1011 27.1444 44.3621C27.1264 44.6335 27.1172 44.9073 27.1172 45.1832C27.1172 51.9142 32.5737 57.3707 39.3047 57.3707C39.9328 57.3707 40.5498 57.3232 41.1523 57.2316C41.4008 57.1938 41.6433 57.3371 41.7276 57.5739C44.0673 64.1507 50.3473 68.8594 57.727 68.8594C67.1031 68.8594 74.704 61.2585 74.704 51.8824C74.704 48.0615 73.4418 44.5354 71.3115 41.6984Z" fill="url(#paint23_radial_51235_17751)"/>
<path fill-rule="evenodd" clip-rule="evenodd" d="M71.3115 41.6984C71.1863 41.5316 71.173 41.3055 71.2789 41.1258C73.1919 37.8809 74.2894 34.0978 74.2894 30.0584C74.2894 18.0053 64.5184 8.23438 52.4654 8.23438C47.5823 8.23438 43.0739 9.83806 39.4379 12.5475C39.2709 12.6719 39.0451 12.6832 38.8659 12.5771C36.3351 11.0782 33.3815 10.2179 30.227 10.2179C20.8509 10.2179 13.25 17.8187 13.25 27.1949C13.25 35.3716 19.0306 42.1981 26.728 43.8109C26.9841 43.8646 27.1618 44.1011 27.1444 44.3621C27.1264 44.6335 27.1172 44.9073 27.1172 45.1832C27.1172 51.9142 32.5737 57.3707 39.3047 57.3707C39.9328 57.3707 40.5498 57.3232 41.1523 57.2316C41.4008 57.1938 41.6433 57.3371 41.7276 57.5739C44.0673 64.1507 50.3473 68.8594 57.727 68.8594C67.1031 68.8594 74.704 61.2585 74.704 51.8824C74.704 48.0615 73.4418 44.5354 71.3115 41.6984Z" fill="url(#paint24_radial_51235_17751)"/>
<path fill-rule="evenodd" clip-rule="evenodd" d="M71.3115 41.6984C71.1863 41.5316 71.173 41.3055 71.2789 41.1258C73.1919 37.8809 74.2894 34.0978 74.2894 30.0584C74.2894 18.0053 64.5184 8.23438 52.4654 8.23438C47.5823 8.23438 43.0739 9.83806 39.4379 12.5475C39.2709 12.6719 39.0451 12.6832 38.8659 12.5771C36.3351 11.0782 33.3815 10.2179 30.227 10.2179C20.8509 10.2179 13.25 17.8187 13.25 27.1949C13.25 35.3716 19.0306 42.1981 26.728 43.8109C26.9841 43.8646 27.1618 44.1011 27.1444 44.3621C27.1264 44.6335 27.1172 44.9073 27.1172 45.1832C27.1172 51.9142 32.5737 57.3707 39.3047 57.3707C39.9328 57.3707 40.5498 57.3232 41.1523 57.2316C41.4008 57.1938 41.6433 57.3371 41.7276 57.5739C44.0673 64.1507 50.3473 68.8594 57.727 68.8594C67.1031 68.8594 74.704 61.2585 74.704 51.8824C74.704 48.0615 73.4418 44.5354 71.3115 41.6984Z" fill="url(#paint25_radial_51235_17751)"/>
<path fill-rule="evenodd" clip-rule="evenodd" d="M71.3115 41.6984C71.1863 41.5316 71.173 41.3055 71.2789 41.1258C73.1919 37.8809 74.2894 34.0978 74.2894 30.0584C74.2894 18.0053 64.5184 8.23438 52.4654 8.23438C47.5823 8.23438 43.0739 9.83806 39.4379 12.5475C39.2709 12.6719 39.0451 12.6832 38.8659 12.5771C36.3351 11.0782 33.3815 10.2179 30.227 10.2179C20.8509 10.2179 13.25 17.8187 13.25 27.1949C13.25 35.3716 19.0306 42.1981 26.728 43.8109C26.9841 43.8646 27.1618 44.1011 27.1444 44.3621C27.1264 44.6335 27.1172 44.9073 27.1172 45.1832C27.1172 51.9142 32.5737 57.3707 39.3047 57.3707C39.9328 57.3707 40.5498 57.3232 41.1523 57.2316C41.4008 57.1938 41.6433 57.3371 41.7276 57.5739C44.0673 64.1507 50.3473 68.8594 57.727 68.8594C67.1031 68.8594 74.704 61.2585 74.704 51.8824C74.704 48.0615 73.4418 44.5354 71.3115 41.6984Z" fill="url(#paint26_radial_51235_17751)"/>
<path fill-rule="evenodd" clip-rule="evenodd" d="M71.3115 41.6984C71.1863 41.5316 71.173 41.3055 71.2789 41.1258C73.1919 37.8809 74.2894 34.0978 74.2894 30.0584C74.2894 18.0053 64.5184 8.23438 52.4654 8.23438C47.5823 8.23438 43.0739 9.83806 39.4379 12.5475C39.2709 12.6719 39.0451 12.6832 38.8659 12.5771C36.3351 11.0782 33.3815 10.2179 30.227 10.2179C20.8509 10.2179 13.25 17.8187 13.25 27.1949C13.25 35.3716 19.0306 42.1981 26.728 43.8109C26.9841 43.8646 27.1618 44.1011 27.1444 44.3621C27.1264 44.6335 27.1172 44.9073 27.1172 45.1832C27.1172 51.9142 32.5737 57.3707 39.3047 57.3707C39.9328 57.3707 40.5498 57.3232 41.1523 57.2316C41.4008 57.1938 41.6433 57.3371 41.7276 57.5739C44.0673 64.1507 50.3473 68.8594 57.727 68.8594C67.1031 68.8594 74.704 61.2585 74.704 51.8824C74.704 48.0615 73.4418 44.5354 71.3115 41.6984Z" fill="url(#paint27_radial_51235_17751)"/>
<path fill-rule="evenodd" clip-rule="evenodd" d="M71.3115 41.6984C71.1863 41.5316 71.173 41.3055 71.2789 41.1258C73.1919 37.8809 74.2894 34.0978 74.2894 30.0584C74.2894 18.0053 64.5184 8.23438 52.4654 8.23438C47.5823 8.23438 43.0739 9.83806 39.4379 12.5475C39.2709 12.6719 39.0451 12.6832 38.8659 12.5771C36.3351 11.0782 33.3815 10.2179 30.227 10.2179C20.8509 10.2179 13.25 17.8187 13.25 27.1949C13.25 35.3716 19.0306 42.1981 26.728 43.8109C26.9841 43.8646 27.1618 44.1011 27.1444 44.3621C27.1264 44.6335 27.1172 44.9073 27.1172 45.1832C27.1172 51.9142 32.5737 57.3707 39.3047 57.3707C39.9328 57.3707 40.5498 57.3232 41.1523 57.2316C41.4008 57.1938 41.6433 57.3371 41.7276 57.5739C44.0673 64.1507 50.3473 68.8594 57.727 68.8594C67.1031 68.8594 74.704 61.2585 74.704 51.8824C74.704 48.0615 73.4418 44.5354 71.3115 41.6984Z" fill="url(#paint28_radial_51235_17751)"/>
</g>
<defs>
<filter id="filter0_d_51235_17751" x="-6" y="-5" width="120" height="120" filterUnits="userSpaceOnUse" color-interpolation-filters="sRGB">
<feFlood flood-opacity="0" result="BackgroundImageFix"/>
<feColorMatrix in="SourceAlpha" type="matrix" values="0 0 0 0 0 0 0 0 0 0 0 0 0 0 0 0 0 0 127 0" result="hardAlpha"/>
<feOffset dx="12" dy="12"/>
<feGaussianBlur stdDeviation="10"/>
<feComposite in2="hardAlpha" operator="out"/>
<feColorMatrix type="matrix" values="0 0 0 0 0.294118 0 0 0 0 0.882353 0 0 0 0 0.552941 0 0 0 0.2 0"/>
<feBlend mode="normal" in2="BackgroundImageFix" result="effect1_dropShadow_51235_17751"/>
<feBlend mode="normal" in="SourceGraphic" in2="effect1_dropShadow_51235_17751" result="shape"/>
</filter>
<linearGradient id="paint0_linear_51235_17751" x1="39.1872" y1="45.8125" x2="13.2497" y2="77.8305" gradientUnits="userSpaceOnUse">
<stop offset="0.272602" stop-color="#288742"/>
<stop offset="0.473589" stop-color="#45BD6C"/>
<stop offset="0.676593" stop-color="#7ED071"/>
<stop offset="1" stop-color="#85CE6E"/>
</linearGradient>
<linearGradient id="paint1_linear_51235_17751" x1="2.6247" y1="79.5625" x2="15.4372" y2="65.9687" gradientUnits="userSpaceOnUse">
<stop offset="0.0485984" stop-color="#6BA871"/>
<stop offset="0.424297" stop-color="#417E4A"/>
<stop offset="0.812155" stop-color="#68AC62" stop-opacity="0"/>
</linearGradient>
<radialGradient id="paint2_radial_51235_17751" cx="0" cy="0" r="1" gradientUnits="userSpaceOnUse" gradientTransform="translate(29.6559 72.0625) rotate(137.003) scale(15.8091 6.78874)">
<stop stop-color="#85C671"/>
<stop offset="1" stop-color="#6EAC66" stop-opacity="0"/>
</radialGradient>
<radialGradient id="paint3_radial_51235_17751" cx="0" cy="0" r="1" gradientUnits="userSpaceOnUse" gradientTransform="translate(44.0309 65.1875) rotate(155.118) scale(17.825 8.17416)">
<stop stop-color="#43AE9E"/>
<stop offset="1" stop-color="#379C89" stop-opacity="0"/>
</radialGradient>
<radialGradient id="paint4_radial_51235_17751" cx="0" cy="0" r="1" gradientUnits="userSpaceOnUse" gradientTransform="translate(13.7184 56.4375) rotate(121.875) scale(21.8956 9.50231)">
<stop stop-color="#1C790D"/>
<stop offset="1" stop-color="#6BAA55" stop-opacity="0"/>
</radialGradient>
<radialGradient id="paint5_radial_51235_17751" cx="0" cy="0" r="1" gradientUnits="userSpaceOnUse" gradientTransform="translate(32.625 53.0781) rotate(132.825) scale(8.73464 2.64555)">
<stop stop-color="#71CFBE" stop-opacity="0.6"/>
<stop offset="1" stop-color="#71CFBE" stop-opacity="0"/>
</radialGradient>
<radialGradient id="paint6_radial_51235_17751" cx="0" cy="0" r="1" gradientUnits="userSpaceOnUse" gradientTransform="translate(24.6563 38.3125) rotate(100.491) scale(15.0167 2.41837)">
<stop stop-color="#71CFBE" stop-opacity="0.4"/>
<stop offset="1" stop-color="#71CFBE" stop-opacity="0"/>
</radialGradient>
<radialGradient id="paint7_radial_51235_17751" cx="0" cy="0" r="1" gradientUnits="userSpaceOnUse" gradientTransform="translate(23.5625 55.6563) rotate(124.537) scale(2.01534 1.12306)">
<stop stop-color="#73CF71" stop-opacity="0.5"/>
<stop offset="1" stop-color="#73CF71" stop-opacity="0"/>
</radialGradient>
<radialGradient id="paint8_radial_51235_17751" cx="0" cy="0" r="1" gradientUnits="userSpaceOnUse" gradientTransform="translate(30.0469 61.125) rotate(135) scale(1.5468 1.09104)">
<stop stop-color="#73CF71" stop-opacity="0.5"/>
<stop offset="1" stop-color="#73CF71" stop-opacity="0"/>
</radialGradient>
<radialGradient id="paint9_radial_51235_17751" cx="0" cy="0" r="1" gradientUnits="userSpaceOnUse" gradientTransform="translate(38.25 19.0213) rotate(146.807) scale(20.1654 19.7191)">
<stop stop-color="#49C88A"/>
<stop offset="1" stop-color="#1BAB6D"/>
</radialGradient>
<radialGradient id="paint10_radial_51235_17751" cx="0" cy="0" r="1" gradientUnits="userSpaceOnUse" gradientTransform="translate(33.875 18.4325) rotate(170.451) scale(22.1824 20.9703)">
<stop offset="0.43288" stop-color="#29C675"/>
<stop offset="0.910545" stop-color="#278259"/>
</radialGradient>
<radialGradient id="paint11_radial_51235_17751" cx="0" cy="0" r="1" gradientUnits="userSpaceOnUse" gradientTransform="translate(37.625 22.4069) rotate(110.339) scale(9.89012 10.3556)">
<stop stop-color="#73DCAA"/>
<stop offset="1" stop-color="#50C78F" stop-opacity="0"/>
</radialGradient>
<radialGradient id="paint12_radial_51235_17751" cx="0" cy="0" r="1" gradientUnits="userSpaceOnUse" gradientTransform="translate(28.5625 44.4867) rotate(88.4248) scale(28.4201 30.1651)">
<stop stop-color="#0B777C"/>
<stop offset="0.488866" stop-color="#179693"/>
<stop offset="1" stop-color="#189B93" stop-opacity="0"/>
</radialGradient>
<radialGradient id="paint13_radial_51235_17751" cx="0" cy="0" r="1" gradientUnits="userSpaceOnUse" gradientTransform="translate(56.8026 40.99) rotate(102.635) scale(31.4279 37.9952)">
<stop stop-color="#5AD299"/>
<stop offset="1" stop-color="#33B784" stop-opacity="0"/>
</radialGradient>
<radialGradient id="paint14_radial_51235_17751" cx="0" cy="0" r="1" gradientUnits="userSpaceOnUse" gradientTransform="translate(62.9136 43.4765) rotate(119.832) scale(46.5778 52.4519)">
<stop offset="0.277092" stop-color="#3272A6" stop-opacity="0"/>
<stop offset="0.790231" stop-color="#2572A1"/>
</radialGradient>
<radialGradient id="paint15_radial_51235_17751" cx="0" cy="0" r="1" gradientUnits="userSpaceOnUse" gradientTransform="translate(52.4741 55.0802) rotate(42.1697) scale(39.5077 152.638)">
<stop offset="0.299399" stop-color="#157A6A" stop-opacity="0"/>
<stop offset="0.849215" stop-color="#187A51"/>
</radialGradient>
<radialGradient id="paint16_radial_51235_17751" cx="0" cy="0" r="1" gradientUnits="userSpaceOnUse" gradientTransform="translate(63.1682 37.6747) rotate(134.131) scale(16.4555 16.9096)">
<stop stop-color="#52D292"/>
<stop offset="1" stop-color="#58D196" stop-opacity="0"/>
</radialGradient>
<radialGradient id="paint17_radial_51235_17751" cx="0" cy="0" r="1" gradientUnits="userSpaceOnUse" gradientTransform="translate(62.9375 22.2187) rotate(141.04) scale(32.5529 32.1143)">
<stop stop-color="#52E691"/>
<stop offset="0.534136" stop-color="#20C376"/>
<stop offset="1" stop-color="#1DA860"/>
</radialGradient>
<radialGradient id="paint18_radial_51235_17751" cx="0" cy="0" r="1" gradientUnits="userSpaceOnUse" gradientTransform="translate(33.25 54.4062) rotate(-20.7882) scale(36.1002 35.6138)">
<stop offset="0.28106" stop-color="#117B7F"/>
<stop offset="0.610446" stop-color="#189D96"/>
<stop offset="1" stop-color="#179C95" stop-opacity="0"/>
</radialGradient>
<radialGradient id="paint19_radial_51235_17751" cx="0" cy="0" r="1" gradientUnits="userSpaceOnUse" gradientTransform="translate(39.3438 45.4219) rotate(136.317) scale(9.61477 9.7527)">
<stop stop-color="#208A83"/>
<stop offset="1" stop-color="#208C82" stop-opacity="0"/>
</radialGradient>
<radialGradient id="paint20_radial_51235_17751" cx="0" cy="0" r="1" gradientUnits="userSpaceOnUse" gradientTransform="translate(39.6563 45.0312) rotate(93.3309) scale(29.5812 35.238)">
<stop offset="0.210819" stop-color="#09687D" stop-opacity="0"/>
<stop offset="0.474332" stop-color="#187796"/>
<stop offset="0.569248" stop-color="#146B89"/>
</radialGradient>
<linearGradient id="paint21_linear_51235_17751" x1="31.2188" y1="42.0625" x2="34.5" y2="45.8125" gradientUnits="userSpaceOnUse">
<stop stop-color="#17836D"/>
<stop offset="1" stop-color="#158185" stop-opacity="0"/>
</linearGradient>
<radialGradient id="paint22_radial_51235_17751" cx="0" cy="0" r="1" gradientUnits="userSpaceOnUse" gradientTransform="translate(36.6875 27.2187) rotate(99.4623) scale(14.2565 1.73862)">
<stop stop-color="#157A7E" stop-opacity="0.6"/>
<stop offset="1" stop-color="#157A7E" stop-opacity="0"/>
</radialGradient>
<radialGradient id="paint23_radial_51235_17751" cx="0" cy="0" r="1" gradientUnits="userSpaceOnUse" gradientTransform="translate(57.8594 44.9531) rotate(164.584) scale(14.4006 1.7562)">
<stop stop-color="#157A7E" stop-opacity="0.6"/>
<stop offset="1" stop-color="#157A7E" stop-opacity="0"/>
</radialGradient>
<radialGradient id="paint24_radial_51235_17751" cx="0" cy="0" r="1" gradientUnits="userSpaceOnUse" gradientTransform="translate(39.5 44.2891) rotate(-141.751) scale(6.81448 2.80844)">
<stop stop-color="#127074"/>
<stop offset="1" stop-color="#157A7E" stop-opacity="0"/>
</radialGradient>
<radialGradient id="paint25_radial_51235_17751" cx="0" cy="0" r="1" gradientUnits="userSpaceOnUse" gradientTransform="translate(41.4727 57.375) rotate(-74.3277) scale(9.27043 2.79042)">
<stop stop-color="#0E6366"/>
<stop offset="1" stop-color="#157A7E" stop-opacity="0"/>
</radialGradient>
<radialGradient id="paint26_radial_51235_17751" cx="0" cy="0" r="1" gradientUnits="userSpaceOnUse" gradientTransform="translate(27 44.4258) rotate(-27.6403) scale(8.37799 2.5218)">
<stop stop-color="#0E6366"/>
<stop offset="1" stop-color="#157A7E" stop-opacity="0"/>
</radialGradient>
<radialGradient id="paint27_radial_51235_17751" cx="0" cy="0" r="1" gradientUnits="userSpaceOnUse" gradientTransform="translate(39.1094 12.375) rotate(99.4288) scale(21.937 2.67528)">
<stop stop-color="#2DC47F" stop-opacity="0.6"/>
<stop offset="1" stop-color="#2DC47F" stop-opacity="0"/>
</radialGradient>
<radialGradient id="paint28_radial_51235_17751" cx="0" cy="0" r="1" gradientUnits="userSpaceOnUse" gradientTransform="translate(71.2969 41.3594) rotate(165.012) scale(20.5426 2.50523)">
<stop stop-color="#2DC47F" stop-opacity="0.6"/>
<stop offset="1" stop-color="#2DC47F" stop-opacity="0"/>
</radialGradient>
</defs>
</svg>
