<svg width="25" height="24" viewBox="0 0 25 24" fill="none" xmlns="http://www.w3.org/2000/svg">
    <path fill-rule="evenodd" clip-rule="evenodd"
        d="M16.9512 17.6963C16.5372 17.6963 16.1972 17.3603 16.1972 16.9463C16.1972 16.5323 16.5282 16.1963 16.9422 16.1963H16.9512C17.3652 16.1963 17.7012 16.5323 17.7012 16.9463C17.7012 17.3603 17.3652 17.6963 16.9512 17.6963Z"
        fill="#9E9E9E" />
    <path fill-rule="evenodd" clip-rule="evenodd"
        d="M12.5137 17.6963C12.0997 17.6963 11.7597 17.3603 11.7597 16.9463C11.7597 16.5323 12.0907 16.1963 12.5047 16.1963H12.5137C12.9277 16.1963 13.2637 16.5323 13.2637 16.9463C13.2637 17.3603 12.9277 17.6963 12.5137 17.6963Z"
        fill="#9E9E9E" />
    <path fill-rule="evenodd" clip-rule="evenodd"
        d="M8.0669 17.6963C7.6529 17.6963 7.3119 17.3603 7.3119 16.9463C7.3119 16.5323 7.6439 16.1963 8.0579 16.1963H8.0669C8.4809 16.1963 8.8169 16.5323 8.8169 16.9463C8.8169 17.3603 8.4809 17.6963 8.0669 17.6963Z"
        fill="#9E9E9E" />
    <path fill-rule="evenodd" clip-rule="evenodd"
        d="M16.9512 13.8096C16.5372 13.8096 16.1972 13.4736 16.1972 13.0596C16.1972 12.6456 16.5282 12.3096 16.9422 12.3096H16.9512C17.3652 12.3096 17.7012 12.6456 17.7012 13.0596C17.7012 13.4736 17.3652 13.8096 16.9512 13.8096Z"
        fill="#9E9E9E" />
    <path fill-rule="evenodd" clip-rule="evenodd"
        d="M12.5137 13.8096C12.0997 13.8096 11.7597 13.4736 11.7597 13.0596C11.7597 12.6456 12.0907 12.3096 12.5047 12.3096H12.5137C12.9277 12.3096 13.2637 12.6456 13.2637 13.0596C13.2637 13.4736 12.9277 13.8096 12.5137 13.8096Z"
        fill="#9E9E9E" />
    <path fill-rule="evenodd" clip-rule="evenodd"
        d="M8.0669 13.8096C7.6529 13.8096 7.3119 13.4736 7.3119 13.0596C7.3119 12.6456 7.6439 12.3096 8.0579 12.3096H8.0669C8.4809 12.3096 8.8169 12.6456 8.8169 13.0596C8.8169 13.4736 8.4809 13.8096 8.0669 13.8096Z"
        fill="#9E9E9E" />
    <path fill-rule="evenodd" clip-rule="evenodd"
        d="M21.4165 9.9043H3.5925C3.1785 9.9043 2.8425 9.5683 2.8425 9.1543C2.8425 8.7403 3.1785 8.4043 3.5925 8.4043H21.4165C21.8305 8.4043 22.1665 8.7403 22.1665 9.1543C22.1665 9.5683 21.8305 9.9043 21.4165 9.9043Z"
        fill="#9E9E9E" />
    <path fill-rule="evenodd" clip-rule="evenodd"
        d="M16.5435 5.791C16.1295 5.791 15.7935 5.455 15.7935 5.041V1.75C15.7935 1.336 16.1295 1 16.5435 1C16.9575 1 17.2935 1.336 17.2935 1.75V5.041C17.2935 5.455 16.9575 5.791 16.5435 5.791Z"
        fill="#9E9E9E" />
    <path fill-rule="evenodd" clip-rule="evenodd"
        d="M8.4653 5.791C8.0513 5.791 7.7153 5.455 7.7153 5.041V1.75C7.7153 1.336 8.0513 1 8.4653 1C8.8793 1 9.2153 1.336 9.2153 1.75V5.041C9.2153 5.455 8.8793 5.791 8.4653 5.791Z"
        fill="#9E9E9E" />
    <mask id="mask0_38429_24117" style="mask-type:luminance" maskUnits="userSpaceOnUse" x="2" y="2" width="21"
        height="21">
        <path fill-rule="evenodd" clip-rule="evenodd" d="M2.75 2.5791H22.25V22.5H2.75V2.5791Z" fill="white" />
    </mask>
    <g mask="url(#mask0_38429_24117)">
        <path fill-rule="evenodd" clip-rule="evenodd"
            d="M8.271 4.0791C5.678 4.0791 4.25 5.4621 4.25 7.9731V17.0221C4.25 19.5881 5.678 21.0001 8.271 21.0001H16.729C19.322 21.0001 20.75 19.6141 20.75 17.0981V7.9731C20.754 6.7381 20.422 5.7781 19.763 5.1181C19.085 4.4381 18.04 4.0791 16.738 4.0791H8.271ZM16.729 22.5001H8.271C4.866 22.5001 2.75 20.4011 2.75 17.0221V7.9731C2.75 4.6451 4.866 2.5791 8.271 2.5791H16.738C18.447 2.5791 19.86 3.0911 20.825 4.0581C21.762 4.9991 22.255 6.3521 22.25 7.9751V17.0981C22.25 20.4301 20.134 22.5001 16.729 22.5001Z"
            fill="#9E9E9E" />
    </g>
</svg>