<svg width="19" height="20" viewBox="0 0 19 20" fill="none" xmlns="http://www.w3.org/2000/svg">
    <path fill-rule="evenodd" clip-rule="evenodd"
        d="M14.1609 0.768617L14.1619 1.51824C16.9165 1.73413 18.7362 3.61119 18.7391 6.48975L18.75 14.9155C18.7539 18.054 16.7822 19.985 13.6218 19.99L5.90188 20C2.76119 20.004 0.764817 18.027 0.760867 14.8795L0.750007 6.55272C0.746057 3.65517 2.50153 1.78311 5.25617 1.53024L5.25518 0.780611C5.2542 0.340832 5.58001 0.00999726 6.01444 0.00999726C6.44886 0.00899776 6.77468 0.338833 6.77567 0.778612L6.77666 1.47826L12.6414 1.47027L12.6404 0.770616C12.6394 0.330837 12.9652 0.00100177 13.3997 2.26549e-06C13.8242 -0.000997234 14.1599 0.328838 14.1609 0.768617ZM2.27148 6.86157L17.2196 6.84158V6.49175C17.1772 4.34283 16.099 3.21539 14.1638 3.04748L14.1648 3.81709C14.1648 4.24688 13.8301 4.5877 13.4056 4.5877C12.9712 4.5887 12.6443 4.24887 12.6443 3.81909L12.6434 3.0095L6.77863 3.01749L6.77962 3.82609C6.77962 4.25687 6.45479 4.5967 6.02036 4.5967C5.58594 4.5977 5.25913 4.25887 5.25913 3.82809L5.25815 3.05847C3.33286 3.25137 2.26753 4.38281 2.27049 6.55072L2.27148 6.86157ZM12.9899 11.4043V11.4153C12.9998 11.8751 13.375 12.2239 13.8301 12.2139C14.2744 12.2029 14.6289 11.8221 14.619 11.3623C14.5983 10.9225 14.2418 10.5637 13.7985 10.5647C13.3444 10.5747 12.9889 10.9445 12.9899 11.4043ZM13.8054 15.892C13.3513 15.882 12.985 15.5032 12.984 15.0435C12.9741 14.5837 13.3384 14.2029 13.7926 14.1919H13.8025C14.2665 14.1919 14.6427 14.5707 14.6427 15.0405C14.6437 15.5102 14.2685 15.891 13.8054 15.892ZM8.92212 11.4203C8.94187 11.8801 9.31804 12.2389 9.77221 12.2189C10.2165 12.1979 10.571 11.8181 10.5512 11.3583C10.5403 10.9085 10.175 10.5587 9.73074 10.5597C9.27657 10.5797 8.92113 10.9605 8.92212 11.4203ZM9.77616 15.8471C9.32199 15.8671 8.9468 15.5082 8.92607 15.0485C8.92607 14.5887 9.28052 14.2089 9.73469 14.1879C10.179 14.1869 10.5453 14.5367 10.5552 14.9855C10.5759 15.4463 10.2205 15.8261 9.77616 15.8471ZM4.85433 11.4553C4.87408 11.915 5.25025 12.2749 5.70442 12.2539C6.14872 12.2339 6.50317 11.8531 6.48243 11.3933C6.47256 10.9435 6.10725 10.5937 5.66196 10.5947C5.20779 10.6147 4.85334 10.9955 4.85433 11.4553ZM5.70837 15.8521C5.2542 15.8731 4.87901 15.5132 4.85828 15.0535C4.85729 14.5937 5.21273 14.2129 5.6669 14.1929C6.1112 14.1919 6.4775 14.5417 6.48737 14.9915C6.5081 15.4513 6.15365 15.8321 5.70837 15.8521Z"
        fill="#81B44F" />
</svg>