<svg width="20" height="20" viewBox="0 0 20 20" fill="none" xmlns="http://www.w3.org/2000/svg">
<path fill-rule="evenodd" clip-rule="evenodd" d="M14.3165 3.67502C14.3165 2.56669 15.2165 1.66669 16.3249 1.66669C17.4332 1.66669 18.3332 2.56669 18.3332 3.67502C18.3332 4.78335 17.4332 5.68335 16.3249 5.68335C15.2165 5.68335 14.3165 4.78335 14.3165 3.67502ZM11.1081 12.2994L13.5164 9.19194L13.4831 9.2086C13.6164 9.02527 13.6414 8.79194 13.5498 8.5836C13.4589 8.37527 13.2581 8.2336 13.0423 8.21694C12.8164 8.19194 12.5923 8.29194 12.4581 8.47527L10.4423 11.0836L8.13311 9.26694C7.99144 9.1586 7.82478 9.1161 7.65811 9.1336C7.49228 9.1586 7.34228 9.24944 7.24144 9.38277L4.77561 12.5919L4.72478 12.6669C4.58311 12.9328 4.64978 13.2744 4.89978 13.4586C5.01644 13.5336 5.14144 13.5836 5.28311 13.5836C5.47561 13.5919 5.65811 13.4911 5.77478 13.3336L7.86644 10.6411L10.2414 12.4253L10.3164 12.4744C10.5831 12.6161 10.9164 12.5503 11.1081 12.2994ZM12.8748 3.15027C12.8414 3.3586 12.8248 3.56694 12.8248 3.77527C12.8248 5.65027 14.3414 7.1661 16.2081 7.1661C16.4164 7.1661 16.6164 7.14194 16.8248 7.1086V13.8328C16.8248 16.6586 15.1581 18.3336 12.3248 18.3336H6.16728C3.33311 18.3336 1.66644 16.6586 1.66644 13.8328V7.66694C1.66644 4.8336 3.33311 3.15027 6.16728 3.15027H12.8748Z" fill="white"/>
</svg>
