<svg width="20" height="20" viewBox="0 0 20 20" fill="none" xmlns="http://www.w3.org/2000/svg">
<path fill-rule="evenodd" clip-rule="evenodd" d="M14.3165 3.67502C14.3165 2.56669 15.2165 1.66669 16.3248 1.66669C17.4332 1.66669 18.3332 2.56669 18.3332 3.67502C18.3332 4.78335 17.4332 5.68335 16.3248 5.68335C15.2165 5.68335 14.3165 4.78335 14.3165 3.67502ZM11.1081 12.2994L13.5164 9.19194L13.4831 9.2086C13.6164 9.02527 13.6414 8.79194 13.5497 8.5836C13.4589 8.37527 13.2581 8.2336 13.0422 8.21694C12.8164 8.19194 12.5922 8.29194 12.4581 8.47527L10.4422 11.0836L8.13308 9.26694C7.99141 9.1586 7.82475 9.1161 7.65808 9.1336C7.49225 9.1586 7.34225 9.24944 7.24141 9.38277L4.77558 12.5919L4.72475 12.6669C4.58308 12.9328 4.64975 13.2744 4.89975 13.4586C5.01641 13.5336 5.14141 13.5836 5.28308 13.5836C5.47558 13.5919 5.65808 13.4911 5.77475 13.3336L7.86641 10.6411L10.2414 12.4253L10.3164 12.4744C10.5831 12.6161 10.9164 12.5503 11.1081 12.2994ZM12.8747 3.15027C12.8414 3.3586 12.8247 3.56694 12.8247 3.77527C12.8247 5.65027 14.3414 7.1661 16.2081 7.1661C16.4164 7.1661 16.6164 7.14194 16.8247 7.1086V13.8328C16.8247 16.6586 15.1581 18.3336 12.3247 18.3336H6.16725C3.33308 18.3336 1.66641 16.6586 1.66641 13.8328V7.66694C1.66641 4.8336 3.33308 3.15027 6.16725 3.15027H12.8747Z" fill="#9E9E9E"/>
</svg>
