<svg width="24" height="25" viewBox="0 0 24 25" fill="none" xmlns="http://www.w3.org/2000/svg">
<path fill-rule="evenodd" clip-rule="evenodd" d="M12 4C7.313 4 3.5 7.813 3.5 12.5C3.5 17.187 7.313 21 12 21C16.687 21 20.5 17.187 20.5 12.5C20.5 7.813 16.687 4 12 4ZM12 22.5C6.486 22.5 2 18.014 2 12.5C2 6.986 6.486 2.5 12 2.5C17.514 2.5 22 6.986 22 12.5C22 18.014 17.514 22.5 12 22.5Z" fill="#212121"/>
<path fill-rule="evenodd" clip-rule="evenodd" d="M15.4312 16.1925C15.3002 16.1925 15.1682 16.1585 15.0472 16.0875L11.2772 13.8385C11.0512 13.7025 10.9112 13.4575 10.9112 13.1935V8.34546C10.9112 7.93146 11.2472 7.59546 11.6612 7.59546C12.0762 7.59546 12.4112 7.93146 12.4112 8.34546V12.7675L15.8162 14.7975C16.1712 15.0105 16.2882 15.4705 16.0762 15.8265C15.9352 16.0615 15.6862 16.1925 15.4312 16.1925Z" fill="#212121"/>
</svg>
