<svg width="24" height="25" viewBox="0 0 24 25" fill="none" xmlns="http://www.w3.org/2000/svg">
<path d="M21.531 7.78055L9.53104 19.7806C9.46139 19.8503 9.37867 19.9056 9.28762 19.9433C9.19657 19.9811 9.09898 20.0005 9.00042 20.0005C8.90186 20.0005 8.80426 19.9811 8.71321 19.9433C8.62216 19.9056 8.53945 19.8503 8.46979 19.7806L3.21979 14.5306C3.07906 14.3898 3 14.199 3 13.9999C3 13.8009 3.07906 13.61 3.21979 13.4693C3.36052 13.3286 3.55139 13.2495 3.75042 13.2495C3.94944 13.2495 4.14031 13.3286 4.28104 13.4693L9.00042 18.1896L20.4698 6.7193C20.6105 6.57857 20.8014 6.49951 21.0004 6.49951C21.1994 6.49951 21.3903 6.57857 21.531 6.7193C21.6718 6.86003 21.7508 7.05091 21.7508 7.24993C21.7508 7.44895 21.6718 7.63982 21.531 7.78055Z" fill="#212121"/>
</svg>
