<svg width="44" height="43" viewBox="0 0 44 43" fill="none" xmlns="http://www.w3.org/2000/svg">
<path d="M35.6651 25.0541L35.9922 22.023C36.1646 20.4052 36.2802 19.3385 36.1895 18.6665H36.2215C36.83 18.6664 37.4202 18.4581 37.894 18.0763C38.3678 17.6945 38.6968 17.1621 38.8263 16.5675C38.9559 15.9729 38.8782 15.3519 38.6061 14.8076C38.334 14.2633 37.884 13.8284 37.3307 13.5751C36.7774 13.3219 36.1541 13.2655 35.5643 13.4153C34.9745 13.5651 34.4537 13.9121 34.0883 14.3987C33.723 14.8853 33.535 15.4822 33.5557 16.0904C33.5763 16.6986 33.8044 17.2814 34.2019 17.7421C33.6224 18.0994 32.8651 18.855 31.7255 19.991C30.8455 20.8674 30.4064 21.3047 29.9157 21.3723C29.6438 21.4098 29.3669 21.371 29.1157 21.2603C28.6642 21.0612 28.3619 20.5207 27.7593 19.4381L24.5771 13.7332C24.2055 13.0665 23.8944 12.5065 23.6135 12.0585C24.3251 11.6959 24.8939 11.1043 25.2282 10.3791C25.5626 9.65377 25.643 8.83704 25.4566 8.06047C25.2701 7.2839 24.8277 6.59271 24.2005 6.09827C23.5733 5.60384 22.7979 5.33496 21.9993 5.33496C21.2006 5.33496 20.4252 5.60384 19.7981 6.09827C19.1709 6.59271 18.7284 7.2839 18.542 8.06047C18.3555 8.83704 18.436 9.65377 18.7703 10.3791C19.1047 11.1043 19.6735 11.6959 20.3851 12.0585C20.1042 12.5083 19.7931 13.0665 19.4197 13.7332L16.2393 19.4381C15.6348 20.5207 15.3326 21.0612 14.8811 21.2603C14.6299 21.371 14.3529 21.4098 14.0811 21.3723C13.5922 21.3047 13.1531 20.8674 12.2731 19.991C11.1335 18.855 10.3762 18.0994 9.79661 17.7421C10.1942 17.2814 10.4222 16.6986 10.4429 16.0904C10.4635 15.4822 10.2756 14.8853 9.91021 14.3987C9.54484 13.9121 9.02402 13.5651 8.43423 13.4153C7.84444 13.2655 7.22116 13.3219 6.66785 13.5751C6.11455 13.8284 5.66451 14.2633 5.39245 14.8076C5.12039 15.3519 5.04267 15.9729 5.1722 16.5675C5.30174 17.1621 5.63072 17.6945 6.10455 18.0763C6.57838 18.4581 7.16854 18.6664 7.77705 18.6665H7.80905C7.71839 19.3385 7.83394 20.407 8.00639 22.023L8.3335 25.0541C8.51483 26.7359 8.66416 28.3376 8.84905 29.7776H35.1495C35.3344 28.3376 35.4837 26.7376 35.6651 25.0541ZM20.0651 37.3332H23.9335C28.9753 37.3332 31.4962 37.3332 33.1779 35.8274C33.9122 35.1696 34.3762 33.9856 34.7122 32.4443H9.28639C9.62239 33.9856 10.0864 35.1714 10.8206 35.8274C12.5024 37.3332 15.0233 37.3332 20.0651 37.3332Z" fill="white"/>
</svg>
