<svg width="24" height="25" viewBox="0 0 24 25" fill="none" xmlns="http://www.w3.org/2000/svg">
<path fill-rule="evenodd" clip-rule="evenodd" d="M7.21629 16.5026C7.05629 16.5026 6.89529 16.4516 6.75929 16.3476C6.43129 16.0946 6.36929 15.6236 6.62229 15.2956L9.61529 11.4056C9.73729 11.2466 9.91829 11.1436 10.1163 11.1186C10.3183 11.0926 10.5163 11.1486 10.6733 11.2736L13.4933 13.4886L15.9603 10.3056C16.2143 9.97662 16.6843 9.91562 17.0123 10.1716C17.3403 10.4256 17.4003 10.8966 17.1463 11.2236L14.2163 15.0036C14.0943 15.1616 13.9143 15.2646 13.7163 15.2886C13.5163 15.3156 13.3183 15.2576 13.1603 15.1346L10.3423 12.9206L7.81129 16.2096C7.66329 16.4016 7.44129 16.5026 7.21629 16.5026Z" fill="#212121"/>
<mask id="mask0_50538_3278" style="mask-type:luminance" maskUnits="userSpaceOnUse" x="17" y="2" width="6" height="6">
<path fill-rule="evenodd" clip-rule="evenodd" d="M17.2953 2.5H22.6393V7.8449H17.2953V2.5Z" fill="white"/>
</mask>
<g mask="url(#mask0_50538_3278)">
<path fill-rule="evenodd" clip-rule="evenodd" d="M19.9673 4C19.3213 4 18.7953 4.525 18.7953 5.172C18.7953 5.818 19.3213 6.345 19.9673 6.345C20.6133 6.345 21.1393 5.818 21.1393 5.172C21.1393 4.525 20.6133 4 19.9673 4ZM19.9673 7.845C18.4943 7.845 17.2953 6.646 17.2953 5.172C17.2953 3.698 18.4943 2.5 19.9673 2.5C21.4413 2.5 22.6393 3.698 22.6393 5.172C22.6393 6.646 21.4413 7.845 19.9673 7.845Z" fill="#212121"/>
</g>
<mask id="mask1_50538_3278" style="mask-type:luminance" maskUnits="userSpaceOnUse" x="2" y="3" width="20" height="21">
<path fill-rule="evenodd" clip-rule="evenodd" d="M2 3.3418H21.8619V23.2028H2V3.3418Z" fill="white"/>
</mask>
<g mask="url(#mask1_50538_3278)">
<path fill-rule="evenodd" clip-rule="evenodd" d="M16.2329 23.2028H7.62891C4.26191 23.2028 1.99991 20.8378 1.99991 17.3178V9.2358C1.99991 5.7108 4.26191 3.3418 7.62891 3.3418H14.8969C15.3109 3.3418 15.6469 3.6778 15.6469 4.0918C15.6469 4.5058 15.3109 4.8418 14.8969 4.8418H7.62891C5.12091 4.8418 3.49991 6.5658 3.49991 9.2358V17.3178C3.49991 20.0228 5.08191 21.7028 7.62891 21.7028H16.2329C18.7409 21.7028 20.3619 19.9818 20.3619 17.3178V10.2788C20.3619 9.8648 20.6979 9.5288 21.1119 9.5288C21.5259 9.5288 21.8619 9.8648 21.8619 10.2788V17.3178C21.8619 20.8378 19.5999 23.2028 16.2329 23.2028Z" fill="#212121"/>
</g>
</svg>
