<svg width="200" height="242" viewBox="0 0 200 242" fill="none" xmlns="http://www.w3.org/2000/svg">
<g filter="url(#filter0_i_50887_25498)">
<path fill-rule="evenodd" clip-rule="evenodd" d="M92.4154 18.5129C94.6438 16.6742 97.4429 15.6685 100.332 15.6685C103.221 15.6685 106.02 16.6742 108.249 18.5129C123.397 31.1087 137.276 45.1572 149.687 60.4575C166.975 81.9516 184.664 111.12 184.664 141.627C184.664 163.993 175.779 185.443 159.964 201.259C144.148 217.074 122.698 225.959 100.332 225.959C77.9658 225.959 56.5157 217.074 40.7004 201.259C24.8851 185.443 16.0001 163.993 16.0001 141.627C16.0001 111.12 33.6887 81.9516 50.9768 60.447C63.385 45.1509 77.271 31.1059 92.4154 18.5129Z" fill="#EEEEEE"/>
</g>
<path fill-rule="evenodd" clip-rule="evenodd" d="M82.0886 6.44632L82.1115 6.42737C87.147 2.27248 93.4717 0 100 0C106.528 0 112.853 2.27248 117.889 6.42737L117.911 6.44617L117.934 6.46505C133.869 19.7146 148.468 34.4923 161.524 50.5868L161.544 50.612L161.564 50.6373C179.389 72.7992 200 105.547 200 141.627C200 168.148 189.464 193.584 170.711 212.337C151.957 231.091 126.522 241.627 100 241.627C73.4784 241.627 48.043 231.091 29.2893 212.337C10.5357 193.584 0 168.148 0 141.627C0 105.547 20.6107 72.7993 38.4334 50.6297L38.4551 50.6027L38.4768 50.5759C51.5316 34.4828 66.1384 19.7094 82.0657 6.46535L82.0886 6.44632ZM107.917 18.5126C105.688 16.6738 102.889 15.6681 100 15.6681C97.1109 15.6681 94.3118 16.6738 92.0834 18.5126C76.939 31.1056 63.053 45.1506 50.6448 60.4466C33.3568 81.9513 15.6681 111.12 15.6681 141.627C15.6681 163.993 24.5531 185.443 40.3684 201.258C56.1837 217.074 77.6338 225.959 100 225.959C122.366 225.959 143.816 217.074 159.632 201.258C175.447 185.443 184.332 163.993 184.332 141.627C184.332 111.12 166.643 81.9513 149.355 60.4572C136.944 45.1569 123.065 31.1084 107.917 18.5126Z" fill="#F5F5F5"/>
<defs>
<filter id="filter0_i_50887_25498" x="16.0001" y="15.6685" width="168.664" height="218.624" filterUnits="userSpaceOnUse" color-interpolation-filters="sRGB">
<feFlood flood-opacity="0" result="BackgroundImageFix"/>
<feBlend mode="normal" in="SourceGraphic" in2="BackgroundImageFix" result="shape"/>
<feColorMatrix in="SourceAlpha" type="matrix" values="0 0 0 0 0 0 0 0 0 0 0 0 0 0 0 0 0 0 127 0" result="hardAlpha"/>
<feOffset dy="8.33334"/>
<feGaussianBlur stdDeviation="6.66667"/>
<feComposite in2="hardAlpha" operator="arithmetic" k2="-1" k3="1"/>
<feColorMatrix type="matrix" values="0 0 0 0 0 0 0 0 0 0 0 0 0 0 0 0 0 0 0.08 0"/>
<feBlend mode="normal" in2="shape" result="effect1_innerShadow_50887_25498"/>
</filter>
</defs>
</svg>
