<svg width="19" height="17" viewBox="0 0 19 17" fill="none" xmlns="http://www.w3.org/2000/svg">
<path fill-rule="evenodd" clip-rule="evenodd" d="M9.81407 9.72074C9.25657 9.72074 8.70073 9.53658 8.23573 9.16824L4.49823 6.15491C4.22907 5.93824 4.1874 5.54408 4.40323 5.27574C4.62073 5.00824 5.01407 4.96574 5.2824 5.18158L9.01657 8.19158C9.48573 8.56324 10.1466 8.56324 10.6191 8.18824L14.3157 5.18324C14.5841 4.96408 14.9774 5.00574 15.1957 5.27408C15.4132 5.54158 15.3724 5.93491 15.1049 6.15324L11.4016 9.16324C10.9332 9.53491 10.3732 9.72074 9.81407 9.72074Z" fill="#212121"/>
<mask id="mask0_51377_21467" style="mask-type:luminance" maskUnits="userSpaceOnUse" x="0" y="0" width="19" height="17">
<path fill-rule="evenodd" clip-rule="evenodd" d="M0.833313 0.166504H18.7499V16.4165H0.833313V0.166504Z" fill="white"/>
</mask>
<g mask="url(#mask0_51377_21467)">
<path fill-rule="evenodd" clip-rule="evenodd" d="M5.69909 15.1665H13.8824C13.8841 15.1648 13.8908 15.1665 13.8958 15.1665C14.8466 15.1665 15.6899 14.8265 16.3366 14.1807C17.0874 13.4332 17.4999 12.359 17.4999 11.1565V5.43317C17.4999 3.10567 15.9783 1.4165 13.8824 1.4165H5.70075C3.60492 1.4165 2.08325 3.10567 2.08325 5.43317V11.1565C2.08325 12.359 2.49659 13.4332 3.24659 14.1807C3.89325 14.8265 4.73742 15.1665 5.68742 15.1665H5.69909ZM5.68492 16.4165C4.39909 16.4165 3.25075 15.9498 2.36409 15.0665C1.37659 14.0815 0.833252 12.6932 0.833252 11.1565V5.43317C0.833252 2.43067 2.92575 0.166504 5.70075 0.166504H13.8824C16.6574 0.166504 18.7499 2.43067 18.7499 5.43317V11.1565C18.7499 12.6932 18.2066 14.0815 17.2191 15.0665C16.3333 15.949 15.1841 16.4165 13.8958 16.4165H13.8824H5.70075H5.68492Z" fill="#212121"/>
</g>
</svg>
