<svg width="24" height="25" viewBox="0 0 24 25" fill="none" xmlns="http://www.w3.org/2000/svg">
<path fill-rule="evenodd" clip-rule="evenodd" d="M11.9996 10.1411C10.6696 10.1411 9.58859 11.2231 9.58859 12.5531C9.58859 13.8821 10.6696 14.9631 11.9996 14.9631C13.3296 14.9631 14.4116 13.8821 14.4116 12.5531C14.4116 11.2231 13.3296 10.1411 11.9996 10.1411ZM11.9996 16.4631C9.84259 16.4631 8.08859 14.7091 8.08859 12.5531C8.08859 10.3961 9.84259 8.64111 11.9996 8.64111C14.1566 8.64111 15.9116 10.3961 15.9116 12.5531C15.9116 14.7091 14.1566 16.4631 11.9996 16.4631Z" fill="#212121"/>
<mask id="mask0_50538_3297" style="mask-type:luminance" maskUnits="userSpaceOnUse" x="2" y="4" width="20" height="17">
<path fill-rule="evenodd" clip-rule="evenodd" d="M2.00015 4.5H22V20.605H2.00015V4.5Z" fill="white"/>
</mask>
<g mask="url(#mask0_50538_3297)">
<path fill-rule="evenodd" clip-rule="evenodd" d="M3.5699 12.5523C5.4299 16.6613 8.5629 19.1043 11.9999 19.1053C15.4369 19.1043 18.5699 16.6613 20.4299 12.5523C18.5699 8.44426 15.4369 6.00126 11.9999 6.00026C8.5639 6.00126 5.4299 8.44426 3.5699 12.5523ZM12.0019 20.6053H11.9979H11.9969C7.8609 20.6023 4.1469 17.7033 2.0609 12.8483C1.9799 12.6593 1.9799 12.4453 2.0609 12.2563C4.1469 7.40226 7.8619 4.50326 11.9969 4.50026C11.9989 4.49926 11.9989 4.49926 11.9999 4.50026C12.0019 4.49926 12.0019 4.49926 12.0029 4.50026C16.1389 4.50326 19.8529 7.40226 21.9389 12.2563C22.0209 12.4453 22.0209 12.6593 21.9389 12.8483C19.8539 17.7033 16.1389 20.6023 12.0029 20.6053H12.0019Z" fill="#212121"/>
</g>
</svg>
