<svg width="21" height="20" viewBox="0 0 21 20" fill="none" xmlns="http://www.w3.org/2000/svg">
<g filter="url(#filter0_i_50800_23415)">
<path d="M13.2223 19.0647C13.3513 19.1309 13.5014 19.1432 13.6395 19.0987C13.7078 19.0767 13.7712 19.0415 13.8259 18.995C13.8807 18.9485 13.9257 18.8917 13.9585 18.8278C13.9913 18.7639 14.0112 18.6942 14.017 18.6226C14.0229 18.551 14.0146 18.479 13.9926 18.4106C13.9706 18.3423 13.9353 18.2789 13.8889 18.2242C13.8424 18.1694 13.7856 18.1244 13.7217 18.0916L13.2223 19.0647ZM13.7217 18.0916C12.0285 17.2228 11.3392 16.0709 11.0485 14.7984C10.7423 13.4591 10.8735 12.0234 10.8735 10.4922H9.77978C9.77978 11.8834 9.63916 13.5428 9.98228 15.0422C10.3404 16.6084 11.2235 18.0391 13.2223 19.0647L13.7217 18.0916Z" fill="url(#paint0_linear_50800_23415)"/>
<path d="M13.2223 19.0647C13.3513 19.1309 13.5014 19.1432 13.6395 19.0987C13.7078 19.0767 13.7712 19.0415 13.8259 18.995C13.8807 18.9485 13.9257 18.8917 13.9585 18.8278C13.9913 18.7639 14.0112 18.6942 14.017 18.6226C14.0229 18.551 14.0146 18.479 13.9926 18.4106C13.9706 18.3423 13.9353 18.2789 13.8889 18.2242C13.8424 18.1694 13.7856 18.1244 13.7217 18.0916L13.2223 19.0647ZM13.7217 18.0916C12.0285 17.2228 11.3392 16.0709 11.0485 14.7984C10.7423 13.4591 10.8735 12.0234 10.8735 10.4922H9.77978C9.77978 11.8834 9.63916 13.5428 9.98228 15.0422C10.3404 16.6084 11.2235 18.0391 13.2223 19.0647L13.7217 18.0916Z" fill="url(#paint1_radial_50800_23415)"/>
<path d="M13.2223 19.0647C13.3513 19.1309 13.5014 19.1432 13.6395 19.0987C13.7078 19.0767 13.7712 19.0415 13.8259 18.995C13.8807 18.9485 13.9257 18.8917 13.9585 18.8278C13.9913 18.7639 14.0112 18.6942 14.017 18.6226C14.0229 18.551 14.0146 18.479 13.9926 18.4106C13.9706 18.3423 13.9353 18.2789 13.8889 18.2242C13.8424 18.1694 13.7856 18.1244 13.7217 18.0916L13.2223 19.0647ZM13.7217 18.0916C12.0285 17.2228 11.3392 16.0709 11.0485 14.7984C10.7423 13.4591 10.8735 12.0234 10.8735 10.4922H9.77978C9.77978 11.8834 9.63916 13.5428 9.98228 15.0422C10.3404 16.6084 11.2235 18.0391 13.2223 19.0647L13.7217 18.0916Z" fill="url(#paint2_radial_50800_23415)"/>
</g>
<path d="M11.6567 14.9001C9.90728 13.5782 10.2929 10.4045 10.2929 8.50009C12.8323 8.50009 14.5667 8.34759 16.2073 9.38259C18.1848 10.6301 16.8617 13.2788 14.8992 13.0738C15.2017 14.812 13.1217 16.007 11.6567 14.9001Z" fill="url(#paint3_linear_50800_23415)"/>
<path d="M11.6567 14.9001C9.90728 13.5782 10.2929 10.4045 10.2929 8.50009C12.8323 8.50009 14.5667 8.34759 16.2073 9.38259C18.1848 10.6301 16.8617 13.2788 14.8992 13.0738C15.2017 14.812 13.1217 16.007 11.6567 14.9001Z" fill="url(#paint4_radial_50800_23415)"/>
<path d="M11.6567 14.9001C9.90728 13.5782 10.2929 10.4045 10.2929 8.50009C12.8323 8.50009 14.5667 8.34759 16.2073 9.38259C18.1848 10.6301 16.8617 13.2788 14.8992 13.0738C15.2017 14.812 13.1217 16.007 11.6567 14.9001Z" fill="url(#paint5_radial_50800_23415)"/>
<path d="M11.6567 14.9001C9.90728 13.5782 10.2929 10.4045 10.2929 8.50009C12.8323 8.50009 14.5667 8.34759 16.2073 9.38259C18.1848 10.6301 16.8617 13.2788 14.8992 13.0738C15.2017 14.812 13.1217 16.007 11.6567 14.9001Z" fill="url(#paint6_radial_50800_23415)"/>
<path d="M11.6567 14.9001C9.90728 13.5782 10.2929 10.4045 10.2929 8.50009C12.8323 8.50009 14.5667 8.34759 16.2073 9.38259C18.1848 10.6301 16.8617 13.2788 14.8992 13.0738C15.2017 14.812 13.1217 16.007 11.6567 14.9001Z" fill="url(#paint7_radial_50800_23415)"/>
<path d="M11.6567 14.9001C9.90728 13.5782 10.2929 10.4045 10.2929 8.50009C12.8323 8.50009 14.5667 8.34759 16.2073 9.38259C18.1848 10.6301 16.8617 13.2788 14.8992 13.0738C15.2017 14.812 13.1217 16.007 11.6567 14.9001Z" fill="url(#paint8_radial_50800_23415)"/>
<path d="M11.6567 14.9001C9.90728 13.5782 10.2929 10.4045 10.2929 8.50009C12.8323 8.50009 14.5667 8.34759 16.2073 9.38259C18.1848 10.6301 16.8617 13.2788 14.8992 13.0738C15.2017 14.812 13.1217 16.007 11.6567 14.9001Z" fill="url(#paint9_radial_50800_23415)"/>
<path d="M11.6567 14.9001C9.90728 13.5782 10.2929 10.4045 10.2929 8.50009C12.8323 8.50009 14.5667 8.34759 16.2073 9.38259C18.1848 10.6301 16.8617 13.2788 14.8992 13.0738C15.2017 14.812 13.1217 16.007 11.6567 14.9001Z" fill="url(#paint10_radial_50800_23415)"/>
<path d="M11.6567 14.9001C9.90728 13.5782 10.2929 10.4045 10.2929 8.50009C12.8323 8.50009 14.5667 8.34759 16.2073 9.38259C18.1848 10.6301 16.8617 13.2788 14.8992 13.0738C15.2017 14.812 13.1217 16.007 11.6567 14.9001Z" fill="url(#paint11_radial_50800_23415)"/>
<g filter="url(#filter1_f_50800_23415)">
<path d="M10.4348 13.3628C10.3629 14.4897 10.8954 17.0815 13.5985 18.4415" stroke="url(#paint12_linear_50800_23415)" stroke-width="0.3" stroke-linecap="round"/>
</g>
<path d="M10.2929 8.53021V8.50021C10.5921 8.4998 10.8804 8.49834 11.1579 8.49584C13.2392 8.48084 14.7604 8.46959 16.2079 9.38271C18.1629 10.6165 16.9092 13.2415 14.9023 13.0752L10.2929 8.53021Z" fill="url(#paint13_linear_50800_23415)"/>
<path d="M10.2929 8.53021V8.50021C10.5921 8.4998 10.8804 8.49834 11.1579 8.49584C13.2392 8.48084 14.7604 8.46959 16.2079 9.38271C18.1629 10.6165 16.9092 13.2415 14.9023 13.0752L10.2929 8.53021Z" fill="url(#paint14_radial_50800_23415)"/>
<g filter="url(#filter2_i_50800_23415)">
<path d="M8.95855 14.9002C10.7079 13.5777 10.296 10.4045 10.296 8.50016C7.7573 8.50016 6.04792 8.34704 4.4073 9.38266C2.43042 10.6302 3.75355 13.2789 5.71605 13.0739C5.41355 14.812 7.49355 16.007 8.95855 14.9002Z" fill="url(#paint15_radial_50800_23415)"/>
<path d="M8.95855 14.9002C10.7079 13.5777 10.296 10.4045 10.296 8.50016C7.7573 8.50016 6.04792 8.34704 4.4073 9.38266C2.43042 10.6302 3.75355 13.2789 5.71605 13.0739C5.41355 14.812 7.49355 16.007 8.95855 14.9002Z" fill="url(#paint16_radial_50800_23415)"/>
<path d="M8.95855 14.9002C10.7079 13.5777 10.296 10.4045 10.296 8.50016C7.7573 8.50016 6.04792 8.34704 4.4073 9.38266C2.43042 10.6302 3.75355 13.2789 5.71605 13.0739C5.41355 14.812 7.49355 16.007 8.95855 14.9002Z" fill="url(#paint17_radial_50800_23415)"/>
</g>
<path d="M8.95855 14.9002C10.7079 13.5777 10.296 10.4045 10.296 8.50016C7.7573 8.50016 6.04792 8.34704 4.4073 9.38266C2.43042 10.6302 3.75355 13.2789 5.71605 13.0739C5.41355 14.812 7.49355 16.007 8.95855 14.9002Z" fill="url(#paint18_radial_50800_23415)"/>
<path d="M8.95855 14.9002C10.7079 13.5777 10.296 10.4045 10.296 8.50016C7.7573 8.50016 6.04792 8.34704 4.4073 9.38266C2.43042 10.6302 3.75355 13.2789 5.71605 13.0739C5.41355 14.812 7.49355 16.007 8.95855 14.9002Z" fill="url(#paint19_radial_50800_23415)"/>
<g filter="url(#filter3_f_50800_23415)">
<path d="M6.92856 11.3706L10.1629 8.62939C9.81856 8.69502 8.91231 9.06189 8.21793 9.65189C7.43668 10.3163 6.94668 11.1069 6.92856 11.3706Z" fill="url(#paint20_linear_50800_23415)"/>
</g>
<g filter="url(#filter4_f_50800_23415)">
<path d="M10.0535 9.14404L7.88605 11.254L9.7798 12.5628C10.1548 11.1878 10.1192 9.71092 10.0535 9.14404Z" fill="url(#paint21_radial_50800_23415)"/>
</g>
<g filter="url(#filter5_f_50800_23415)">
<path d="M14.6851 12.5093C15.7022 12.7557 16.696 12.257 16.9047 11.3955C17.1134 10.534 16.458 9.6359 15.4408 9.3895C14.4236 9.1431 13.4299 9.64174 13.2212 10.5032C13.0125 11.3647 13.6679 12.2629 14.6851 12.5093Z" fill="url(#paint22_radial_50800_23415)"/>
</g>
<g filter="url(#filter6_f_50800_23415)">
<path d="M14.2567 12.5328L10.6592 9.00781C11.0279 9.50781 11.4567 10.0597 12.3492 11.1566C13.1636 12.1572 13.6098 12.4578 14.2567 12.5328Z" fill="url(#paint23_radial_50800_23415)"/>
</g>
<g filter="url(#filter7_i_50800_23415)">
<path d="M11.6873 2.17197C10.1248 3.48009 10.3498 6.61509 10.3498 8.51946C12.8885 8.51946 14.5979 8.72447 16.2385 7.68947C18.2154 6.44197 16.8923 3.79259 14.9298 3.99759C15.2323 2.26009 13.0954 0.99259 11.6873 2.17197Z" fill="#48D386"/>
<path d="M11.6873 2.17197C10.1248 3.48009 10.3498 6.61509 10.3498 8.51946C12.8885 8.51946 14.5979 8.72447 16.2385 7.68947C18.2154 6.44197 16.8923 3.79259 14.9298 3.99759C15.2323 2.26009 13.0954 0.99259 11.6873 2.17197Z" fill="url(#paint24_radial_50800_23415)"/>
<path d="M11.6873 2.17197C10.1248 3.48009 10.3498 6.61509 10.3498 8.51946C12.8885 8.51946 14.5979 8.72447 16.2385 7.68947C18.2154 6.44197 16.8923 3.79259 14.9298 3.99759C15.2323 2.26009 13.0954 0.99259 11.6873 2.17197Z" fill="url(#paint25_radial_50800_23415)"/>
<path d="M11.6873 2.17197C10.1248 3.48009 10.3498 6.61509 10.3498 8.51946C12.8885 8.51946 14.5979 8.72447 16.2385 7.68947C18.2154 6.44197 16.8923 3.79259 14.9298 3.99759C15.2323 2.26009 13.0954 0.99259 11.6873 2.17197Z" fill="url(#paint26_radial_50800_23415)"/>
<path d="M11.6873 2.17197C10.1248 3.48009 10.3498 6.61509 10.3498 8.51946C12.8885 8.51946 14.5979 8.72447 16.2385 7.68947C18.2154 6.44197 16.8923 3.79259 14.9298 3.99759C15.2323 2.26009 13.0954 0.99259 11.6873 2.17197Z" fill="url(#paint27_radial_50800_23415)" fill-opacity="0.25"/>
<path d="M11.6873 2.17197C10.1248 3.48009 10.3498 6.61509 10.3498 8.51946C12.8885 8.51946 14.5979 8.72447 16.2385 7.68947C18.2154 6.44197 16.8923 3.79259 14.9298 3.99759C15.2323 2.26009 13.0954 0.99259 11.6873 2.17197Z" fill="url(#paint28_radial_50800_23415)"/>
</g>
<g filter="url(#filter8_f_50800_23415)">
<path d="M15.4828 6.17306C16.2082 6.25486 16.8314 6.01031 16.8746 5.62683C16.9178 5.24336 16.3648 4.86617 15.6394 4.78436C14.9139 4.70255 14.2907 4.9471 14.2475 5.33058C14.2043 5.71406 14.7573 6.09125 15.4828 6.17306Z" fill="url(#paint29_radial_50800_23415)"/>
</g>
<g filter="url(#filter9_i_50800_23415)">
<path d="M8.98917 2.17197C10.5517 3.48009 10.3267 6.61509 10.3267 8.51946C7.78792 8.51946 6.07917 8.72447 4.43854 7.68947C2.46167 6.44197 3.78417 3.79259 5.74729 3.99759C5.44417 2.26009 7.58167 0.99259 8.98917 2.17197Z" fill="url(#paint30_linear_50800_23415)"/>
<path d="M8.98917 2.17197C10.5517 3.48009 10.3267 6.61509 10.3267 8.51946C7.78792 8.51946 6.07917 8.72447 4.43854 7.68947C2.46167 6.44197 3.78417 3.79259 5.74729 3.99759C5.44417 2.26009 7.58167 0.99259 8.98917 2.17197Z" fill="url(#paint31_radial_50800_23415)"/>
<path d="M8.98917 2.17197C10.5517 3.48009 10.3267 6.61509 10.3267 8.51946C7.78792 8.51946 6.07917 8.72447 4.43854 7.68947C2.46167 6.44197 3.78417 3.79259 5.74729 3.99759C5.44417 2.26009 7.58167 0.99259 8.98917 2.17197Z" fill="url(#paint32_radial_50800_23415)"/>
<path d="M8.98917 2.17197C10.5517 3.48009 10.3267 6.61509 10.3267 8.51946C7.78792 8.51946 6.07917 8.72447 4.43854 7.68947C2.46167 6.44197 3.78417 3.79259 5.74729 3.99759C5.44417 2.26009 7.58167 0.99259 8.98917 2.17197Z" fill="url(#paint33_radial_50800_23415)"/>
<path d="M8.98917 2.17197C10.5517 3.48009 10.3267 6.61509 10.3267 8.51946C7.78792 8.51946 6.07917 8.72447 4.43854 7.68947C2.46167 6.44197 3.78417 3.79259 5.74729 3.99759C5.44417 2.26009 7.58167 0.99259 8.98917 2.17197Z" fill="url(#paint34_radial_50800_23415)"/>
<path d="M8.98917 2.17197C10.5517 3.48009 10.3267 6.61509 10.3267 8.51946C7.78792 8.51946 6.07917 8.72447 4.43854 7.68947C2.46167 6.44197 3.78417 3.79259 5.74729 3.99759C5.44417 2.26009 7.58167 0.99259 8.98917 2.17197Z" fill="url(#paint35_radial_50800_23415)"/>
</g>
<g filter="url(#filter10_f_50800_23415)">
<path d="M6.94856 3.96891L10.1123 8.30453C10.1123 7.35703 10.1123 5.68766 9.72168 4.14453C9.47606 3.17516 8.79418 1.78141 7.30918 2.15203C6.12168 2.44891 6.71418 3.79266 6.94793 3.96891" fill="url(#paint36_radial_50800_23415)"/>
<path d="M6.94856 3.96891L10.1123 8.30453C10.1123 7.35703 10.1123 5.68766 9.72168 4.14453C9.47606 3.17516 8.79418 1.78141 7.30918 2.15203C6.12168 2.44891 6.71418 3.79266 6.94793 3.96891" fill="url(#paint37_radial_50800_23415)"/>
</g>
<g filter="url(#filter11_f_50800_23415)">
<path d="M6.45543 4.58398L9.75543 8.03148C9.1898 7.74836 8.6523 7.55273 7.77355 6.62523C6.86668 5.66773 6.45543 4.89023 6.45543 4.58398Z" fill="url(#paint38_linear_50800_23415)"/>
</g>
<g filter="url(#filter12_f_50800_23415)">
<path d="M14.4189 3.47716C14.3297 2.75258 13.9468 2.20344 13.5638 2.25062C13.1808 2.2978 12.9427 2.92343 13.0319 3.648C13.1212 4.37258 13.504 4.92172 13.887 4.87454C14.27 4.82736 14.5082 4.20173 14.4189 3.47716Z" fill="url(#paint39_radial_50800_23415)"/>
</g>
<defs>
<filter id="filter0_i_50800_23415" x="9.75125" y="10.3422" width="4.41761" height="8.78281" filterUnits="userSpaceOnUse" color-interpolation-filters="sRGB">
<feFlood flood-opacity="0" result="BackgroundImageFix"/>
<feBlend mode="normal" in="SourceGraphic" in2="BackgroundImageFix" result="shape"/>
<feColorMatrix in="SourceAlpha" type="matrix" values="0 0 0 0 0 0 0 0 0 0 0 0 0 0 0 0 0 0 127 0" result="hardAlpha"/>
<feOffset dx="0.15" dy="-0.15"/>
<feGaussianBlur stdDeviation="0.5"/>
<feComposite in2="hardAlpha" operator="arithmetic" k2="-1" k3="1"/>
<feColorMatrix type="matrix" values="0 0 0 0 0.243137 0 0 0 0 0.380392 0 0 0 0 0.478431 0 0 0 1 0"/>
<feBlend mode="normal" in2="shape" result="effect1_innerShadow_50800_23415"/>
</filter>
<filter id="filter1_f_50800_23415" x="9.87872" y="12.8129" width="4.26985" height="6.17891" filterUnits="userSpaceOnUse" color-interpolation-filters="sRGB">
<feFlood flood-opacity="0" result="BackgroundImageFix"/>
<feBlend mode="normal" in="SourceGraphic" in2="BackgroundImageFix" result="shape"/>
<feGaussianBlur stdDeviation="0.2" result="effect1_foregroundBlur_50800_23415"/>
</filter>
<filter id="filter2_i_50800_23415" x="3.43024" y="8.49219" width="6.90802" height="6.83594" filterUnits="userSpaceOnUse" color-interpolation-filters="sRGB">
<feFlood flood-opacity="0" result="BackgroundImageFix"/>
<feBlend mode="normal" in="SourceGraphic" in2="BackgroundImageFix" result="shape"/>
<feColorMatrix in="SourceAlpha" type="matrix" values="0 0 0 0 0 0 0 0 0 0 0 0 0 0 0 0 0 0 127 0" result="hardAlpha"/>
<feOffset/>
<feGaussianBlur stdDeviation="1"/>
<feComposite in2="hardAlpha" operator="arithmetic" k2="-1" k3="1"/>
<feColorMatrix type="matrix" values="0 0 0 0 0.0901961 0 0 0 0 0.576471 0 0 0 0 0.313726 0 0 0 1 0"/>
<feBlend mode="normal" in2="shape" result="effect1_innerShadow_50800_23415"/>
</filter>
<filter id="filter3_f_50800_23415" x="6.42856" y="8.12939" width="4.23438" height="3.74121" filterUnits="userSpaceOnUse" color-interpolation-filters="sRGB">
<feFlood flood-opacity="0" result="BackgroundImageFix"/>
<feBlend mode="normal" in="SourceGraphic" in2="BackgroundImageFix" result="shape"/>
<feGaussianBlur stdDeviation="0.25" result="effect1_foregroundBlur_50800_23415"/>
</filter>
<filter id="filter4_f_50800_23415" x="7.38605" y="8.64404" width="3.20908" height="4.41895" filterUnits="userSpaceOnUse" color-interpolation-filters="sRGB">
<feFlood flood-opacity="0" result="BackgroundImageFix"/>
<feBlend mode="normal" in="SourceGraphic" in2="BackgroundImageFix" result="shape"/>
<feGaussianBlur stdDeviation="0.25" result="effect1_foregroundBlur_50800_23415"/>
</filter>
<filter id="filter5_f_50800_23415" x="11.9325" y="8.07666" width="6.26093" height="5.74561" filterUnits="userSpaceOnUse" color-interpolation-filters="sRGB">
<feFlood flood-opacity="0" result="BackgroundImageFix"/>
<feBlend mode="normal" in="SourceGraphic" in2="BackgroundImageFix" result="shape"/>
<feGaussianBlur stdDeviation="0.625" result="effect1_foregroundBlur_50800_23415"/>
</filter>
<filter id="filter6_f_50800_23415" x="10.2592" y="8.60781" width="4.3975" height="4.3249" filterUnits="userSpaceOnUse" color-interpolation-filters="sRGB">
<feFlood flood-opacity="0" result="BackgroundImageFix"/>
<feBlend mode="normal" in="SourceGraphic" in2="BackgroundImageFix" result="shape"/>
<feGaussianBlur stdDeviation="0.2" result="effect1_foregroundBlur_50800_23415"/>
</filter>
<filter id="filter7_i_50800_23415" x="10.3385" y="1.46289" width="7.12704" height="7.07324" filterUnits="userSpaceOnUse" color-interpolation-filters="sRGB">
<feFlood flood-opacity="0" result="BackgroundImageFix"/>
<feBlend mode="normal" in="SourceGraphic" in2="BackgroundImageFix" result="shape"/>
<feColorMatrix in="SourceAlpha" type="matrix" values="0 0 0 0 0 0 0 0 0 0 0 0 0 0 0 0 0 0 127 0" result="hardAlpha"/>
<feOffset dx="0.25" dy="-0.25"/>
<feGaussianBlur stdDeviation="0.5"/>
<feComposite in2="hardAlpha" operator="arithmetic" k2="-1" k3="1"/>
<feColorMatrix type="matrix" values="0 0 0 0 0.227451 0 0 0 0 0.596078 0 0 0 0 0.352941 0 0 0 1 0"/>
<feBlend mode="normal" in2="shape" result="effect1_innerShadow_50800_23415"/>
</filter>
<filter id="filter8_f_50800_23415" x="13.2451" y="3.76855" width="4.63187" height="3.42041" filterUnits="userSpaceOnUse" color-interpolation-filters="sRGB">
<feFlood flood-opacity="0" result="BackgroundImageFix"/>
<feBlend mode="normal" in="SourceGraphic" in2="BackgroundImageFix" result="shape"/>
<feGaussianBlur stdDeviation="0.5" result="effect1_foregroundBlur_50800_23415"/>
</filter>
<filter id="filter9_i_50800_23415" x="3.46133" y="1.46289" width="7.12659" height="7.07324" filterUnits="userSpaceOnUse" color-interpolation-filters="sRGB">
<feFlood flood-opacity="0" result="BackgroundImageFix"/>
<feBlend mode="normal" in="SourceGraphic" in2="BackgroundImageFix" result="shape"/>
<feColorMatrix in="SourceAlpha" type="matrix" values="0 0 0 0 0 0 0 0 0 0 0 0 0 0 0 0 0 0 127 0" result="hardAlpha"/>
<feOffset dx="0.25" dy="-0.25"/>
<feGaussianBlur stdDeviation="0.5"/>
<feComposite in2="hardAlpha" operator="arithmetic" k2="-1" k3="1"/>
<feColorMatrix type="matrix" values="0 0 0 0 0.211765 0 0 0 0 0.505882 0 0 0 0 0.407843 0 0 0 1 0"/>
<feBlend mode="normal" in2="shape" result="effect1_innerShadow_50800_23415"/>
</filter>
<filter id="filter10_f_50800_23415" x="5.84219" y="1.34082" width="5.02011" height="7.71387" filterUnits="userSpaceOnUse" color-interpolation-filters="sRGB">
<feFlood flood-opacity="0" result="BackgroundImageFix"/>
<feBlend mode="normal" in="SourceGraphic" in2="BackgroundImageFix" result="shape"/>
<feGaussianBlur stdDeviation="0.375" result="effect1_foregroundBlur_50800_23415"/>
</filter>
<filter id="filter11_f_50800_23415" x="5.95541" y="4.08398" width="4.30002" height="4.44727" filterUnits="userSpaceOnUse" color-interpolation-filters="sRGB">
<feFlood flood-opacity="0" result="BackgroundImageFix"/>
<feBlend mode="normal" in="SourceGraphic" in2="BackgroundImageFix" result="shape"/>
<feGaussianBlur stdDeviation="0.25" result="effect1_foregroundBlur_50800_23415"/>
</filter>
<filter id="filter12_f_50800_23415" x="12.0132" y="1.24756" width="3.42447" height="4.62988" filterUnits="userSpaceOnUse" color-interpolation-filters="sRGB">
<feFlood flood-opacity="0" result="BackgroundImageFix"/>
<feBlend mode="normal" in="SourceGraphic" in2="BackgroundImageFix" result="shape"/>
<feGaussianBlur stdDeviation="0.5" result="effect1_foregroundBlur_50800_23415"/>
</filter>
<linearGradient id="paint0_linear_50800_23415" x1="10.6592" y1="12.1722" x2="13.7842" y2="19.0078" gradientUnits="userSpaceOnUse">
<stop stop-color="#18554D"/>
<stop offset="1" stop-color="#509E85"/>
</linearGradient>
<radialGradient id="paint1_radial_50800_23415" cx="0" cy="0" r="1" gradientUnits="userSpaceOnUse" gradientTransform="translate(14.0673 18.5784) rotate(167.692) scale(0.549748 0.587913)">
<stop stop-color="#6AAC9A"/>
<stop offset="1" stop-color="#6AAC9A" stop-opacity="0"/>
</radialGradient>
<radialGradient id="paint2_radial_50800_23415" cx="0" cy="0" r="1" gradientUnits="userSpaceOnUse" gradientTransform="translate(11.1967 14.4278) rotate(169.611) scale(0.595704 3.46296)">
<stop stop-color="#557C70"/>
<stop offset="1" stop-color="#557C70" stop-opacity="0"/>
</radialGradient>
<linearGradient id="paint3_linear_50800_23415" x1="9.95603" y1="8.73446" x2="14.1748" y2="12.4845" gradientUnits="userSpaceOnUse">
<stop stop-color="#2C9C60"/>
<stop offset="1" stop-color="#3CCE7F"/>
</linearGradient>
<radialGradient id="paint4_radial_50800_23415" cx="0" cy="0" r="1" gradientUnits="userSpaceOnUse" gradientTransform="translate(17.4957 11.703) rotate(-161.184) scale(5.57117 2.65711)">
<stop stop-color="#46D282"/>
<stop offset="1" stop-color="#46D282" stop-opacity="0"/>
</radialGradient>
<radialGradient id="paint5_radial_50800_23415" cx="0" cy="0" r="1" gradientUnits="userSpaceOnUse" gradientTransform="translate(15.8935 14.7107) rotate(-139.207) scale(2.86992 3.23896)">
<stop stop-color="#43D592"/>
<stop offset="1" stop-color="#43D592" stop-opacity="0"/>
</radialGradient>
<radialGradient id="paint6_radial_50800_23415" cx="0" cy="0" r="1" gradientUnits="userSpaceOnUse" gradientTransform="translate(15.4055 13.7347) rotate(178.075) scale(2.32553 4.38106)">
<stop stop-color="#45DF94"/>
<stop offset="1" stop-color="#45DF94" stop-opacity="0"/>
</radialGradient>
<radialGradient id="paint7_radial_50800_23415" cx="0" cy="0" r="1" gradientUnits="userSpaceOnUse" gradientTransform="translate(10.4642 8.69509) rotate(44.627) scale(4.57631 0.506564)">
<stop stop-color="#249F5C"/>
<stop offset="1" stop-color="#249F5C" stop-opacity="0"/>
</radialGradient>
<radialGradient id="paint8_radial_50800_23415" cx="0" cy="0" r="1" gradientUnits="userSpaceOnUse" gradientTransform="translate(13.9012 7.9529) rotate(99.541) scale(1.08929 5.10981)">
<stop stop-color="#439059"/>
<stop offset="1" stop-color="#439059" stop-opacity="0"/>
</radialGradient>
<radialGradient id="paint9_radial_50800_23415" cx="0" cy="0" r="1" gradientUnits="userSpaceOnUse" gradientTransform="translate(15.1907 13.7547) rotate(-179.091) scale(1.23062 1.46652)">
<stop stop-color="#4DD695"/>
<stop offset="1" stop-color="#4DD695" stop-opacity="0"/>
</radialGradient>
<radialGradient id="paint10_radial_50800_23415" cx="0" cy="0" r="1" gradientUnits="userSpaceOnUse" gradientTransform="translate(14.7998 11.0388) rotate(-179.576) scale(5.27358 11.9521)">
<stop offset="0.624" stop-color="#1D9453" stop-opacity="0"/>
<stop offset="1" stop-color="#1D9453"/>
</radialGradient>
<radialGradient id="paint11_radial_50800_23415" cx="0" cy="0" r="1" gradientUnits="userSpaceOnUse" gradientTransform="translate(13.721 10.3751) rotate(103.007) scale(5.53258 4.30383)">
<stop offset="0.841" stop-color="#438882" stop-opacity="0"/>
<stop offset="0.969" stop-color="#438882"/>
</radialGradient>
<linearGradient id="paint12_linear_50800_23415" x1="13.5985" y1="18.3047" x2="10.2979" y2="13.754" gradientUnits="userSpaceOnUse">
<stop stop-color="#69AA99"/>
<stop offset="1" stop-color="#69AA99" stop-opacity="0"/>
</linearGradient>
<linearGradient id="paint13_linear_50800_23415" x1="9.91728" y1="10.789" x2="12.0654" y2="9.10521" gradientUnits="userSpaceOnUse">
<stop stop-color="#219756"/>
<stop offset="1" stop-color="#219756" stop-opacity="0"/>
</linearGradient>
<radialGradient id="paint14_radial_50800_23415" cx="0" cy="0" r="1" gradientUnits="userSpaceOnUse" gradientTransform="translate(14.5267 9.65209) rotate(88.2643) scale(3.86896 9.20981)">
<stop offset="0.821" stop-color="#438882" stop-opacity="0"/>
<stop offset="1" stop-color="#438882"/>
</radialGradient>
<radialGradient id="paint15_radial_50800_23415" cx="0" cy="0" r="1" gradientUnits="userSpaceOnUse" gradientTransform="translate(8.23726 10.922) rotate(-47.586) scale(4.28567 4.19242)">
<stop stop-color="#53CE8D"/>
<stop offset="1" stop-color="#39B97C"/>
</radialGradient>
<radialGradient id="paint16_radial_50800_23415" cx="0" cy="0" r="1" gradientUnits="userSpaceOnUse" gradientTransform="translate(8.25667 10.3752) rotate(-43.4518) scale(3.06709 0.441405)">
<stop stop-color="#1FAE5A"/>
<stop offset="1" stop-color="#1FAE5A" stop-opacity="0"/>
</radialGradient>
<radialGradient id="paint17_radial_50800_23415" cx="0" cy="0" r="1" gradientUnits="userSpaceOnUse" gradientTransform="translate(10.3385 8.49204) rotate(135.971) scale(4.62005 0.0546716)">
<stop offset="0.366" stop-color="#6AD392"/>
<stop offset="1" stop-color="#6AD392" stop-opacity="0"/>
</radialGradient>
<radialGradient id="paint18_radial_50800_23415" cx="0" cy="0" r="1" gradientUnits="userSpaceOnUse" gradientTransform="translate(4.9223 13.2702) rotate(-67.7703) scale(0.606612 0.762134)">
<stop offset="0.21" stop-color="#718C9F"/>
<stop offset="1" stop-color="#718C9F" stop-opacity="0"/>
</radialGradient>
<radialGradient id="paint19_radial_50800_23415" cx="0" cy="0" r="1" gradientUnits="userSpaceOnUse" gradientTransform="translate(6.8848 15.4533) rotate(-70.0161) scale(1.10148 4.12327)">
<stop stop-color="#718C9F"/>
<stop offset="1" stop-color="#718C9F" stop-opacity="0"/>
</radialGradient>
<linearGradient id="paint20_linear_50800_23415" x1="9.78043" y1="9.20314" x2="6.12793" y2="11.2538" gradientUnits="userSpaceOnUse">
<stop stop-color="#75E2A0"/>
<stop offset="1" stop-color="#72D79A" stop-opacity="0"/>
</linearGradient>
<radialGradient id="paint21_radial_50800_23415" cx="0" cy="0" r="1" gradientUnits="userSpaceOnUse" gradientTransform="translate(9.7023 8.89092) rotate(93.1639) scale(3.89265 1.0219)">
<stop stop-color="#6EE79D"/>
<stop offset="1" stop-color="#72D79A" stop-opacity="0"/>
</radialGradient>
<radialGradient id="paint22_radial_50800_23415" cx="0" cy="0" r="1" gradientUnits="userSpaceOnUse" gradientTransform="translate(17.1635 10.7071) rotate(-178.768) scale(3.40521 1.76354)">
<stop stop-color="#81FFB3"/>
<stop offset="1" stop-color="#81FFB3" stop-opacity="0"/>
</radialGradient>
<radialGradient id="paint23_radial_50800_23415" cx="0" cy="0" r="1" gradientUnits="userSpaceOnUse" gradientTransform="translate(12.8329 11.2191) rotate(136.169) scale(0.472198 2.98809)">
<stop stop-color="#72DDA1"/>
<stop offset="1" stop-color="#72DDA1" stop-opacity="0"/>
</radialGradient>
<radialGradient id="paint24_radial_50800_23415" cx="0" cy="0" r="1" gradientUnits="userSpaceOnUse" gradientTransform="translate(14.5967 4.43771) rotate(135) scale(6.62912 6.28187)">
<stop offset="0.279" stop-color="#188A50" stop-opacity="0"/>
<stop offset="1" stop-color="#188A50"/>
</radialGradient>
<radialGradient id="paint25_radial_50800_23415" cx="0" cy="0" r="1" gradientUnits="userSpaceOnUse" gradientTransform="translate(15.6898 3.14822) rotate(133.688) scale(3.61934 3.80696)">
<stop offset="0.164" stop-color="#75F9A8"/>
<stop offset="1" stop-color="#75F9A8" stop-opacity="0"/>
</radialGradient>
<radialGradient id="paint26_radial_50800_23415" cx="0" cy="0" r="1" gradientUnits="userSpaceOnUse" gradientTransform="translate(9.20519 9.78882) rotate(-45) scale(5.52427 3.78412)">
<stop stop-color="#338B6E"/>
<stop offset="1" stop-color="#338B6E" stop-opacity="0"/>
</radialGradient>
<radialGradient id="paint27_radial_50800_23415" cx="0" cy="0" r="1" gradientUnits="userSpaceOnUse" gradientTransform="translate(12.9049 6.05799) rotate(136.672) scale(3.78574 0.557775)">
<stop stop-color="#309B69"/>
<stop offset="1" stop-color="#34BB72" stop-opacity="0"/>
</radialGradient>
<radialGradient id="paint28_radial_50800_23415" cx="0" cy="0" r="1" gradientUnits="userSpaceOnUse" gradientTransform="translate(15.2004 3.64634) rotate(136.695) scale(4.67005 0.105675)">
<stop stop-color="#79F0AF"/>
<stop offset="1" stop-color="#79F0AF" stop-opacity="0"/>
</radialGradient>
<radialGradient id="paint29_radial_50800_23415" cx="0" cy="0" r="1" gradientUnits="userSpaceOnUse" gradientTransform="translate(16.4793 5.47911) rotate(-174.56) scale(1.92273 0.673095)">
<stop stop-color="#80FFB4"/>
<stop offset="1" stop-color="#80FFB4" stop-opacity="0"/>
</radialGradient>
<linearGradient id="paint30_linear_50800_23415" x1="6.89979" y1="3.30447" x2="10.3385" y2="8.92946" gradientUnits="userSpaceOnUse">
<stop stop-color="#3AC97D"/>
<stop offset="1" stop-color="#3FAD80"/>
</linearGradient>
<radialGradient id="paint31_radial_50800_23415" cx="0" cy="0" r="1" gradientUnits="userSpaceOnUse" gradientTransform="translate(5.24931 3.01174) rotate(45) scale(3.39742 4.59324)">
<stop stop-color="#3BC577"/>
<stop offset="1" stop-color="#3BC577" stop-opacity="0"/>
</radialGradient>
<radialGradient id="paint32_radial_50800_23415" cx="0" cy="0" r="1" gradientUnits="userSpaceOnUse" gradientTransform="translate(9.76042 2.73841) rotate(145.105) scale(2.83371 2.75887)">
<stop stop-color="#5AF095"/>
<stop offset="1" stop-color="#5AF095" stop-opacity="0"/>
</radialGradient>
<radialGradient id="paint33_radial_50800_23415" cx="0" cy="0" r="1" gradientUnits="userSpaceOnUse" gradientTransform="translate(10.3392 8.53513) rotate(-134.582) scale(6.19312 0.321944)">
<stop offset="0.433" stop-color="#3AA578"/>
<stop offset="1" stop-color="#3AA578" stop-opacity="0"/>
</radialGradient>
<radialGradient id="paint34_radial_50800_23415" cx="0" cy="0" r="1" gradientUnits="userSpaceOnUse" gradientTransform="translate(10.4248 8.64634) rotate(-134.009) scale(5.98782 0.0321252)">
<stop offset="0.545" stop-color="#4EB87F"/>
<stop offset="1" stop-color="#4EB87F" stop-opacity="0"/>
</radialGradient>
<radialGradient id="paint35_radial_50800_23415" cx="0" cy="0" r="1" gradientUnits="userSpaceOnUse" gradientTransform="translate(6.03042 8.53571) rotate(4.37715) scale(3.8785 1.9879)">
<stop stop-color="#379876"/>
<stop offset="1" stop-color="#379876" stop-opacity="0"/>
</radialGradient>
<radialGradient id="paint36_radial_50800_23415" cx="0" cy="0" r="1" gradientUnits="userSpaceOnUse" gradientTransform="translate(9.76106 5.19766) rotate(152.304) scale(1.38969 6.24025)">
<stop stop-color="#77E8A3"/>
<stop offset="1" stop-color="#77E8A3" stop-opacity="0"/>
</radialGradient>
<radialGradient id="paint37_radial_50800_23415" cx="0" cy="0" r="1" gradientUnits="userSpaceOnUse" gradientTransform="translate(13.6286 5.58953) rotate(-174.24) scale(6.81175 3.32175)">
<stop stop-color="#77E8A3"/>
<stop offset="0.999" stop-color="#77E8A3" stop-opacity="0"/>
</radialGradient>
<linearGradient id="paint38_linear_50800_23415" x1="8.00793" y1="6.73211" x2="8.40855" y2="6.30773" gradientUnits="userSpaceOnUse">
<stop stop-color="#75D79F"/>
<stop offset="1" stop-color="#75D79F" stop-opacity="0"/>
</linearGradient>
<radialGradient id="paint39_radial_50800_23415" cx="0" cy="0" r="1" gradientUnits="userSpaceOnUse" gradientTransform="translate(14.371 4.43772) rotate(-107.078) scale(2.6268 0.919577)">
<stop stop-color="#80FFB4"/>
<stop offset="1" stop-color="#80FFB4" stop-opacity="0"/>
</radialGradient>
</defs>
</svg>
