<svg width="21" height="20" viewBox="0 0 21 20" fill="none" xmlns="http://www.w3.org/2000/svg">
    <path fill-rule="evenodd" clip-rule="evenodd"
        d="M15.4298 2.41C15.4298 1.08 16.5098 0 17.8398 0C19.1698 0 20.2498 1.08 20.2498 2.41C20.2498 3.74 19.1698 4.82 17.8398 4.82C16.5098 4.82 15.4298 3.74 15.4298 2.41ZM11.5797 12.7593L14.4697 9.0303L14.4297 9.0503C14.5897 8.8303 14.6197 8.5503 14.5097 8.3003C14.4007 8.0503 14.1597 7.8803 13.9007 7.8603C13.6297 7.8303 13.3607 7.9503 13.1997 8.1703L10.7807 11.3003L8.00969 9.1203C7.83969 8.9903 7.63969 8.9393 7.43969 8.9603C7.24069 8.9903 7.06069 9.0993 6.93969 9.2593L3.98069 13.1103L3.91969 13.2003C3.74969 13.5193 3.82969 13.9293 4.12969 14.1503C4.26969 14.2403 4.41969 14.3003 4.58969 14.3003C4.82069 14.3103 5.03969 14.1893 5.17969 14.0003L7.68969 10.7693L10.5397 12.9103L10.6297 12.9693C10.9497 13.1393 11.3497 13.0603 11.5797 12.7593ZM13.6997 1.7803C13.6597 2.0303 13.6397 2.2803 13.6397 2.5303C13.6397 4.7803 15.4597 6.5993 17.6997 6.5993C17.9497 6.5993 18.1897 6.5703 18.4397 6.5303V14.5993C18.4397 17.9903 16.4397 20.0003 13.0397 20.0003H5.65069C2.24969 20.0003 0.249695 17.9903 0.249695 14.5993V7.2003C0.249695 3.8003 2.24969 1.7803 5.65069 1.7803H13.6997Z"
        fill="#81B44F" />
</svg>