<svg width="25" height="24" viewBox="0 0 25 24" fill="none" xmlns="http://www.w3.org/2000/svg">
    <path fill-rule="evenodd" clip-rule="evenodd"
        d="M7.46629 16.0026C7.30629 16.0026 7.14529 15.9516 7.00929 15.8476C6.68129 15.5946 6.61929 15.1236 6.87229 14.7956L9.86529 10.9056C9.98729 10.7466 10.1683 10.6436 10.3663 10.6186C10.5683 10.5926 10.7663 10.6486 10.9233 10.7736L13.7433 12.9886L16.2103 9.80562C16.4643 9.47662 16.9343 9.41562 17.2623 9.67162C17.5903 9.92562 17.6503 10.3966 17.3963 10.7236L14.4663 14.5036C14.3443 14.6616 14.1643 14.7646 13.9663 14.7886C13.7663 14.8156 13.5683 14.7576 13.4103 14.6346L10.5923 12.4206L8.06129 15.7096C7.91329 15.9016 7.69129 16.0026 7.46629 16.0026Z"
        fill="#9E9E9E" />
    <mask id="mask0_38429_24104" style="mask-type:luminance" maskUnits="userSpaceOnUse" x="17" y="2" width="6"
        height="6">
        <path fill-rule="evenodd" clip-rule="evenodd" d="M17.5453 2H22.8893V7.3449H17.5453V2Z" fill="white" />
    </mask>
    <g mask="url(#mask0_38429_24104)">
        <path fill-rule="evenodd" clip-rule="evenodd"
            d="M20.2173 3.5C19.5713 3.5 19.0453 4.025 19.0453 4.672C19.0453 5.318 19.5713 5.845 20.2173 5.845C20.8633 5.845 21.3893 5.318 21.3893 4.672C21.3893 4.025 20.8633 3.5 20.2173 3.5ZM20.2173 7.345C18.7443 7.345 17.5453 6.146 17.5453 4.672C17.5453 3.198 18.7443 2 20.2173 2C21.6913 2 22.8893 3.198 22.8893 4.672C22.8893 6.146 21.6913 7.345 20.2173 7.345Z"
            fill="#9E9E9E" />
    </g>
    <mask id="mask1_38429_24104" style="mask-type:luminance" maskUnits="userSpaceOnUse" x="2" y="2" width="21"
        height="21">
        <path fill-rule="evenodd" clip-rule="evenodd" d="M2.25 2.8418H22.1119V22.7028H2.25V2.8418Z" fill="white" />
    </mask>
    <g mask="url(#mask1_38429_24104)">
        <path fill-rule="evenodd" clip-rule="evenodd"
            d="M16.4829 22.7028H7.87891C4.51191 22.7028 2.24991 20.3378 2.24991 16.8178V8.7358C2.24991 5.2108 4.51191 2.8418 7.87891 2.8418H15.1469C15.5609 2.8418 15.8969 3.1778 15.8969 3.5918C15.8969 4.0058 15.5609 4.3418 15.1469 4.3418H7.87891C5.37091 4.3418 3.74991 6.0658 3.74991 8.7358V16.8178C3.74991 19.5228 5.33191 21.2028 7.87891 21.2028H16.4829C18.9909 21.2028 20.6119 19.4818 20.6119 16.8178V9.7788C20.6119 9.3648 20.9479 9.0288 21.3619 9.0288C21.7759 9.0288 22.1119 9.3648 22.1119 9.7788V16.8178C22.1119 20.3378 19.8499 22.7028 16.4829 22.7028Z"
            fill="#9E9E9E" />
    </g>
</svg>