<svg width="43" height="34" viewBox="0 0 43 34" fill="none" xmlns="http://www.w3.org/2000/svg">
<g clip-path="url(#clip0_12462_31962)">
<path d="M42.8566 26.7626C42.8566 30.3976 39.8803 33.3575 36.2251 33.3575H0.143311V7.23749C0.143311 3.6025 3.11967 0.642578 6.77484 0.642578H42.8566V26.7626Z" fill="white"/>
<path d="M31.1078 20.0639H33.8492C33.9275 20.0639 34.1103 20.0379 34.1886 20.0379C34.7107 19.934 35.1546 19.4667 35.1546 18.8176C35.1546 18.1944 34.7107 17.7271 34.1886 17.5973C34.1103 17.5713 33.9536 17.5713 33.8492 17.5713H31.1078V20.0639Z" fill="url(#paint0_linear_12462_31962)"/>
<path d="M33.5359 2.84961C30.9251 2.84961 28.7842 4.95271 28.7842 7.5751V12.4823H35.494C35.6507 12.4823 35.8334 12.4823 35.964 12.5083C37.4783 12.5862 38.6009 13.3651 38.6009 14.7153C38.6009 15.7798 37.8438 16.6885 36.4339 16.8703V16.9222C37.9743 17.0261 39.1492 17.8829 39.1492 19.2071C39.1492 20.6351 37.8438 21.5698 36.1206 21.5698H28.7581V31.1766H35.729C38.3398 31.1766 40.4807 29.0735 40.4807 26.4511V2.84961H33.5359Z" fill="url(#paint1_linear_12462_31962)"/>
<path d="M34.8152 15.0267C34.8152 14.4036 34.3713 13.9881 33.8492 13.9102C33.797 13.9102 33.6664 13.8843 33.5881 13.8843H31.1078V16.1691H33.5881C33.6664 16.1691 33.8231 16.1691 33.8492 16.1432C34.3713 16.0653 34.8152 15.6498 34.8152 15.0267Z" fill="url(#paint2_linear_12462_31962)"/>
<path d="M7.27088 2.84961C4.66004 2.84961 2.51915 4.95271 2.51915 7.5751V19.233C3.85068 19.8821 5.23442 20.2976 6.61817 20.2976C8.263 20.2976 9.15068 19.3109 9.15068 17.9608V12.4564H13.2236V17.9348C13.2236 20.0639 11.8921 21.8035 7.37531 21.8035C4.63393 21.8035 2.49304 21.2063 2.49304 21.2063V31.1506H9.46398C12.0748 31.1506 14.2157 29.0475 14.2157 26.4251V2.84961H7.27088Z" fill="url(#paint3_linear_12462_31962)"/>
<path d="M20.4035 2.84961C17.7926 2.84961 15.6517 4.95271 15.6517 7.5751V13.7546C16.8527 12.742 18.9414 12.0929 22.3094 12.2487C24.1109 12.3265 26.0429 12.8199 26.0429 12.8199V14.8191C25.0769 14.3258 23.9281 13.8844 22.4399 13.7805C19.8813 13.5988 18.3409 14.8451 18.3409 17.0261C18.3409 19.233 19.8813 20.4793 22.4399 20.2716C23.9281 20.1677 25.0769 19.7004 26.0429 19.233V21.2323C26.0429 21.2323 24.137 21.7256 22.3094 21.8035C18.9414 21.9593 16.8527 21.3102 15.6517 20.2976V31.2025H22.6227C25.2335 31.2025 27.3744 29.0994 27.3744 26.477V2.84961H20.4035Z" fill="url(#paint4_linear_12462_31962)"/>
</g>
<defs>
<linearGradient id="paint0_linear_12462_31962" x1="28.7798" y1="18.8207" x2="40.5122" y2="18.8207" gradientUnits="userSpaceOnUse">
<stop stop-color="#007940"/>
<stop offset="0.2285" stop-color="#00873F"/>
<stop offset="0.7433" stop-color="#40A737"/>
<stop offset="1" stop-color="#5CB531"/>
</linearGradient>
<linearGradient id="paint1_linear_12462_31962" x1="28.7795" y1="17.0018" x2="40.5128" y2="17.0018" gradientUnits="userSpaceOnUse">
<stop stop-color="#007940"/>
<stop offset="0.2285" stop-color="#00873F"/>
<stop offset="0.7433" stop-color="#40A737"/>
<stop offset="1" stop-color="#5CB531"/>
</linearGradient>
<linearGradient id="paint2_linear_12462_31962" x1="28.7795" y1="15.0235" x2="40.5124" y2="15.0235" gradientUnits="userSpaceOnUse">
<stop stop-color="#007940"/>
<stop offset="0.2285" stop-color="#00873F"/>
<stop offset="0.7433" stop-color="#40A737"/>
<stop offset="1" stop-color="#5CB531"/>
</linearGradient>
<linearGradient id="paint3_linear_12462_31962" x1="2.51362" y1="17.0018" x2="14.4277" y2="17.0018" gradientUnits="userSpaceOnUse">
<stop stop-color="#1F286F"/>
<stop offset="0.4751" stop-color="#004E94"/>
<stop offset="0.8261" stop-color="#0066B1"/>
<stop offset="1" stop-color="#006FBC"/>
</linearGradient>
<linearGradient id="paint4_linear_12462_31962" x1="15.5842" y1="17.0018" x2="27.1555" y2="17.0018" gradientUnits="userSpaceOnUse">
<stop stop-color="#6C2C2F"/>
<stop offset="0.1735" stop-color="#882730"/>
<stop offset="0.5731" stop-color="#BE1833"/>
<stop offset="0.8585" stop-color="#DC0436"/>
<stop offset="1" stop-color="#E60039"/>
</linearGradient>
<clipPath id="clip0_12462_31962">
<rect width="43" height="33" fill="white" transform="translate(0 0.5)"/>
</clipPath>
</defs>
</svg>
