<svg width="98" height="119" viewBox="0 0 98 119" fill="none" xmlns="http://www.w3.org/2000/svg">
<g filter="url(#filter0_d_51235_15712)">
<path d="M41.2397 86.1609C43.9572 86.1609 46.1601 83.958 46.1601 81.2405C46.1601 78.523 43.9572 76.3201 41.2397 76.3201C38.5222 76.3201 36.3192 78.523 36.3192 81.2405C36.3192 83.958 38.5222 86.1609 41.2397 86.1609Z" fill="url(#paint0_radial_51235_15712)"/>
<path d="M47.2858 64.7834H35.4051C33.4893 64.7834 31.9361 66.3366 31.9361 68.2525V79.9611C31.9361 81.8769 33.4893 83.4301 35.4051 83.4301H47.2858C49.2017 83.4301 50.7548 81.8769 50.7548 79.9611V68.2525C50.7548 66.3366 49.2017 64.7834 47.2858 64.7834Z" fill="url(#paint1_linear_51235_15712)"/>
<path d="M47.2858 64.7834H35.4051C33.4893 64.7834 31.9361 66.3366 31.9361 68.2525V79.9611C31.9361 81.8769 33.4893 83.4301 35.4051 83.4301H47.2858C49.2017 83.4301 50.7548 81.8769 50.7548 79.9611V68.2525C50.7548 66.3366 49.2017 64.7834 47.2858 64.7834Z" fill="url(#paint2_linear_51235_15712)"/>
<path d="M47.2858 64.7834H35.4051C33.4893 64.7834 31.9361 66.3366 31.9361 68.2525V79.9611C31.9361 81.8769 33.4893 83.4301 35.4051 83.4301H47.2858C49.2017 83.4301 50.7548 81.8769 50.7548 79.9611V68.2525C50.7548 66.3366 49.2017 64.7834 47.2858 64.7834Z" fill="url(#paint3_radial_51235_15712)"/>
<path d="M47.2858 64.7834H35.4051C33.4893 64.7834 31.9361 66.3366 31.9361 68.2525V79.9611C31.9361 81.8769 33.4893 83.4301 35.4051 83.4301H47.2858C49.2017 83.4301 50.7548 81.8769 50.7548 79.9611V68.2525C50.7548 66.3366 49.2017 64.7834 47.2858 64.7834Z" fill="url(#paint4_linear_51235_15712)"/>
<g filter="url(#filter1_f_51235_15712)">
<path d="M48.9058 76.8571L33.1654 79.3234C32.3553 79.4503 31.8015 80.2099 31.9284 81.0201C32.0553 81.8302 32.815 82.384 33.6251 82.2571L49.3655 79.7908C50.1756 79.6638 50.7294 78.9042 50.6025 78.0941C50.4756 77.284 49.7159 76.7302 48.9058 76.8571Z" fill="#7E6693"/>
</g>
<g filter="url(#filter2_f_51235_15712)">
<path d="M48.9058 70.2773L33.1654 72.7436C32.3553 72.8705 31.8015 73.6301 31.9284 74.4402C32.0553 75.2503 32.815 75.8042 33.6251 75.6772L49.3655 73.2109C50.1756 73.084 50.7294 72.3244 50.6025 71.5143C50.4756 70.7042 49.7159 70.1503 48.9058 70.2773Z" fill="#7E6693"/>
</g>
<path d="M50.9319 76.13L31.142 79.2308C30.3076 79.3616 29.7372 80.1439 29.868 80.9782C29.9987 81.8126 30.781 82.383 31.6154 82.2522L51.4054 79.1514C52.2397 79.0207 52.8101 78.2384 52.6794 77.404C52.5486 76.5697 51.7663 75.9993 50.9319 76.13Z" fill="url(#paint5_linear_51235_15712)"/>
<path d="M50.9319 76.13L31.142 79.2308C30.3076 79.3616 29.7372 80.1439 29.868 80.9782C29.9987 81.8126 30.781 82.383 31.6154 82.2522L51.4054 79.1514C52.2397 79.0207 52.8101 78.2384 52.6794 77.404C52.5486 76.5697 51.7663 75.9993 50.9319 76.13Z" fill="url(#paint6_linear_51235_15712)"/>
<path d="M50.9319 76.13L31.142 79.2308C30.3076 79.3616 29.7372 80.1439 29.868 80.9782C29.9987 81.8126 30.781 82.383 31.6154 82.2522L51.4054 79.1514C52.2397 79.0207 52.8101 78.2384 52.6794 77.404C52.5486 76.5697 51.7663 75.9993 50.9319 76.13Z" fill="url(#paint7_linear_51235_15712)"/>
<path d="M50.9319 76.13L31.142 79.2308C30.3076 79.3616 29.7372 80.1439 29.868 80.9782C29.9987 81.8126 30.781 82.383 31.6154 82.2522L51.4054 79.1514C52.2397 79.0207 52.8101 78.2384 52.6794 77.404C52.5486 76.5697 51.7663 75.9993 50.9319 76.13Z" fill="url(#paint8_radial_51235_15712)"/>
<path d="M50.932 69.5331L31.142 72.6339C30.3076 72.7646 29.7372 73.547 29.868 74.3813C29.9987 75.2156 30.781 75.786 31.6154 75.6553L51.4054 72.5545C52.2397 72.4238 52.8101 71.6414 52.6794 70.8071C52.5486 69.9728 51.7663 69.4024 50.932 69.5331Z" fill="url(#paint9_linear_51235_15712)"/>
<path d="M50.932 69.5331L31.142 72.6339C30.3076 72.7646 29.7372 73.547 29.868 74.3813C29.9987 75.2156 30.781 75.786 31.6154 75.6553L51.4054 72.5545C52.2397 72.4238 52.8101 71.6414 52.6794 70.8071C52.5486 69.9728 51.7663 69.4024 50.932 69.5331Z" fill="url(#paint10_linear_51235_15712)"/>
<path d="M50.932 69.5331L31.142 72.6339C30.3076 72.7646 29.7372 73.547 29.868 74.3813C29.9987 75.2156 30.781 75.786 31.6154 75.6553L51.4054 72.5545C52.2397 72.4238 52.8101 71.6414 52.6794 70.8071C52.5486 69.9728 51.7663 69.4024 50.932 69.5331Z" fill="url(#paint11_linear_51235_15712)"/>
<path d="M50.932 69.5331L31.142 72.6339C30.3076 72.7646 29.7372 73.547 29.868 74.3813C29.9987 75.2156 30.781 75.786 31.6154 75.6553L51.4054 72.5545C52.2397 72.4238 52.8101 71.6414 52.6794 70.8071C52.5486 69.9728 51.7663 69.4024 50.932 69.5331Z" fill="url(#paint12_radial_51235_15712)"/>
<g filter="url(#filter3_i_51235_15712)">
<path d="M40.9591 66.9954H41.109C42.652 66.987 46.1987 66.9288 47.6224 66.6707C49.1487 66.3931 49.3458 65.63 49.6177 64.4366C51.2884 57.0712 54.0914 54.2405 55.9674 52.3478C56.2579 52.0574 56.5225 51.7835 56.7611 51.5264C57.5743 50.6328 58.2792 49.8446 58.8148 49.2368C62.021 45.8326 64.1628 41.5659 64.9771 36.961C65.7914 32.3561 65.2426 27.6136 63.3983 23.3163C61.5539 19.019 58.4943 15.3542 54.5954 12.7721C50.6965 10.1901 46.1283 8.80331 41.4519 8.78223C36.7756 8.76115 32.195 10.1067 28.273 12.6535C24.351 15.2003 21.2585 18.8374 19.3755 23.1179C17.4925 27.3983 16.901 32.1357 17.6737 36.7478C18.4464 41.3598 20.5497 45.6457 23.7251 49.0786C24.2801 49.7058 25.035 50.5523 25.923 51.5264C26.1795 51.8079 26.4442 52.0818 26.7167 52.3478C28.59 54.2405 31.3957 57.074 33.0664 64.4366C33.3384 65.63 33.5354 66.3931 35.0618 66.6707C36.4799 66.9288 39.3523 66.987 40.8065 66.9926L40.9591 66.9954Z" fill="url(#paint13_radial_51235_15712)"/>
<path d="M40.9591 66.9954H41.109C42.652 66.987 46.1987 66.9288 47.6224 66.6707C49.1487 66.3931 49.3458 65.63 49.6177 64.4366C51.2884 57.0712 54.0914 54.2405 55.9674 52.3478C56.2579 52.0574 56.5225 51.7835 56.7611 51.5264C57.5743 50.6328 58.2792 49.8446 58.8148 49.2368C62.021 45.8326 64.1628 41.5659 64.9771 36.961C65.7914 32.3561 65.2426 27.6136 63.3983 23.3163C61.5539 19.019 58.4943 15.3542 54.5954 12.7721C50.6965 10.1901 46.1283 8.80331 41.4519 8.78223C36.7756 8.76115 32.195 10.1067 28.273 12.6535C24.351 15.2003 21.2585 18.8374 19.3755 23.1179C17.4925 27.3983 16.901 32.1357 17.6737 36.7478C18.4464 41.3598 20.5497 45.6457 23.7251 49.0786C24.2801 49.7058 25.035 50.5523 25.923 51.5264C26.1795 51.8079 26.4442 52.0818 26.7167 52.3478C28.59 54.2405 31.3957 57.074 33.0664 64.4366C33.3384 65.63 33.5354 66.3931 35.0618 66.6707C36.4799 66.9288 39.3523 66.987 40.8065 66.9926L40.9591 66.9954Z" fill="url(#paint14_radial_51235_15712)"/>
</g>
<path d="M45.6626 31.7833C50.7635 31.7833 54.8985 27.6483 54.8985 22.5474C54.8985 17.4466 50.7635 13.3115 45.6626 13.3115C40.5618 13.3115 36.4268 17.4466 36.4268 22.5474C36.4268 27.6483 40.5618 31.7833 45.6626 31.7833Z" fill="url(#paint15_linear_51235_15712)"/>
<g filter="url(#filter4_i_51235_15712)">
<path d="M40.1592 66.9871C40.062 60.9594 39.5819 56.9908 38.8493 54.2267C38.0084 51.0436 36.8289 49.4534 35.5801 48.1962L35.5662 48.1795L35.5495 48.1657C34.3454 47.0267 33.5107 45.5526 33.1535 43.934C32.7963 42.3155 32.933 40.627 33.5459 39.087C34.1588 37.547 35.2198 36.2264 36.5915 35.2959C37.9632 34.3655 39.5826 33.8681 41.2401 33.8681C42.8976 33.8681 44.517 34.3655 45.8887 35.2959C47.2604 36.2264 48.3213 37.547 48.9343 39.087C49.5472 40.627 49.6839 42.3155 49.3267 43.934C48.9695 45.5526 48.1348 47.0267 46.9307 48.1657L46.914 48.1795L46.8974 48.1962C45.6735 49.4339 44.4774 50.9159 43.6254 54.0741C42.8872 56.8077 42.4043 60.7901 42.3072 66.9816C43.1453 66.9677 44.1471 66.9427 45.0851 66.8983C45.1851 60.8817 45.6568 57.1962 46.3062 54.7984C47.0056 52.198 47.9075 51.1213 48.8539 50.1638C50.4568 48.6411 51.5663 46.6727 52.0392 44.513C52.5121 42.3533 52.3267 40.1014 51.5069 38.0481C50.6871 35.9948 49.2705 34.2345 47.4401 32.9944C45.6097 31.7544 43.4496 31.0916 41.2387 31.0916C39.0278 31.0916 36.8677 31.7544 35.0373 32.9944C33.2069 34.2345 31.7904 35.9948 30.9705 38.0481C30.1507 40.1014 29.9653 42.3533 30.4382 44.513C30.9111 46.6727 32.0207 48.6411 33.6235 50.1638C34.5477 51.0991 35.4607 52.2674 36.1684 54.9372C36.8123 57.3766 37.2785 61.0537 37.3812 66.8983C38.3442 66.9538 39.3571 66.976 40.1564 66.9871" fill="#FFAD55"/>
</g>
<g filter="url(#filter5_f_51235_15712)">
<path d="M44.0446 66.3571C44.0446 53.1166 46.0732 51.0019 48.249 48.8067C49.655 47.4769 50.6296 45.7558 51.0467 43.8661C51.4638 41.9763 51.3043 40.0048 50.5886 38.2068C49.873 36.4087 48.6343 34.8667 47.0327 33.7804C45.4311 32.694 43.5404 32.1133 41.6051 32.1133C39.6699 32.1133 37.7792 32.694 36.1776 33.7804C34.576 34.8667 33.3373 36.4087 32.6217 38.2068C31.906 40.0048 31.7465 41.9763 32.1636 43.8661C32.5807 45.7558 33.5553 47.4769 34.9613 48.8067C37.1371 51.0019 39.1546 54.804 39.1546 66.3571" stroke="url(#paint16_linear_51235_15712)" stroke-width="0.25"/>
</g>
</g>
<defs>
<filter id="filter0_d_51235_15712" x="-8" y="-1" width="120" height="120" filterUnits="userSpaceOnUse" color-interpolation-filters="sRGB">
<feFlood flood-opacity="0" result="BackgroundImageFix"/>
<feColorMatrix in="SourceAlpha" type="matrix" values="0 0 0 0 0 0 0 0 0 0 0 0 0 0 0 0 0 0 127 0" result="hardAlpha"/>
<feOffset dx="12" dy="12"/>
<feGaussianBlur stdDeviation="10"/>
<feComposite in2="hardAlpha" operator="out"/>
<feColorMatrix type="matrix" values="0 0 0 0 1 0 0 0 0 0.690196 0 0 0 0 0.180392 0 0 0 0.2 0"/>
<feBlend mode="normal" in2="BackgroundImageFix" result="effect1_dropShadow_51235_15712"/>
<feBlend mode="normal" in="SourceGraphic" in2="effect1_dropShadow_51235_15712" result="shape"/>
</filter>
<filter id="filter1_f_51235_15712" x="31.6603" y="76.5889" width="19.2103" height="5.93628" filterUnits="userSpaceOnUse" color-interpolation-filters="sRGB">
<feFlood flood-opacity="0" result="BackgroundImageFix"/>
<feBlend mode="normal" in="SourceGraphic" in2="BackgroundImageFix" result="shape"/>
<feGaussianBlur stdDeviation="0.125" result="effect1_foregroundBlur_51235_15712"/>
</filter>
<filter id="filter2_f_51235_15712" x="31.6603" y="70.009" width="19.2103" height="5.93628" filterUnits="userSpaceOnUse" color-interpolation-filters="sRGB">
<feFlood flood-opacity="0" result="BackgroundImageFix"/>
<feBlend mode="normal" in="SourceGraphic" in2="BackgroundImageFix" result="shape"/>
<feGaussianBlur stdDeviation="0.125" result="effect1_foregroundBlur_51235_15712"/>
</filter>
<filter id="filter3_i_51235_15712" x="17.3438" y="8.78198" width="48.25" height="58.3634" filterUnits="userSpaceOnUse" color-interpolation-filters="sRGB">
<feFlood flood-opacity="0" result="BackgroundImageFix"/>
<feBlend mode="normal" in="SourceGraphic" in2="BackgroundImageFix" result="shape"/>
<feColorMatrix in="SourceAlpha" type="matrix" values="0 0 0 0 0 0 0 0 0 0 0 0 0 0 0 0 0 0 127 0" result="hardAlpha"/>
<feOffset dx="0.25" dy="0.15"/>
<feGaussianBlur stdDeviation="0.5"/>
<feComposite in2="hardAlpha" operator="arithmetic" k2="-1" k3="1"/>
<feColorMatrix type="matrix" values="0 0 0 0 0.992157 0 0 0 0 0.666667 0 0 0 0 0.309804 0 0 0 1 0"/>
<feBlend mode="normal" in2="shape" result="effect1_innerShadow_51235_15712"/>
</filter>
<filter id="filter4_i_51235_15712" x="30.1823" y="31.0916" width="22.3629" height="35.8955" filterUnits="userSpaceOnUse" color-interpolation-filters="sRGB">
<feFlood flood-opacity="0" result="BackgroundImageFix"/>
<feBlend mode="normal" in="SourceGraphic" in2="BackgroundImageFix" result="shape"/>
<feColorMatrix in="SourceAlpha" type="matrix" values="0 0 0 0 0 0 0 0 0 0 0 0 0 0 0 0 0 0 127 0" result="hardAlpha"/>
<feOffset dx="0.25"/>
<feGaussianBlur stdDeviation="0.25"/>
<feComposite in2="hardAlpha" operator="arithmetic" k2="-1" k3="1"/>
<feColorMatrix type="matrix" values="0 0 0 0 1 0 0 0 0 0.572549 0 0 0 0 0.254902 0 0 0 1 0"/>
<feBlend mode="normal" in2="shape" result="effect1_innerShadow_51235_15712"/>
</filter>
<filter id="filter5_f_51235_15712" x="31.5613" y="31.7383" width="20.0876" height="34.8689" filterUnits="userSpaceOnUse" color-interpolation-filters="sRGB">
<feFlood flood-opacity="0" result="BackgroundImageFix"/>
<feBlend mode="normal" in="SourceGraphic" in2="BackgroundImageFix" result="shape"/>
<feGaussianBlur stdDeviation="0.125" result="effect1_foregroundBlur_51235_15712"/>
</filter>
<radialGradient id="paint0_radial_51235_15712" cx="0" cy="0" r="1" gradientUnits="userSpaceOnUse" gradientTransform="translate(42.5412 84.0379) rotate(96.6541) scale(2.6194 6.06698)">
<stop offset="0.268" stop-color="#AC90C6"/>
<stop offset="1" stop-color="#8E6AAA"/>
</radialGradient>
<linearGradient id="paint1_linear_51235_15712" x1="50.7548" y1="74.8574" x2="31.9361" y2="74.8574" gradientUnits="userSpaceOnUse">
<stop stop-color="#CDC2D1"/>
<stop offset="1" stop-color="#947C8D"/>
</linearGradient>
<linearGradient id="paint2_linear_51235_15712" x1="31.0064" y1="76.2756" x2="35.6022" y2="76.2756" gradientUnits="userSpaceOnUse">
<stop stop-color="#8A7B88"/>
<stop offset="1" stop-color="#8A7B88" stop-opacity="0"/>
</linearGradient>
<radialGradient id="paint3_radial_51235_15712" cx="0" cy="0" r="1" gradientUnits="userSpaceOnUse" gradientTransform="translate(45.2266 66.0822) rotate(88.6357) scale(2.2892 10.1917)">
<stop offset="0.229" stop-color="#EDE2EB"/>
<stop offset="1" stop-color="#C8BCCB" stop-opacity="0"/>
</radialGradient>
<linearGradient id="paint4_linear_51235_15712" x1="45.6623" y1="83.4301" x2="45.6623" y2="79.9166" gradientUnits="userSpaceOnUse">
<stop stop-color="#7E5F9E"/>
<stop offset="1" stop-color="#7E5F9E" stop-opacity="0"/>
</linearGradient>
<linearGradient id="paint5_linear_51235_15712" x1="40.7639" y1="77.7485" x2="41.5025" y2="81.0458" gradientUnits="userSpaceOnUse">
<stop stop-color="#B1969A"/>
<stop offset="1" stop-color="#DAD2E2"/>
</linearGradient>
<linearGradient id="paint6_linear_51235_15712" x1="43.8858" y1="80.265" x2="43.5405" y2="78.0972" gradientUnits="userSpaceOnUse">
<stop stop-color="#8A68A9"/>
<stop offset="1" stop-color="#DEC2E3" stop-opacity="0"/>
</linearGradient>
<linearGradient id="paint7_linear_51235_15712" x1="29.6302" y1="81.2177" x2="37.2079" y2="79.6147" gradientUnits="userSpaceOnUse">
<stop stop-color="#958387"/>
<stop offset="1" stop-color="#958387" stop-opacity="0"/>
</linearGradient>
<radialGradient id="paint8_radial_51235_15712" cx="0" cy="0" r="1" gradientUnits="userSpaceOnUse" gradientTransform="translate(48.6976 77.5391) rotate(81.4165) scale(2.32427 13.757)">
<stop offset="0.127" stop-color="#FCF0FC"/>
<stop offset="1" stop-color="#E5C9E3" stop-opacity="0"/>
</radialGradient>
<linearGradient id="paint9_linear_51235_15712" x1="40.7643" y1="71.1543" x2="41.5025" y2="74.4489" gradientUnits="userSpaceOnUse">
<stop stop-color="#B1969A"/>
<stop offset="1" stop-color="#DAD2E2"/>
</linearGradient>
<linearGradient id="paint10_linear_51235_15712" x1="43.8858" y1="73.6681" x2="43.5405" y2="71.5002" gradientUnits="userSpaceOnUse">
<stop stop-color="#8A68A9"/>
<stop offset="1" stop-color="#DEC2E3" stop-opacity="0"/>
</linearGradient>
<linearGradient id="paint11_linear_51235_15712" x1="29.6306" y1="74.6236" x2="37.2079" y2="73.0178" gradientUnits="userSpaceOnUse">
<stop stop-color="#958387"/>
<stop offset="1" stop-color="#958387" stop-opacity="0"/>
</linearGradient>
<radialGradient id="paint12_radial_51235_15712" cx="0" cy="0" r="1" gradientUnits="userSpaceOnUse" gradientTransform="translate(48.6976 70.9422) rotate(81.4165) scale(2.32427 13.7569)">
<stop offset="0.127" stop-color="#FCF0FC"/>
<stop offset="1" stop-color="#E5C9E3" stop-opacity="0"/>
</radialGradient>
<radialGradient id="paint13_radial_51235_15712" cx="0" cy="0" r="1" gradientUnits="userSpaceOnUse" gradientTransform="translate(51.4742 25.8032) rotate(138.066) scale(27.5125 22.6866)">
<stop offset="0.286" stop-color="#FFEC87"/>
<stop offset="1" stop-color="#FFCD4B"/>
</radialGradient>
<radialGradient id="paint14_radial_51235_15712" cx="0" cy="0" r="1" gradientUnits="userSpaceOnUse" gradientTransform="translate(54.0747 40.5449) rotate(-147.604) scale(40.4678 38.9245)">
<stop offset="0.622" stop-color="#FFB239" stop-opacity="0"/>
<stop offset="1" stop-color="#FFB239"/>
</radialGradient>
<linearGradient id="paint15_linear_51235_15712" x1="42.4323" y1="25.528" x2="51.9291" y2="18.1293" gradientUnits="userSpaceOnUse">
<stop stop-color="white" stop-opacity="0"/>
<stop offset="0.594" stop-color="white"/>
</linearGradient>
<linearGradient id="paint16_linear_51235_15712" x1="51.9289" y1="33.7707" x2="40.8114" y2="60.2545" gradientUnits="userSpaceOnUse">
<stop stop-color="#FFBF5C"/>
<stop offset="1" stop-color="#FFBF5C" stop-opacity="0"/>
</linearGradient>
</defs>
</svg>
