<svg width="24" height="25" viewBox="0 0 24 25" fill="none" xmlns="http://www.w3.org/2000/svg">
<path d="M16.8395 6.29639C17.2192 6.29639 17.533 6.57854 17.5827 6.94462L17.5895 7.04639V20.6642C17.5895 21.0784 17.2538 21.4142 16.8395 21.4142C16.4598 21.4142 16.146 21.132 16.0964 20.7659L16.0895 20.6642V7.04639C16.0895 6.63217 16.4253 6.29639 16.8395 6.29639Z" fill="#212121"/>
<path d="M20.3857 16.039C20.6779 15.7454 21.1527 15.7443 21.4463 16.0366C21.7132 16.3022 21.7384 16.7188 21.5212 17.0129L21.4488 17.0972L17.371 21.1939C17.1045 21.4616 16.6862 21.486 16.3921 21.2669L16.3079 21.1939L12.2301 17.0972C11.9379 16.8036 11.939 16.3288 12.2326 16.0366C12.4994 15.7709 12.9162 15.7477 13.2093 15.9662L13.2932 16.039L16.839 19.601L20.3857 16.039Z" fill="#212121"/>
<path d="M6.9111 3.58276C7.2908 3.58276 7.60459 3.86492 7.65426 4.23099L7.6611 4.33276V17.9505C7.6611 18.3648 7.32532 18.7005 6.9111 18.7005C6.53141 18.7005 6.21761 18.4184 6.16795 18.0523L6.1611 17.9505V4.33276C6.1611 3.91855 6.49689 3.58276 6.9111 3.58276Z" fill="#212121"/>
<path d="M6.37966 3.80317C6.64618 3.53542 7.06443 3.51108 7.35854 3.73015L7.44277 3.80317L11.5205 7.89984C11.8128 8.19341 11.8117 8.66828 11.5181 8.9605C11.2512 9.22615 10.8345 9.24939 10.5414 9.03086L10.4574 8.95805L6.91099 5.39494L3.36499 8.95805C3.09934 9.22493 2.68273 9.2501 2.38862 9.03292L2.30433 8.9605C2.03745 8.69485 2.01228 8.27824 2.22946 7.98412L2.30188 7.89984L6.37966 3.80317Z" fill="#212121"/>
</svg>
