<svg width="46" height="28" viewBox="0 0 46 28" fill="none" xmlns="http://www.w3.org/2000/svg">
<g clip-path="url(#clip0_12462_31924)">
<path d="M29.2189 2.99414H16.7811V25.0053H29.2189V2.99414Z" fill="#FF5F00"/>
<path d="M17.5708 13.9998C17.5708 9.72204 19.5845 5.63871 22.9802 2.99426C16.8206 -1.78907 7.89699 -0.73907 3.04033 5.36649C-1.81632 11.4332 -0.750224 20.222 5.44892 25.0054C10.6215 29.0109 17.8472 29.0109 23.0197 25.0054C19.5845 22.3609 17.5708 18.2776 17.5708 13.9998Z" fill="#EB001B"/>
<path d="M46 13.9998C46 21.7387 39.643 27.9998 31.7854 27.9998C28.5872 27.9998 25.5073 26.9498 23.0198 25.0054C29.1794 20.222 30.2455 11.4332 25.3889 5.3276C24.6781 4.47204 23.8884 3.65537 23.0198 2.99426C29.1794 -1.78907 38.1425 -0.73907 42.9597 5.36649C44.9339 7.81649 46 10.8498 46 13.9998Z" fill="#F79E1B"/>
<path d="M44.6575 22.6719V22.2052H44.8549V22.1274H44.3811V22.2052H44.5785V22.6719H44.6575ZM45.5657 22.6719V22.1274H45.4077L45.2498 22.5163L45.0918 22.1274H44.9339V22.6719H45.0523V22.2441L45.2103 22.5941H45.3287L45.4867 22.2441V22.6719H45.5657Z" fill="#F79E1B"/>
</g>
<defs>
<clipPath id="clip0_12462_31924">
<rect width="46" height="28" fill="white"/>
</clipPath>
</defs>
</svg>
