<svg width="21" height="22" viewBox="0 0 21 22" fill="none" xmlns="http://www.w3.org/2000/svg">
<mask id="mask0_51377_21371" style="mask-type:luminance" maskUnits="userSpaceOnUse" x="0" y="1" width="15" height="16">
<path fill-rule="evenodd" clip-rule="evenodd" d="M0.5 1.36768H14.5393V16.7516H0.5V1.36768Z" fill="white"/>
</mask>
<g mask="url(#mask0_51377_21371)">
<path fill-rule="evenodd" clip-rule="evenodd" d="M11.2689 3.12964C10.2586 3.12964 8.9601 4.19831 7.87976 5.08731C6.84143 5.94131 6.02243 6.61564 5.19993 6.68097C4.83243 6.70897 4.51743 6.72181 4.23976 6.73231C3.3776 6.76381 3.15943 6.78481 2.7721 7.11614C2.2436 7.56764 2.24826 9.37364 2.2506 10.4516L2.25176 10.7386L2.2506 11.0268C2.24826 12.1048 2.2436 13.9108 2.7721 14.3623C3.1676 14.7006 3.3916 14.7216 4.27476 14.752C4.54193 14.7613 4.8441 14.7718 5.19293 14.7963C5.29326 14.8033 5.39593 14.8196 5.50093 14.8453L12.7786 7.56764C12.6934 4.97181 12.4309 3.80747 11.8126 3.25447C11.6446 3.16814 11.4626 3.12964 11.2689 3.12964ZM5.70743 16.7516C5.55693 16.7516 5.40643 16.7131 5.26993 16.6338C5.12993 16.5533 5.06576 16.5416 5.06576 16.5416C4.74376 16.5195 4.46376 16.509 4.2141 16.5008C3.2621 16.4681 2.5096 16.4413 1.6346 15.6935C0.491262 14.7158 0.495928 12.6683 0.500595 11.0221L0.501762 10.7386L0.500595 10.4563C0.495928 8.81014 0.491262 6.76148 1.63576 5.78498C2.4991 5.04648 3.23876 5.01848 4.17326 4.98348C4.4311 4.97298 4.7216 4.96248 5.06226 4.93564C5.3551 4.89831 6.2056 4.19831 6.76793 3.73631C8.40826 2.38414 10.6564 0.533808 12.7588 1.77981C12.7973 1.80081 12.8334 1.82647 12.8673 1.85448C14.1786 2.92198 14.4586 4.72798 14.5391 7.89781C14.5449 8.13698 14.4528 8.36798 14.2824 8.53831L6.32693 16.495C6.15776 16.6641 5.93376 16.7516 5.70743 16.7516Z" fill="#212121"/>
</g>
<path fill-rule="evenodd" clip-rule="evenodd" d="M11.2717 20.1102C10.0933 20.1102 8.9745 19.4277 8.145 18.8268C7.753 18.5445 7.6655 17.9973 7.94783 17.6065C8.2325 17.2145 8.77966 17.1247 9.1705 17.4105C10.7023 18.5177 11.393 18.4442 11.8118 18.2248C12.4908 17.6193 12.7487 16.2567 12.7883 13.0997C12.7953 12.6167 13.1488 12.241 13.675 12.2363C14.158 12.2433 14.5453 12.64 14.5383 13.123C14.494 16.5705 14.2233 18.5223 12.8665 19.6248C12.8315 19.6517 12.7965 19.6773 12.7592 19.6983C12.2645 19.9912 11.7628 20.1102 11.2717 20.1102Z" fill="#212121"/>
<mask id="mask1_51377_21371" style="mask-type:luminance" maskUnits="userSpaceOnUse" x="0" y="0" width="21" height="22">
<path fill-rule="evenodd" clip-rule="evenodd" d="M0.502075 0.666992H20.9167V21.0834H0.502075V0.666992Z" fill="white"/>
</mask>
<g mask="url(#mask1_51377_21371)">
<path fill-rule="evenodd" clip-rule="evenodd" d="M1.37678 21.0834C1.15278 21.0834 0.928784 20.9982 0.75845 20.8267C0.416617 20.4849 0.416617 19.9319 0.75845 19.59L19.424 0.923367C19.7658 0.581534 20.3188 0.581534 20.6606 0.923367C21.0025 1.2652 21.0025 1.8182 20.6606 2.16003L1.99512 20.8267C1.82478 20.9982 1.60078 21.0834 1.37678 21.0834Z" fill="#212121"/>
</g>
</svg>
