<svg width="21" height="21" viewBox="0 0 21 21" fill="none" xmlns="http://www.w3.org/2000/svg">
<path fill-rule="evenodd" clip-rule="evenodd" d="M15.3597 0.094262C16.8581 0.000608876 18.3358 0.520904 19.4492 1.54068C20.469 2.65411 20.9893 4.13175 20.906 5.64061V15.3597C20.9997 16.8686 20.469 18.3462 19.4596 19.4596C18.3462 20.4794 16.8581 20.9997 15.3597 20.9061H5.64047C4.1316 20.9997 2.65395 20.4794 1.54051 19.4596C0.520724 18.3462 0.000425108 16.8686 0.094079 15.3597V5.64061C0.000425108 4.13175 0.520724 2.65411 1.54051 1.54068C2.65395 0.520904 4.1316 0.000608876 5.64047 0.094262H15.3597ZM9.43865 15.547L16.4419 8.52304C17.0766 7.87788 17.0766 6.83729 16.4419 6.20253L15.0891 4.84976C14.4439 4.20459 13.4033 4.20459 12.7582 4.84976L12.061 5.55736C11.9569 5.66142 11.9569 5.83832 12.061 5.94238C12.061 5.94238 13.7155 7.58651 13.7467 7.62813C13.8612 7.75301 13.934 7.9195 13.934 8.10681C13.934 8.48142 13.6323 8.79359 13.2472 8.79359C13.0703 8.79359 12.9038 8.72075 12.7894 8.60629L11.0516 6.87891C10.9683 6.79566 10.8226 6.79566 10.7394 6.87891L5.77575 11.8425C5.43235 12.1859 5.23464 12.6438 5.22423 13.1329L5.16179 15.5991C5.16179 15.7343 5.20342 15.8592 5.29707 15.9529C5.39073 16.0465 5.5156 16.0985 5.65088 16.0985H8.09628C8.59577 16.0985 9.07444 15.9008 9.43865 15.547Z" fill="#FF699C"/>
</svg>
