<svg width="16" height="17" viewBox="0 0 16 17" fill="none" xmlns="http://www.w3.org/2000/svg">
<path fill-rule="evenodd" clip-rule="evenodd" d="M13.8339 15.2532H8.99854C8.72254 15.2532 8.49854 15.0292 8.49854 14.7532C8.49854 14.4772 8.72254 14.2532 8.99854 14.2532H13.8339C14.1099 14.2532 14.3339 14.4772 14.3339 14.7532C14.3339 15.0292 14.1099 15.2532 13.8339 15.2532Z" fill="#212121"/>
<mask id="mask0_50887_25522" style="mask-type:luminance" maskUnits="userSpaceOnUse" x="1" y="2" width="12" height="14">
<path fill-rule="evenodd" clip-rule="evenodd" d="M1.3335 2.62671H12.7872V15.2531H1.3335V2.62671Z" fill="white"/>
</mask>
<g mask="url(#mask0_50887_25522)">
<path fill-rule="evenodd" clip-rule="evenodd" d="M8.74035 3.97114L2.46368 11.8211C2.34968 11.9638 2.30768 12.1478 2.34968 12.3245L2.80368 14.2478L4.82968 14.2225C5.02235 14.2205 5.20035 14.1345 5.31835 13.9878C7.46301 11.3045 11.5517 6.18847 11.6677 6.03847C11.777 5.86114 11.8197 5.61047 11.7623 5.36914C11.7037 5.1218 11.5497 4.9118 11.3277 4.7778C11.2803 4.74514 10.157 3.87314 10.1223 3.8458C9.69968 3.50714 9.08301 3.5658 8.74035 3.97114ZM2.40901 15.2531C2.17768 15.2531 1.97635 15.0945 1.92235 14.8685L1.37635 12.5545C1.26368 12.0751 1.37568 11.5805 1.68301 11.1965L7.96301 3.3418C7.96568 3.33914 7.96768 3.3358 7.97035 3.33314C8.65901 2.5098 9.90435 2.38847 10.7443 3.06247C10.7777 3.08847 11.893 3.95514 11.893 3.95514C12.2983 4.19647 12.615 4.6278 12.735 5.13847C12.8543 5.6438 12.7677 6.16514 12.4897 6.6058C12.469 6.63847 12.451 6.66647 6.09901 14.6131C5.79301 14.9945 5.33435 15.2165 4.84168 15.2225L2.41568 15.2531H2.40901Z" fill="#212121"/>
</g>
<path fill-rule="evenodd" clip-rule="evenodd" d="M10.8155 8.41654C10.7089 8.41654 10.6022 8.38254 10.5109 8.31321L6.8762 5.52121C6.65753 5.35321 6.6162 5.03987 6.7842 4.81987C6.95286 4.60121 7.2662 4.56054 7.48553 4.72854L11.1209 7.51987C11.3395 7.68787 11.3809 8.00187 11.2122 8.22121C11.1142 8.34921 10.9655 8.41654 10.8155 8.41654Z" fill="#212121"/>
</svg>
