<svg width="65" height="99" viewBox="0 0 65 99" fill="none" xmlns="http://www.w3.org/2000/svg">
    <path
        d="M0.5 16.8C0.5 10.9194 0.5 7.97917 1.64443 5.7331C2.6511 3.7574 4.2574 2.1511 6.2331 1.14443C8.47917 0 11.4194 0 17.3 0H47.45C53.3306 0 56.2708 0 58.5169 1.14443C60.4926 2.1511 62.0989 3.7574 63.1056 5.7331C64.25 7.97917 64.25 10.9194 64.25 16.8V114.45C64.25 120.331 64.25 123.271 63.1056 125.517C62.0989 127.493 60.4926 129.099 58.5169 130.106C56.2708 131.25 53.3306 131.25 47.45 131.25H17.3C11.4194 131.25 8.47917 131.25 6.2331 130.106C4.2574 129.099 2.6511 127.493 1.64443 125.517C0.5 123.271 0.5 120.331 0.5 114.45V16.8Z"
        fill="#212121" />
    <path
        d="M3.5 15C3.5 10.7996 3.5 8.69941 4.31745 7.09507C5.0365 5.68386 6.18386 4.5365 7.59507 3.81745C9.19941 3 11.2996 3 15.5 3H49.25C53.4504 3 55.5506 3 57.1549 3.81745C58.5661 4.5365 59.7135 5.68386 60.4325 7.09507C61.25 8.69941 61.25 10.7996 61.25 15V116.25C61.25 120.45 61.25 122.551 60.4325 124.155C59.7135 125.566 58.5661 126.713 57.1549 127.433C55.5506 128.25 53.4504 128.25 49.25 128.25H15.5C11.2996 128.25 9.19941 128.25 7.59507 127.433C6.18386 126.713 5.0365 125.566 4.31745 124.155C3.5 122.551 3.5 120.45 3.5 116.25V15Z"
        fill="white" />
    <rect x="23" y="4.50586" width="19.5" height="6.00725" rx="3.00363" fill="#212121" />
</svg>