<svg width="110" height="110" viewBox="0 0 110 110" fill="none" xmlns="http://www.w3.org/2000/svg">
<g filter="url(#filter0_d_51235_19388)">
<g filter="url(#filter1_i_51235_19388)">
<path d="M45.0925 13.9751C48.664 10.4036 53.5079 8.39722 58.5587 8.39722C63.6096 8.39722 68.4535 10.4036 72.025 13.9751C75.5965 17.5466 77.6029 22.3905 77.6029 27.4414C77.6029 32.4922 75.5965 37.3361 72.025 40.9076L40.9075 72.0251C39.1391 73.7935 37.0397 75.1963 34.7291 76.1534C32.4186 77.1104 29.9422 77.603 27.4412 77.603C22.3904 77.603 17.5465 75.5966 13.975 72.0251C10.4035 68.4537 8.39709 63.6097 8.39709 58.5589C8.39709 53.508 10.4035 48.6641 13.975 45.0926L45.0925 13.9751Z" fill="url(#paint0_linear_51235_19388)"/>
<path d="M45.0925 13.9751C48.664 10.4036 53.5079 8.39722 58.5587 8.39722C63.6096 8.39722 68.4535 10.4036 72.025 13.9751C75.5965 17.5466 77.6029 22.3905 77.6029 27.4414C77.6029 32.4922 75.5965 37.3361 72.025 40.9076L40.9075 72.0251C39.1391 73.7935 37.0397 75.1963 34.7291 76.1534C32.4186 77.1104 29.9422 77.603 27.4412 77.603C22.3904 77.603 17.5465 75.5966 13.975 72.0251C10.4035 68.4537 8.39709 63.6097 8.39709 58.5589C8.39709 53.508 10.4035 48.6641 13.975 45.0926L45.0925 13.9751Z" fill="url(#paint1_radial_51235_19388)"/>
<path d="M45.0925 13.9751C48.664 10.4036 53.5079 8.39722 58.5587 8.39722C63.6096 8.39722 68.4535 10.4036 72.025 13.9751C75.5965 17.5466 77.6029 22.3905 77.6029 27.4414C77.6029 32.4922 75.5965 37.3361 72.025 40.9076L40.9075 72.0251C39.1391 73.7935 37.0397 75.1963 34.7291 76.1534C32.4186 77.1104 29.9422 77.603 27.4412 77.603C22.3904 77.603 17.5465 75.5966 13.975 72.0251C10.4035 68.4537 8.39709 63.6097 8.39709 58.5589C8.39709 53.508 10.4035 48.6641 13.975 45.0926L45.0925 13.9751Z" fill="url(#paint2_radial_51235_19388)"/>
</g>
<path d="M45.0925 13.9751C48.664 10.4036 53.5079 8.39722 58.5587 8.39722C63.6096 8.39722 68.4535 10.4036 72.025 13.9751C75.5965 17.5466 77.6029 22.3905 77.6029 27.4414C77.6029 32.4922 75.5965 37.3361 72.025 40.9076L40.9075 72.0251C39.1391 73.7935 37.0397 75.1963 34.7291 76.1534C32.4186 77.1104 29.9422 77.603 27.4412 77.603C22.3904 77.603 17.5465 75.5966 13.975 72.0251C10.4035 68.4537 8.39709 63.6097 8.39709 58.5589C8.39709 53.508 10.4035 48.6641 13.975 45.0926L45.0925 13.9751Z" fill="url(#paint3_radial_51235_19388)"/>
<path d="M56.4275 56.5027L29.5 29.5727L45.095 13.9752C48.6665 10.4041 53.5103 8.39796 58.5609 8.39819C63.6115 8.39843 68.4551 10.405 72.0262 13.9765C75.5974 17.5479 77.6035 22.3918 77.6033 27.4423C77.603 32.4929 75.5965 37.3366 72.025 40.9077L56.4275 56.5027Z" fill="url(#paint4_linear_51235_19388)"/>
<path d="M56.4275 56.5027L29.5 29.5727L45.095 13.9752C48.6665 10.4041 53.5103 8.39796 58.5609 8.39819C63.6115 8.39843 68.4551 10.405 72.0262 13.9765C75.5974 17.5479 77.6035 22.3918 77.6033 27.4423C77.603 32.4929 75.5965 37.3366 72.025 40.9077L56.4275 56.5027Z" fill="url(#paint5_linear_51235_19388)"/>
<path d="M56.4275 56.5027L29.5 29.5727L45.095 13.9752C48.6665 10.4041 53.5103 8.39796 58.5609 8.39819C63.6115 8.39843 68.4551 10.405 72.0262 13.9765C75.5974 17.5479 77.6035 22.3918 77.6033 27.4423C77.603 32.4929 75.5965 37.3366 72.025 40.9077L56.4275 56.5027Z" fill="url(#paint6_radial_51235_19388)"/>
<path d="M56.4275 56.5027L29.5 29.5727L45.095 13.9752C48.6665 10.4041 53.5103 8.39796 58.5609 8.39819C63.6115 8.39843 68.4551 10.405 72.0262 13.9765C75.5974 17.5479 77.6035 22.3918 77.6033 27.4423C77.603 32.4929 75.5965 37.3366 72.025 40.9077L56.4275 56.5027Z" fill="url(#paint7_linear_51235_19388)"/>
<path d="M67.5675 32.565C70.1563 32.565 72.255 29.9761 72.255 26.7825C72.255 23.5889 70.1563 21 67.5675 21C64.9787 21 62.88 23.5889 62.88 26.7825C62.88 29.9761 64.9787 32.565 67.5675 32.565Z" fill="url(#paint8_linear_51235_19388)"/>
</g>
<defs>
<filter id="filter0_d_51235_19388" x="-5" y="-5" width="120" height="120" filterUnits="userSpaceOnUse" color-interpolation-filters="sRGB">
<feFlood flood-opacity="0" result="BackgroundImageFix"/>
<feColorMatrix in="SourceAlpha" type="matrix" values="0 0 0 0 0 0 0 0 0 0 0 0 0 0 0 0 0 0 127 0" result="hardAlpha"/>
<feOffset dx="12" dy="12"/>
<feGaussianBlur stdDeviation="10"/>
<feComposite in2="hardAlpha" operator="out"/>
<feColorMatrix type="matrix" values="0 0 0 0 0.992157 0 0 0 0 0.666667 0 0 0 0 0.360784 0 0 0 0.2 0"/>
<feBlend mode="normal" in2="BackgroundImageFix" result="effect1_dropShadow_51235_19388"/>
<feBlend mode="normal" in="SourceGraphic" in2="effect1_dropShadow_51235_19388" result="shape"/>
</filter>
<filter id="filter1_i_51235_19388" x="8.39709" y="8.39722" width="70.7058" height="70.7058" filterUnits="userSpaceOnUse" color-interpolation-filters="sRGB">
<feFlood flood-opacity="0" result="BackgroundImageFix"/>
<feBlend mode="normal" in="SourceGraphic" in2="BackgroundImageFix" result="shape"/>
<feColorMatrix in="SourceAlpha" type="matrix" values="0 0 0 0 0 0 0 0 0 0 0 0 0 0 0 0 0 0 127 0" result="hardAlpha"/>
<feOffset dx="1.5" dy="1.5"/>
<feGaussianBlur stdDeviation="2"/>
<feComposite in2="hardAlpha" operator="arithmetic" k2="-1" k3="1"/>
<feColorMatrix type="matrix" values="0 0 0 0 0.733333 0 0 0 0 0.490196 0 0 0 0 0.266667 0 0 0 1 0"/>
<feBlend mode="normal" in2="shape" result="effect1_innerShadow_51235_19388"/>
</filter>
<linearGradient id="paint0_linear_51235_19388" x1="23.6625" y1="41.5101" x2="47.1" y2="66.6651" gradientUnits="userSpaceOnUse">
<stop stop-color="#FAA74C"/>
<stop offset="1" stop-color="#FF9E70"/>
</linearGradient>
<radialGradient id="paint1_radial_51235_19388" cx="0" cy="0" r="1" gradientUnits="userSpaceOnUse" gradientTransform="translate(38.1921 36.5099) rotate(115.907) scale(42.558 49.734)">
<stop offset="0.628" stop-color="#FF7A5B" stop-opacity="0"/>
<stop offset="1" stop-color="#FF7A5B"/>
</radialGradient>
<radialGradient id="paint2_radial_51235_19388" cx="0" cy="0" r="1" gradientUnits="userSpaceOnUse" gradientTransform="translate(47.2425 43.0001) rotate(132.752) scale(27.5907 16.3148)">
<stop stop-color="#FFB266"/>
<stop offset="1" stop-color="#FFB266" stop-opacity="0"/>
</radialGradient>
<radialGradient id="paint3_radial_51235_19388" cx="0" cy="0" r="1" gradientUnits="userSpaceOnUse" gradientTransform="translate(30.2175 41.8064) rotate(90.771) scale(37.9728 39.789)">
<stop offset="0.743" stop-color="#FF78A3" stop-opacity="0"/>
<stop offset="0.968" stop-color="#FF78A3"/>
</radialGradient>
<linearGradient id="paint4_linear_51235_19388" x1="70.38" y1="44.0102" x2="43.35" y2="16.9802" gradientUnits="userSpaceOnUse">
<stop stop-color="#FD227A"/>
<stop offset="1" stop-color="#D91E4F"/>
</linearGradient>
<linearGradient id="paint5_linear_51235_19388" x1="29.4975" y1="24.1002" x2="41.625" y2="36.5277" gradientUnits="userSpaceOnUse">
<stop stop-color="#AC3F4D"/>
<stop offset="1" stop-color="#AC3F4D" stop-opacity="0"/>
</linearGradient>
<radialGradient id="paint6_radial_51235_19388" cx="0" cy="0" r="1" gradientUnits="userSpaceOnUse" gradientTransform="translate(75.8497 22.0574) rotate(158.839) scale(16.9797 18.1593)">
<stop stop-color="#FF588F"/>
<stop offset="1" stop-color="#FF588F" stop-opacity="0"/>
</radialGradient>
<linearGradient id="paint7_linear_51235_19388" x1="67.3325" y1="49.6377" x2="58.14" y2="40.1027" gradientUnits="userSpaceOnUse">
<stop offset="0.095" stop-color="#E43A89"/>
<stop offset="1" stop-color="#E43A89" stop-opacity="0"/>
</linearGradient>
<linearGradient id="paint8_linear_51235_19388" x1="67.5675" y1="21.0025" x2="67.5675" y2="33.6975" gradientUnits="userSpaceOnUse">
<stop offset="0.077" stop-color="#FFFBFF"/>
<stop offset="1" stop-color="#FFFBFF" stop-opacity="0"/>
</linearGradient>
</defs>
</svg>
