<svg width="28" height="28" viewBox="0 0 28 28" fill="none" xmlns="http://www.w3.org/2000/svg">
<mask id="mask0_50500_27668" style="mask-type:luminance" maskUnits="userSpaceOnUse" x="2" y="2" width="24" height="24">
<path fill-rule="evenodd" clip-rule="evenodd" d="M2.33334 2.33337H25.0563V25.0565H2.33334V2.33337Z" fill="white"/>
</mask>
<g mask="url(#mask0_50500_27668)">
<path fill-rule="evenodd" clip-rule="evenodd" d="M13.6953 4.08337C8.3951 4.08337 4.0831 8.39421 4.0831 13.6944C4.0831 18.9945 8.3951 23.3065 13.6953 23.3065C18.9943 23.3065 23.3063 18.9945 23.3063 13.6944C23.3063 8.39421 18.9943 4.08337 13.6953 4.08337M13.6953 25.0565C7.43027 25.0565 2.3331 19.9594 2.3331 13.6944C2.3331 7.42937 7.43027 2.33337 13.6953 2.33337C19.9603 2.33337 25.0563 7.42937 25.0563 13.6944C25.0563 19.9594 19.9603 25.0565 13.6953 25.0565" fill="#212121"/>
</g>
<mask id="mask1_50500_27668" style="mask-type:luminance" maskUnits="userSpaceOnUse" x="20" y="20" width="6" height="7">
<path fill-rule="evenodd" clip-rule="evenodd" d="M20.1133 20.6582H25.9747V26.5087H20.1133V20.6582Z" fill="white"/>
</mask>
<g mask="url(#mask1_50500_27668)">
<path fill-rule="evenodd" clip-rule="evenodd" d="M25.0999 26.5087C24.8771 26.5087 24.6531 26.4236 24.4816 26.2532L20.3702 22.1536C20.0284 21.8117 20.0272 21.2576 20.3691 20.9157C20.7097 20.5716 21.2639 20.5739 21.6069 20.9134L25.7182 25.0142C26.0601 25.3561 26.0612 25.9091 25.7194 26.2509C25.5491 26.4236 25.3239 26.5087 25.0999 26.5087" fill="#212121"/>
</g>
</svg>
