<svg width="15" height="15" viewBox="0 0 28 28" fill="none" xmlns="http://www.w3.org/2000/svg">
<path d="M14 0C11.2311 0 8.52431 0.821086 6.22202 2.35943C3.91973 3.89776 2.12532 6.08427 1.06569 8.64243C0.00606598 11.2006 -0.271181 14.0155 0.269012 16.7313C0.809205 19.447 2.14258 21.9416 4.10051 23.8995C6.05845 25.8574 8.55301 27.1908 11.2687 27.731C13.9845 28.2712 16.7994 27.9939 19.3576 26.9343C21.9157 25.8747 24.1022 24.0803 25.6406 21.778C27.1789 19.4757 28 16.7689 28 14C27.9961 10.2882 26.5198 6.72949 23.8952 4.10483C21.2705 1.48017 17.7118 0.00391976 14 0ZM20.1465 11.5312L12.6081 19.0696C12.5081 19.1697 12.3893 19.2492 12.2586 19.3034C12.1278 19.3576 11.9877 19.3855 11.8462 19.3855C11.7046 19.3855 11.5645 19.3576 11.4338 19.3034C11.303 19.2492 11.1843 19.1697 11.0842 19.0696L7.85347 15.8388C7.65139 15.6368 7.53787 15.3627 7.53787 15.0769C7.53787 14.7911 7.65139 14.5171 7.85347 14.315C8.05554 14.1129 8.32961 13.9994 8.61539 13.9994C8.90117 13.9994 9.17524 14.1129 9.37731 14.315L11.8462 16.7852L18.6227 10.0073C18.7228 9.90725 18.8415 9.82788 18.9723 9.77373C19.103 9.71958 19.2431 9.69171 19.3846 9.69171C19.5261 9.69171 19.6662 9.71958 19.797 9.77373C19.9277 9.82788 20.0465 9.90725 20.1465 10.0073C20.2466 10.1074 20.326 10.2261 20.3801 10.3569C20.4343 10.4876 20.4621 10.6277 20.4621 10.7692C20.4621 10.9107 20.4343 11.0508 20.3801 11.1816C20.326 11.3123 20.2466 11.4311 20.1465 11.5312Z" fill="#FF699C"/>
</svg>
