<svg width="28" height="28" viewBox="0 0 28 28" fill="none" xmlns="http://www.w3.org/2000/svg">
<mask id="mask0_51261_21927" style="mask-type:luminance" maskUnits="userSpaceOnUse" x="2" y="10" width="24" height="17">
<path fill-rule="evenodd" clip-rule="evenodd" d="M2.3338 10.2599H25.6667V26.2946H2.3338V10.2599Z" fill="white"/>
</mask>
<g mask="url(#mask0_51261_21927)">
<path fill-rule="evenodd" clip-rule="evenodd" d="M20.493 26.2946H7.50797C4.65547 26.2946 2.3338 23.9741 2.3338 21.1204V15.4329C2.3338 12.5804 4.65547 10.2599 7.50797 10.2599H8.59647C9.07947 10.2599 9.47147 10.6519 9.47147 11.1349C9.47147 11.6179 9.07947 12.0099 8.59647 12.0099H7.50797C5.61913 12.0099 4.0838 13.5452 4.0838 15.4329V21.1204C4.0838 23.0092 5.61913 24.5446 7.50797 24.5446H20.493C22.3806 24.5446 23.9171 23.0092 23.9171 21.1204V15.4224C23.9171 13.5406 22.3865 12.0099 20.5058 12.0099H19.4056C18.9226 12.0099 18.5306 11.6179 18.5306 11.1349C18.5306 10.6519 18.9226 10.2599 19.4056 10.2599H20.5058C23.3513 10.2599 25.6671 12.5757 25.6671 15.4224V21.1204C25.6671 23.9741 23.3455 26.2946 20.493 26.2946Z" fill="#212121"/>
</g>
<mask id="mask1_51261_21927" style="mask-type:luminance" maskUnits="userSpaceOnUse" x="13" y="2" width="2" height="17">
<path fill-rule="evenodd" clip-rule="evenodd" d="M13.125 2.3335H14.875V18.1312H13.125V2.3335Z" fill="white"/>
</mask>
<g mask="url(#mask1_51261_21927)">
<path fill-rule="evenodd" clip-rule="evenodd" d="M14 18.1312C13.517 18.1312 13.125 17.7392 13.125 17.2562V3.20837C13.125 2.72537 13.517 2.33337 14 2.33337C14.483 2.33337 14.875 2.72537 14.875 3.20837V17.2562C14.875 17.7392 14.483 18.1312 14 18.1312Z" fill="#212121"/>
</g>
<path fill-rule="evenodd" clip-rule="evenodd" d="M10.5992 7.50015C10.3764 7.50015 10.1524 7.41499 9.98203 7.24465C9.6402 6.90399 9.63787 6.35099 9.9797 6.00799L13.3805 2.59199C13.7084 2.26182 14.2917 2.26182 14.6195 2.59199L18.0215 6.00799C18.3622 6.35099 18.361 6.90399 18.0192 7.24465C17.6762 7.58532 17.1232 7.58532 16.7825 7.24232L14 4.44932L11.2187 7.24232C11.0484 7.41499 10.8232 7.50015 10.5992 7.50015Z" fill="#212121"/>
</svg>
