<svg width="25" height="19" viewBox="0 0 25 19" fill="none" xmlns="http://www.w3.org/2000/svg">
<path fill-rule="evenodd" clip-rule="evenodd" d="M18.2191 15.0511C18.0709 15.0511 17.9216 15.0138 17.7839 14.9344C17.3651 14.6941 17.2204 14.1586 17.4607 13.7409C18.8269 11.3598 18.8269 8.39875 17.4607 6.01059C17.2204 5.59059 17.3662 5.05626 17.7851 4.81592C18.2051 4.58026 18.7382 4.72142 18.9786 5.14026C20.6527 8.06625 20.6527 11.6946 18.9786 14.6113C18.8164 14.8936 18.5224 15.0511 18.2191 15.0511Z" fill="#212121"/>
<mask id="mask0_51377_21387" style="mask-type:luminance" maskUnits="userSpaceOnUse" x="20" y="1" width="5" height="17">
<path fill-rule="evenodd" clip-rule="evenodd" d="M20.2645 1.88721H24.2313V17.8616H20.2645V1.88721Z" fill="white"/>
</mask>
<g mask="url(#mask0_51377_21387)">
<path fill-rule="evenodd" clip-rule="evenodd" d="M21.1392 17.8616C20.9665 17.8616 20.7927 17.8102 20.6398 17.7041C20.2432 17.4287 20.1452 16.8839 20.4217 16.4861C23.2135 12.4727 23.2135 7.28225 20.4217 3.26191C20.1452 2.86525 20.2432 2.32041 20.641 2.04391C21.0377 1.76741 21.5813 1.86658 21.8578 2.26441C25.023 6.81908 25.023 12.9359 21.8578 17.4871C21.6875 17.7309 21.4157 17.8616 21.1392 17.8616Z" fill="#212121"/>
</g>
<mask id="mask1_51377_21387" style="mask-type:luminance" maskUnits="userSpaceOnUse" x="0" y="0" width="15" height="19">
<path fill-rule="evenodd" clip-rule="evenodd" d="M0.333496 0.833496H14.3568V18.919H0.333496V0.833496Z" fill="white"/>
</mask>
<g mask="url(#mask1_51377_21387)">
<path fill-rule="evenodd" clip-rule="evenodd" d="M11.0761 2.59044C10.0635 2.59044 8.76848 3.61828 7.69048 4.47461C6.65331 5.29711 5.83431 5.94811 5.01764 6.00878C4.65598 6.03444 4.34564 6.04611 4.07264 6.05544C3.20114 6.08461 2.98064 6.10444 2.58748 6.42878C2.07181 6.85228 2.07998 8.58244 2.08464 9.61494L2.08581 9.87278V9.87745L2.08464 10.1353C2.07998 11.1689 2.07181 12.8991 2.58748 13.3226C2.97948 13.6469 3.19998 13.6656 4.06914 13.6971C4.34331 13.7053 4.65481 13.7169 5.01764 13.7438C5.83431 13.8033 6.65331 14.4543 7.69048 15.2768C8.97731 16.2976 10.571 17.5634 11.628 17.0373C12.5123 16.2708 12.6068 14.2384 12.6068 9.87511C12.6068 5.51178 12.5123 3.48061 11.628 2.71294C11.4565 2.62778 11.271 2.59044 11.0761 2.59044ZM11.0878 18.9191C9.46498 18.9191 7.85614 17.6416 6.60314 16.6476C6.03731 16.1984 5.18214 15.5194 4.88698 15.4891C4.55214 15.4634 4.26281 15.4529 4.00731 15.4459C3.07631 15.4121 2.34014 15.3876 1.47448 14.6736C0.317144 13.7204 0.327644 11.7278 0.334644 10.1271L0.33581 9.87511L0.334644 9.62311C0.327644 8.02244 0.317144 6.03094 1.47448 5.07778C2.34131 4.36378 3.07864 4.33811 4.01198 4.30661C4.26631 4.29728 4.55448 4.28794 4.88931 4.26344C5.18214 4.23194 6.03731 3.55294 6.60314 3.10378C8.23531 1.80761 10.4706 0.037778 12.5531 1.22428C12.5893 1.24644 12.6255 1.26978 12.6581 1.29661C14.2845 2.57411 14.3568 4.98328 14.3568 9.87511C14.3568 14.7681 14.2845 17.1773 12.6581 18.4559C12.6255 18.4816 12.5893 18.5061 12.552 18.5271C12.069 18.8024 11.5778 18.9191 11.0878 18.9191Z" fill="#212121"/>
</g>
</svg>
