<svg width="24" height="25" viewBox="0 0 24 25" fill="none" xmlns="http://www.w3.org/2000/svg">
<path fill-rule="evenodd" clip-rule="evenodd" d="M11.7499 5C11.6589 5 11.4349 5.025 11.3159 5.263L9.48992 8.914C9.20092 9.491 8.64392 9.892 7.99992 9.984L3.91192 10.573C3.64192 10.612 3.54992 10.812 3.52192 10.896C3.49692 10.977 3.45692 11.183 3.64292 11.361L6.59892 14.201C7.06992 14.654 7.28392 15.307 7.17192 15.946L6.47592 19.956C6.43292 20.207 6.58992 20.353 6.65992 20.403C6.73392 20.459 6.93192 20.57 7.17692 20.442L10.8319 18.547C11.4079 18.25 12.0939 18.25 12.6679 18.547L16.3219 20.441C16.5679 20.568 16.7659 20.457 16.8409 20.403C16.9109 20.353 17.0679 20.207 17.0249 19.956L16.3269 15.946C16.2149 15.307 16.4289 14.654 16.8999 14.201L19.8559 11.361C20.0429 11.183 20.0029 10.976 19.9769 10.896C19.9499 10.812 19.8579 10.612 19.5879 10.573L15.4999 9.984C14.8569 9.892 14.2999 9.491 14.0109 8.913L12.1829 5.263C12.0649 5.025 11.8409 5 11.7499 5ZM6.94692 22C6.53392 22 6.12392 21.87 5.77292 21.614C5.16692 21.17 4.86992 20.437 4.99892 19.699L5.69492 15.689C5.72092 15.54 5.66992 15.389 5.55992 15.283L2.60392 12.443C2.05992 11.922 1.86492 11.152 2.09492 10.437C2.32692 9.714 2.94092 9.197 3.69792 9.089L7.78592 8.5C7.94392 8.478 8.07992 8.381 8.14792 8.243L9.97492 4.591C10.3119 3.918 10.9919 3.5 11.7499 3.5C12.5079 3.5 13.1879 3.918 13.5249 4.591L15.3529 8.242C15.4219 8.381 15.5569 8.478 15.7139 8.5L19.8019 9.089C20.5589 9.197 21.1729 9.714 21.4049 10.437C21.6349 11.152 21.4389 11.922 20.8949 12.443L17.9389 15.283C17.8289 15.389 17.7789 15.54 17.8049 15.688L18.5019 19.699C18.6299 20.438 18.3329 21.171 17.7259 21.614C17.1109 22.065 16.3099 22.126 15.6309 21.772L11.9779 19.879C11.8349 19.805 11.6639 19.805 11.5209 19.879L7.86792 21.773C7.57592 21.925 7.26092 22 6.94692 22Z" fill="#212121"/>
</svg>
