<svg width="24" height="25" viewBox="0 0 24 25" fill="none" xmlns="http://www.w3.org/2000/svg">
<mask id="mask0_50538_3315" style="mask-type:luminance" maskUnits="userSpaceOnUse" x="4" y="2" width="18" height="21">
<path fill-rule="evenodd" clip-rule="evenodd" d="M4.00049 2.51123H21.0532V22.3647H4.00049V2.51123Z" fill="white"/>
</mask>
<g mask="url(#mask0_50538_3315)">
<path fill-rule="evenodd" clip-rule="evenodd" d="M8.57359 4.01123C6.91659 4.01123 5.54059 5.35323 5.50159 7.00823V17.7032C5.46459 19.4162 6.81459 20.8272 8.51059 20.8652H16.5746C18.2436 20.7962 19.5656 19.4092 19.5536 17.7092V8.83923L14.9186 4.01123H8.58559H8.57359ZM8.58559 22.3652H8.47659C5.95459 22.3082 3.94659 20.2102 4.00159 17.6872V6.99023C4.05959 4.50923 6.10859 2.51123 8.57159 2.51123H8.58859H15.2386C15.4426 2.51123 15.6376 2.59423 15.7796 2.74123L20.8446 8.01823C20.9786 8.15723 21.0536 8.34423 21.0536 8.53723V17.7032C21.0716 20.2122 19.1176 22.2622 16.6046 22.3642L8.58559 22.3652Z" fill="#212121"/>
</g>
<path fill-rule="evenodd" clip-rule="evenodd" d="M14.7889 16.6079H9.38889C8.97489 16.6079 8.63889 16.2719 8.63889 15.8579C8.63889 15.4439 8.97489 15.1079 9.38889 15.1079H14.7889C15.2029 15.1079 15.5389 15.4439 15.5389 15.8579C15.5389 16.2719 15.2029 16.6079 14.7889 16.6079Z" fill="#212121"/>
<path fill-rule="evenodd" clip-rule="evenodd" d="M12.744 12.856H9.388C8.974 12.856 8.638 12.52 8.638 12.106C8.638 11.692 8.974 11.356 9.388 11.356H12.744C13.158 11.356 13.494 11.692 13.494 12.106C13.494 12.52 13.158 12.856 12.744 12.856Z" fill="#212121"/>
<path fill-rule="evenodd" clip-rule="evenodd" d="M20.2987 9.484H17.5437C15.7137 9.479 14.2257 7.987 14.2257 6.159V3.25C14.2257 2.836 14.5617 2.5 14.9757 2.5C15.3897 2.5 15.7257 2.836 15.7257 3.25V6.159C15.7257 7.163 16.5427 7.981 17.5457 7.984H20.2987C20.7127 7.984 21.0487 8.32 21.0487 8.734C21.0487 9.148 20.7127 9.484 20.2987 9.484Z" fill="#212121"/>
</svg>
