<svg width="15" height="15" viewBox="0 0 28 28" fill="none" xmlns="http://www.w3.org/2000/svg">
<path d="M20.0722 10.1239C20.2264 10.2783 20.313 10.4876 20.313 10.7059C20.313 10.9241 20.2264 11.1334 20.0722 11.2878L12.3859 18.9741C12.2315 19.1283 12.0222 19.215 11.8039 19.215C11.5857 19.215 11.3764 19.1283 11.222 18.9741L7.92785 15.68C7.78238 15.5239 7.70318 15.3174 7.70695 15.104C7.71071 14.8907 7.79714 14.6871 7.94803 14.5363C8.09891 14.3854 8.30247 14.2989 8.51582 14.2952C8.72917 14.2914 8.93565 14.3706 9.09177 14.5161L11.8039 17.2269L18.9082 10.1239C19.0626 9.9697 19.272 9.88307 19.4902 9.88307C19.7084 9.88307 19.9177 9.9697 20.0722 10.1239ZM28 14C28 16.7689 27.1789 19.4757 25.6406 21.778C24.1022 24.0803 21.9157 25.8747 19.3576 26.9343C16.7994 27.9939 13.9845 28.2712 11.2687 27.731C8.55301 27.1908 6.05844 25.8574 4.10051 23.8995C2.14258 21.9416 0.809205 19.447 0.269012 16.7313C-0.271181 14.0155 0.00606574 11.2006 1.06569 8.64243C2.12532 6.08427 3.91973 3.89776 6.22202 2.35942C8.52431 0.821085 11.2311 0 14 0C17.7117 0.00435901 21.2701 1.48075 23.8947 4.10532C26.5192 6.72988 27.9956 10.2883 28 14ZM26.3529 14C26.3529 11.5568 25.6285 9.1685 24.2711 7.13707C22.9137 5.10564 20.9845 3.52233 18.7273 2.58737C16.4701 1.65241 13.9863 1.40778 11.5901 1.88442C9.19383 2.36106 6.99275 3.53756 5.26516 5.26515C3.53757 6.99274 2.36106 9.19382 1.88442 11.5901C1.40778 13.9863 1.65241 16.4701 2.58738 18.7273C3.52234 20.9845 5.10565 22.9137 7.13708 24.2711C9.16851 25.6284 11.5568 26.3529 14 26.3529C17.2751 26.3493 20.415 25.0467 22.7308 22.7308C25.0467 20.415 26.3493 17.2751 26.3529 14Z" fill="#BDBDBD"/>
</svg>
