<svg width="24" height="19" viewBox="0 0 24 19" fill="none" xmlns="http://www.w3.org/2000/svg">
<mask id="mask0_51377_26169" style="mask-type:luminance" maskUnits="userSpaceOnUse" x="0" y="0" width="24" height="19">
<rect y="0.5" width="24" height="18" fill="white"/>
</mask>
<g mask="url(#mask0_51377_26169)">
<path fill-rule="evenodd" clip-rule="evenodd" d="M0 4.5C0 2.29086 1.79086 0.5 4 0.5H20C22.2091 0.5 24 2.29086 24 4.5V14.5C24 16.7091 22.2091 18.5 20 18.5H4C1.79086 18.5 0 16.7091 0 14.5V4.5Z" fill="#F7FCFF"/>
<path fill-rule="evenodd" clip-rule="evenodd" d="M0 11.5V13H24V11.5H0Z" fill="#E31D1C"/>
<path fill-rule="evenodd" clip-rule="evenodd" d="M0 14.25V15.75H24V14.25H0Z" fill="#E31D1C"/>
<path fill-rule="evenodd" clip-rule="evenodd" d="M0 6V7.5H24V6H0Z" fill="#E31D1C"/>
<path fill-rule="evenodd" clip-rule="evenodd" d="M0 17V18.5H24V17H0Z" fill="#E31D1C"/>
<path fill-rule="evenodd" clip-rule="evenodd" d="M0 8.75V10.25H24V8.75H0Z" fill="#E31D1C"/>
<path fill-rule="evenodd" clip-rule="evenodd" d="M0 0.5V2H24V0.5H0Z" fill="#E31D1C"/>
<path fill-rule="evenodd" clip-rule="evenodd" d="M0 3.25V4.75H24V3.25H0Z" fill="#E31D1C"/>
<rect y="0.5" width="15" height="9.75" fill="#2E42A5"/>
<path fill-rule="evenodd" clip-rule="evenodd" d="M1.29143 2.70415L0.747018 3.08582L0.930817 2.40661L0.447279 1.97618H1.07884L1.29067 1.42188L1.53905 1.97618H2.07744L1.65441 2.40661L1.81818 3.08582L1.29143 2.70415ZM4.29141 2.70415L3.747 3.08582L3.9308 2.40661L3.44727 1.97618H4.07883L4.29065 1.42188L4.53903 1.97618H5.07742L4.6544 2.40661L4.81817 3.08582L4.29141 2.70415ZM6.747 3.08582L7.29141 2.70415L7.81817 3.08582L7.6544 2.40661L8.07742 1.97618H7.53903L7.29065 1.42188L7.07883 1.97618H6.44727L6.9308 2.40661L6.747 3.08582ZM10.2914 2.70415L9.747 3.08582L9.9308 2.40661L9.44727 1.97618H10.0788L10.2907 1.42188L10.539 1.97618H11.0774L10.6544 2.40661L10.8182 3.08582L10.2914 2.70415ZM0.747004 6.08582L1.29141 5.70415L1.81817 6.08582L1.6544 5.40661L2.07742 4.97618H1.53903L1.29065 4.42188L1.07883 4.97618H0.447266L0.930803 5.40661L0.747004 6.08582ZM4.29141 5.70415L3.747 6.08582L3.9308 5.40661L3.44727 4.97618H4.07883L4.29065 4.42188L4.53903 4.97618H5.07742L4.6544 5.40661L4.81817 6.08582L4.29141 5.70415ZM6.747 6.08582L7.29141 5.70415L7.81817 6.08582L7.6544 5.40661L8.07742 4.97618H7.53903L7.29065 4.42188L7.07883 4.97618H6.44727L6.9308 5.40661L6.747 6.08582ZM10.2914 5.70415L9.747 6.08582L9.9308 5.40661L9.44727 4.97618H10.0788L10.2907 4.42188L10.539 4.97618H11.0774L10.6544 5.40661L10.8182 6.08582L10.2914 5.70415ZM0.747004 9.08582L1.29141 8.70415L1.81817 9.08582L1.6544 8.40661L2.07742 7.97618H1.53903L1.29065 7.42188L1.07883 7.97618H0.447266L0.930803 8.40661L0.747004 9.08582ZM4.29141 8.70415L3.747 9.08582L3.9308 8.40661L3.44727 7.97618H4.07883L4.29065 7.42188L4.53903 7.97618H5.07742L4.6544 8.40661L4.81817 9.08582L4.29141 8.70415ZM6.747 9.08582L7.29141 8.70415L7.81817 9.08582L7.6544 8.40661L8.07742 7.97618H7.53903L7.29065 7.42188L7.07883 7.97618H6.44727L6.9308 8.40661L6.747 9.08582ZM10.2914 8.70415L9.747 9.08582L9.9308 8.40661L9.44727 7.97618H10.0788L10.2907 7.42188L10.539 7.97618H11.0774L10.6544 8.40661L10.8182 9.08582L10.2914 8.70415ZM12.747 3.08582L13.2914 2.70415L13.8182 3.08582L13.6544 2.40661L14.0774 1.97618H13.539L13.2907 1.42188L13.0788 1.97618H12.4473L12.9308 2.40661L12.747 3.08582ZM13.2914 5.70415L12.747 6.08582L12.9308 5.40661L12.4473 4.97618H13.0788L13.2907 4.42188L13.539 4.97618H14.0774L13.6544 5.40661L13.8182 6.08582L13.2914 5.70415ZM12.747 9.08582L13.2914 8.70415L13.8182 9.08582L13.6544 8.40661L14.0774 7.97618H13.539L13.2907 7.42188L13.0788 7.97618H12.4473L12.9308 8.40661L12.747 9.08582ZM2.79141 4.20415L2.247 4.58582L2.4308 3.90661L1.94727 3.47618H2.57883L2.79065 2.92188L3.03903 3.47618H3.57742L3.1544 3.90661L3.31817 4.58582L2.79141 4.20415ZM5.247 4.58582L5.79141 4.20415L6.31817 4.58582L6.1544 3.90661L6.57742 3.47618H6.03903L5.79065 2.92188L5.57883 3.47618H4.94727L5.4308 3.90661L5.247 4.58582ZM8.79141 4.20415L8.247 4.58582L8.4308 3.90661L7.94727 3.47618H8.57883L8.79065 2.92188L9.03903 3.47618H9.57742L9.1544 3.90661L9.31817 4.58582L8.79141 4.20415ZM2.247 7.58582L2.79141 7.20415L3.31817 7.58582L3.1544 6.90661L3.57742 6.47618H3.03903L2.79065 5.92188L2.57883 6.47618H1.94727L2.4308 6.90661L2.247 7.58582ZM5.79141 7.20415L5.247 7.58582L5.4308 6.90661L4.94727 6.47618H5.57883L5.79065 5.92188L6.03903 6.47618H6.57742L6.1544 6.90661L6.31817 7.58582L5.79141 7.20415ZM8.247 7.58582L8.79141 7.20415L9.31817 7.58582L9.1544 6.90661L9.57742 6.47618H9.03903L8.79065 5.92188L8.57883 6.47618H7.94727L8.4308 6.90661L8.247 7.58582ZM11.7914 4.20415L11.247 4.58582L11.4308 3.90661L10.9473 3.47618H11.5788L11.7907 2.92188L12.039 3.47618H12.5774L12.1544 3.90661L12.3182 4.58582L11.7914 4.20415ZM11.247 7.58582L11.7914 7.20415L12.3182 7.58582L12.1544 6.90661L12.5774 6.47618H12.039L11.7907 5.92188L11.5788 6.47618H10.9473L11.4308 6.90661L11.247 7.58582Z" fill="#F7FCFF"/>
</g>
</svg>
