<svg width="25" height="24" viewBox="0 0 25 24" fill="none" xmlns="http://www.w3.org/2000/svg">
    <path fill-rule="evenodd" clip-rule="evenodd"
        d="M12.1389 12.6185H12.1709C15.0989 12.6185 17.4799 10.2375 17.4799 7.30951C17.4799 4.38151 15.0989 1.99951 12.1709 1.99951C9.24191 1.99951 6.85991 4.38151 6.85991 7.30651C6.84991 10.2265 9.21691 12.6095 12.1389 12.6185ZM8.28791 7.30951C8.28791 5.16851 10.0299 3.42751 12.1709 3.42751C14.3109 3.42751 16.0519 5.16851 16.0519 7.30951C16.0519 9.44951 14.3109 11.1915 12.1709 11.1915H12.1419C10.0099 11.1835 8.28091 9.44351 8.28791 7.30951Z"
        fill="#9E9E9E" />
    <path fill-rule="evenodd" clip-rule="evenodd"
        d="M4.24989 18.1728C4.24989 21.8699 10.2119 21.8699 12.1709 21.8699C15.5699 21.8699 20.0899 21.4888 20.0899 18.1929C20.0899 14.4958 14.1299 14.4958 12.1709 14.4958C8.77089 14.4958 4.24989 14.8769 4.24989 18.1728ZM5.74989 18.1728C5.74989 16.7278 7.90989 15.9958 12.1709 15.9958C16.4309 15.9958 18.5899 16.7348 18.5899 18.1929C18.5899 19.6378 16.4309 20.3699 12.1709 20.3699C7.90989 20.3699 5.74989 19.6308 5.74989 18.1728Z"
        fill="#9E9E9E" />
</svg>