<?xml version="1.0" standalone="no"?>
<!DOCTYPE svg PUBLIC "-//W3C//DTD SVG 20010904//EN"
 "http://www.w3.org/TR/2001/REC-SVG-20010904/DTD/svg10.dtd">
<svg version="1.0" xmlns="http://www.w3.org/2000/svg"
 width="100.000000pt" height="100.000000pt" viewBox="0 0 100.000000 100.000000"
 preserveAspectRatio="xMidYMid meet">
<metadata>
Created by potrace 1.16, written by Peter Selinger 2001-2019
</metadata>
<g transform="translate(0.000000,100.000000) scale(0.100000,-0.100000)"
fill="#000000" stroke="none">
<path d="M325 892 c-71 -33 -115 -96 -175 -249 -17 -43 -38 -89 -47 -101 -8
-14 -12 -34 -9 -47 9 -35 97 -126 155 -160 82 -49 74 -63 -69 -114 -78 -28
-120 -49 -120 -58 0 -18 20 -56 34 -65 6 -4 154 -8 329 -8 304 0 318 1 337 20
11 11 20 24 20 29 0 5 2 16 5 23 4 10 -28 26 -120 59 -85 30 -125 49 -125 59
0 8 20 26 45 39 54 29 142 119 151 156 10 39 -20 176 -54 248 -58 125 -129
178 -246 184 -55 3 -80 0 -111 -15z m168 -212 c7 0 23 7 35 16 13 9 26 13 30
10 3 -4 7 -34 10 -69 2 -34 8 -74 13 -88 9 -22 4 -37 -26 -92 -40 -72 -104
-137 -135 -137 -30 0 -85 56 -125 128 -32 58 -34 69 -29 117 l7 54 61 30 c33
16 77 43 96 60 l35 29 8 -29 c4 -16 13 -29 20 -29z"/>
<path d="M626 871 c-17 -7 -17 -10 11 -42 17 -19 40 -53 52 -77 18 -36 25 -41
37 -32 11 10 14 8 14 -12 0 -34 7 -38 41 -26 17 6 32 8 35 6 2 -3 9 -43 14
-89 7 -63 7 -87 -3 -98 -7 -9 -21 -33 -32 -54 -24 -49 -82 -100 -106 -94 -18
5 -59 -18 -59 -33 0 -17 66 -31 94 -21 24 10 26 9 26 -17 0 -58 10 -70 63 -86
28 -8 52 -14 53 -13 0 1 8 21 17 44 l16 42 -37 11 c-68 22 -69 38 -2 81 70 45
120 109 120 153 0 50 -28 153 -57 213 -32 65 -96 125 -151 141 -43 13 -117 15
-146 3z"/>
</g>
</svg>
