<svg width="57" height="18" viewBox="0 0 57 18" fill="none" xmlns="http://www.w3.org/2000/svg">
<g clip-path="url(#clip0_12462_31931)">
<path d="M37.138 0C33.0961 0 29.467 2.05412 29.467 5.82353C29.467 10.1647 35.8776 10.4612 35.8776 12.6212C35.8776 13.5318 34.7911 14.3576 32.9657 14.3576C30.358 14.3576 28.4022 13.2141 28.4022 13.2141L27.5764 17.0259C27.5764 17.0259 29.8147 18 32.8136 18C37.2467 18 40.7236 15.8612 40.7236 12.0071C40.7236 7.43294 34.2913 7.13647 34.2913 5.12471C34.2913 4.40471 35.1822 3.62118 37.0076 3.62118C39.0721 3.62118 40.7671 4.44706 40.7671 4.44706L41.5928 0.762353C41.5711 0.762353 39.724 0 37.138 0ZM0.108654 0.275294L0 0.825882C0 0.825882 1.69501 1.12235 3.2379 1.73647C5.2154 2.43529 5.34579 2.83765 5.69348 4.08706L9.32253 17.7035H14.1902L21.6439 0.275294H16.7979L11.9954 12.1341L10.0396 2.07529C9.8658 0.931765 8.95311 0.275294 7.8231 0.275294H0.108654ZM23.5997 0.275294L19.7968 17.7035H24.4255L28.2066 0.275294H23.5997ZM49.3725 0.275294C48.2642 0.275294 47.6775 0.847059 47.2429 1.86353L40.4628 17.7035H45.3088L46.2432 15.0565H52.154L52.719 17.7035H57L53.284 0.275294H49.3725ZM50.0027 4.99765L51.4369 11.5412H47.5905L50.0027 4.99765Z" fill="#212121"/>
</g>
<defs>
<clipPath id="clip0_12462_31931">
<rect width="57" height="18" fill="white"/>
</clipPath>
</defs>
</svg>
